<?xml version="1.0" encoding="UTF-8" standalone="no"?>
<!DOCTYPE svg PUBLIC "-//W3C//DTD SVG 1.1//EN" "http://www.w3.org/Graphics/SVG/1.1/DTD/svg11.dtd">
<svg version="1.1" xmlns="http://www.w3.org/2000/svg" xmlns:xlink="http://www.w3.org/1999/xlink" preserveAspectRatio="xMidYMid meet" viewBox="0 0 640 640" width="640" height="640"><defs><path d="M82.01 146.54L84.75 141.93L91.18 141.02L92.09 118.58L117.76 118.58L117.3 103.01L83.36 102.56L80.18 109.42L77.44 114.01L71.93 116.32L70.56 122.74L68.28 128.71L63.68 134.23L58.63 140.18L55.89 150.26L52.71 153.92L53.17 160.26L53.17 160.26L83.86 158.89L82.01 146.54Z" id="e3ev3u2TG"></path><path d="M82.01 146.54L84.75 141.93L91.18 141.02L92.09 118.58L117.76 118.58L117.3 103.01L83.36 102.56L80.18 109.42L77.44 114.01L71.93 116.32L70.56 122.74L68.28 128.71L63.68 134.23L58.63 140.18L55.89 150.26L52.71 153.92L53.17 160.26L53.17 160.26L83.86 158.89L82.01 146.54Z" id="d1iZuns2O3"></path><path d="M448.9 74.73L444 74.12L439.1 71.69L438.18 68.94L433.28 70.8L429.63 72.65L428.1 69.91L423.51 72.95L417.39 76.61L412.18 73.87L405.76 73.87L400.25 71.43L392.91 69.27L389.59 69.88L386.54 69.58L385.63 68.33L383.77 70.49L384.08 72.93L385.32 75.09L384.71 78.74L383.47 80.6L385.32 86.11L385.93 89.76L385.63 154.83L432.98 154.83L432.98 152.67L435.41 152.98L435.41 155.14L450.7 154.83L452.55 156.08L456.21 156.08L458.36 152.42L461.41 151.82L464.15 147.23L466.59 146.92L469.64 144.48L468.11 138.67L470.86 137.14L465.96 133.82L458.31 119.45L455.57 113.93L455.27 109.67L452.83 106.34L452.83 103.32L447.32 96.9L445.16 89.89L444.55 86.23L444.55 81.97L446.99 86.87L448.84 92.39L451.89 97.89L457.4 103.39L459.84 103.39L460.45 99.74L461.36 95.75L463.8 90.24L464.41 87.5L463.16 80.75L459.99 73.11L461.46 68.94L461.46 68.94L461.46 68.94L455.65 73.21L448.9 74.73Z" id="hdv8RNj23"></path><path d="M448.9 74.73L444 74.12L439.1 71.69L438.18 68.94L433.28 70.8L429.63 72.65L428.1 69.91L423.51 72.95L417.39 76.61L412.18 73.87L405.76 73.87L400.25 71.43L392.91 69.27L389.59 69.88L386.54 69.58L385.63 68.33L383.77 70.49L384.08 72.93L385.32 75.09L384.71 78.74L383.47 80.6L385.32 86.11L385.93 89.76L385.63 154.83L432.98 154.83L432.98 152.67L435.41 152.98L435.41 155.14L450.7 154.83L452.55 156.08L456.21 156.08L458.36 152.42L461.41 151.82L464.15 147.23L466.59 146.92L469.64 144.48L468.11 138.67L470.86 137.14L465.96 133.82L458.31 119.45L455.57 113.93L455.27 109.67L452.83 106.34L452.83 103.32L447.32 96.9L445.16 89.89L444.55 86.23L444.55 81.97L446.99 86.87L448.84 92.39L451.89 97.89L457.4 103.39L459.84 103.39L460.45 99.74L461.36 95.75L463.8 90.24L464.41 87.5L463.16 80.75L459.99 73.11L461.46 68.94L461.46 68.94L461.46 68.94L455.65 73.21L448.9 74.73Z" id="c1oa1U4vaK"></path><path d="M372.12 64.02L369.38 59.91L361.13 56.73L350.59 57.65L346 63.15L346 71.41L343.71 76.92L337.29 81.51L331.32 76.46L314.39 73.28L307.97 70.11L307.97 64.14L299.71 60.03L291.46 58.18L285.04 58.18L278.62 55.87L277.7 60.46L267.62 66.89L267.17 77.42L262.11 78.34L261.66 81.51L263.51 87.03L266.25 92.99L265.34 98.5L265.8 104L265.8 111.81L261.68 116.85L265.8 120.96L269.91 131.98L274.96 131.98L280.47 137.95L283.21 141.6L294.69 144.35L298.8 148.01L313.93 142.04L376.72 174.58L378.09 170.48L385.88 171.39L385.73 154.92L386.03 89.84L384.51 82.96L383.6 80.65L384.84 78.79L385.45 75.14L383.83 71.71L384.05 69.63L385.73 68.28L385.73 68.28L380.37 65.39L372.12 64.02Z" id="a1xviS9nB"></path><path d="M372.12 64.02L369.38 59.91L361.13 56.73L350.59 57.65L346 63.15L346 71.41L343.71 76.92L337.29 81.51L331.32 76.46L314.39 73.28L307.97 70.11L307.97 64.14L299.71 60.03L291.46 58.18L285.04 58.18L278.62 55.87L277.7 60.46L267.62 66.89L267.17 77.42L262.11 78.34L261.66 81.51L263.51 87.03L266.25 92.99L265.34 98.5L265.8 104L265.8 111.81L261.68 116.85L265.8 120.96L269.91 131.98L274.96 131.98L280.47 137.95L283.21 141.6L294.69 144.35L298.8 148.01L313.93 142.04L376.72 174.58L378.09 170.48L385.88 171.39L385.73 154.92L386.03 89.84L384.51 82.96L383.6 80.65L384.84 78.79L385.45 75.14L383.83 71.71L384.05 69.63L385.73 68.28L385.73 68.28L380.37 65.39L372.12 64.02Z" id="ajp9xZasb"></path><path d="M253.48 58.56L252.11 54.45L247.52 44.85L253.48 36.14L253.03 22.38L252.11 19.64L253.03 18.27L257.14 16.42L260.31 14.56L265.82 13.65L268.11 16.82L272.7 19.13L271.33 22.31L270.87 26.9L274.99 32.87L272.7 36.98L268.11 40.64L263.99 43.81L267.17 46.55L272.68 45.64L274.53 48.81L274.99 51.55L274.53 54.73L278.64 55.64L277.73 60.24L267.65 66.66L267.19 77.19L262.16 78.24L262.16 78.24L258.99 62.67L253.48 58.56Z" id="c2wTYYDBu"></path><path d="M253.48 58.56L252.11 54.45L247.52 44.85L253.48 36.14L253.03 22.38L252.11 19.64L253.03 18.27L257.14 16.42L260.31 14.56L265.82 13.65L268.11 16.82L272.7 19.13L271.33 22.31L270.87 26.9L274.99 32.87L272.7 36.98L268.11 40.64L263.99 43.81L267.17 46.55L272.68 45.64L274.53 48.81L274.99 51.55L274.53 54.73L278.64 55.64L277.73 60.24L267.65 66.66L267.19 77.19L262.16 78.24L262.16 78.24L258.99 62.67L253.48 58.56Z" id="e3VvayxOt"></path><path d="M281.43 139.63L275.01 131.83L269.96 131.83L265.85 120.81L261.73 116.7L265.85 111.65L265.39 98.34L266.3 92.83L261.71 81.36L262.16 78.18L258.99 62.62L253.48 58.51L247.52 44.75L253.48 36.04L253.03 22.28L252.11 19.54L248.46 17.23L242.03 16.31L236.52 16.77L231.01 17.68L223.22 17.68L217.25 16.31L211.29 18.17L204.43 19.54L197.55 20.45L191.59 22.31L185.16 27.81L178.74 27.81L170.95 34.67L174.12 40.18L175.49 54.4L178.66 56.71L177.75 62.22L167.21 64.07L164.04 66.81L158.53 68.18L158.99 74.15L148.91 79.66L144.8 84.71L137.92 87.03L135.17 90.68L131.06 88.82L122.81 93.42L117.76 96.17L118.21 108.07L200.7 164.92L202.55 168.08L212.15 171.74L212.68 178.6L212.68 178.6L232.41 172.64L281.43 139.63Z" id="c4kMBWPjqi"></path><path d="M281.43 139.63L275.01 131.83L269.96 131.83L265.85 120.81L261.73 116.7L265.85 111.65L265.39 98.34L266.3 92.83L261.71 81.36L262.16 78.18L258.99 62.62L253.48 58.51L247.52 44.75L253.48 36.04L253.03 22.28L252.11 19.54L248.46 17.23L242.03 16.31L236.52 16.77L231.01 17.68L223.22 17.68L217.25 16.31L211.29 18.17L204.43 19.54L197.55 20.45L191.59 22.31L185.16 27.81L178.74 27.81L170.95 34.67L174.12 40.18L175.49 54.4L178.66 56.71L177.75 62.22L167.21 64.07L164.04 66.81L158.53 68.18L158.99 74.15L148.91 79.66L144.8 84.71L137.92 87.03L135.17 90.68L131.06 88.82L122.81 93.42L117.76 96.17L118.21 108.07L200.7 164.92L202.55 168.08L212.15 171.74L212.68 178.6L212.68 178.6L232.41 172.64L281.43 139.63Z" id="dKLYMbJLg"></path><path d="M94.4 97.95L99.45 93.34L106.33 90.6L108.19 81L108.19 70.92L110.93 65.41L114.1 62.24L113.19 59.93L119.61 52.59L126.03 49.42L133.83 44.82L137 37.94L139.29 28.78L141.57 27.87L145.23 31.98L148.88 34.29L154.39 33.83L158.5 34.29L163.56 34.75L170.89 34.75L174.07 40.25L175.44 54.47L178.61 56.78L177.7 62.29L167.16 64.14L162.57 67.32L158.45 68.23L158.91 74.2L148.83 79.71L144.72 84.76L137.84 87.07L135.1 90.73L130.98 88.87L117.68 96.21L117.33 102.99L117.33 102.99L83.38 102.53L94.4 97.95Z" id="c1zCeZWYpI"></path><path d="M94.4 97.95L99.45 93.34L106.33 90.6L108.19 81L108.19 70.92L110.93 65.41L114.1 62.24L113.19 59.93L119.61 52.59L126.03 49.42L133.83 44.82L137 37.94L139.29 28.78L141.57 27.87L145.23 31.98L148.88 34.29L154.39 33.83L158.5 34.29L163.56 34.75L170.89 34.75L174.07 40.25L175.44 54.47L178.61 56.78L177.7 62.29L167.16 64.14L162.57 67.32L158.45 68.23L158.91 74.2L148.83 79.71L144.72 84.76L137.84 87.07L135.1 90.73L130.98 88.87L117.68 96.21L117.33 102.99L117.33 102.99L83.38 102.53L94.4 97.95Z" id="louK70VBN"></path><path d="M117.81 208.39L145.76 207.93L146.22 202.42L143.48 201.05L136.59 127.73L145.76 127.26L118.24 107.99L117.78 118.53L92.11 118.53L91.2 140.98L84.78 141.89L82.04 146.48L83.89 158.85L53.19 160.21L53.19 163.39L55.05 170.73L54.59 174.39L55.96 178.49L58.7 181.68L58.7 188.1L57.33 194.52L55.48 200.49L62.82 200.02L68.78 199.58L72.44 202.74L77.49 203.65L80.66 207.77L88.46 215.11L92.11 213.26L96.23 207.74L100.34 210.05L104.45 208.21L109.1 209.77L109.1 209.77L113.69 207.46L117.81 208.39Z" id="d1lZCym80A"></path><path d="M117.81 208.39L145.76 207.93L146.22 202.42L143.48 201.05L136.59 127.73L145.76 127.26L118.24 107.99L117.78 118.53L92.11 118.53L91.2 140.98L84.78 141.89L82.04 146.48L83.89 158.85L53.19 160.21L53.19 163.39L55.05 170.73L54.59 174.39L55.96 178.49L58.7 181.68L58.7 188.1L57.33 194.52L55.48 200.49L62.82 200.02L68.78 199.58L72.44 202.74L77.49 203.65L80.66 207.77L88.46 215.11L92.11 213.26L96.23 207.74L100.34 210.05L104.45 208.21L109.1 209.77L109.1 209.77L113.69 207.46L117.81 208.39Z" id="c4yzh0gwTj"></path><path d="M97.19 226.68L98.11 234.02L106.36 237.68L110.95 233.57L114.61 233.57L119.66 239.54L119.2 245.05L126.06 248.21L132.94 249.58L136.59 245.93L138.45 249.58L143.04 246.85L143.5 241.8L145.35 237.2L150.41 234.02L153.15 227.17L156.32 223.52L159.98 223.96L169.57 218.92L180.11 210.67L190.65 210.67L203.95 211.58L214.97 209.27L216.82 204.68L220.48 195.08L220.93 193.71L221.39 176.32L212.68 178.63L212.23 171.74L202.63 168.08L200.78 164.92L145.79 127.34L136.62 127.79L143.48 201.11L146.22 202.49L144.36 207.99L115.95 207.99L113.67 207.55L107.7 210.29L104.53 208.43L99.02 210.74L96.28 207.99L92.17 213.51L88.51 215.36L90.77 218.46L90.77 218.46L95.82 222.58L97.19 226.68Z" id="bhGCMN5Bg"></path><path d="M97.19 226.68L98.11 234.02L106.36 237.68L110.95 233.57L114.61 233.57L119.66 239.54L119.2 245.05L126.06 248.21L132.94 249.58L136.59 245.93L138.45 249.58L143.04 246.85L143.5 241.8L145.35 237.2L150.41 234.02L153.15 227.17L156.32 223.52L159.98 223.96L169.57 218.92L180.11 210.67L190.65 210.67L203.95 211.58L214.97 209.27L216.82 204.68L220.48 195.08L220.93 193.71L221.39 176.32L212.68 178.63L212.23 171.74L202.63 168.08L200.78 164.92L145.79 127.34L136.62 127.79L143.48 201.11L146.22 202.49L144.36 207.99L115.95 207.99L113.67 207.55L107.7 210.29L104.53 208.43L99.02 210.74L96.28 207.99L92.17 213.51L88.51 215.36L90.77 218.46L90.77 218.46L95.82 222.58L97.19 226.68Z" id="i1HP4TFN3"></path><path d="M194.3 224.89L195.67 228.54L205.27 232.2L205.73 234.05L208.47 234.51L213.98 239.1L214.89 232.24L220.4 225.83L222.25 221.23L238.27 222.15L241.93 227.2L251.1 225.83L261.17 230.42L271.25 226.3L279.96 224.93L286.39 226.3L294.18 221.26L297.84 212.08L308.85 197.42L309.31 177.23L313.42 168.98L307.46 157.51L306.09 146.02L298.75 147.89L294.64 144.23L283.16 141.48L281.31 139.63L232.28 172.64L221.26 176.29L220.81 193.68L214.84 209.24L205.24 211.55L190.57 210.64L190.19 212.98L190.19 212.98L190.65 221.23L194.3 224.89Z" id="a534q0SYfj"></path><path d="M194.3 224.89L195.67 228.54L205.27 232.2L205.73 234.05L208.47 234.51L213.98 239.1L214.89 232.24L220.4 225.83L222.25 221.23L238.27 222.15L241.93 227.2L251.1 225.83L261.17 230.42L271.25 226.3L279.96 224.93L286.39 226.3L294.18 221.26L297.84 212.08L308.85 197.42L309.31 177.23L313.42 168.98L307.46 157.51L306.09 146.02L298.75 147.89L294.64 144.23L283.16 141.48L281.31 139.63L232.28 172.64L221.26 176.29L220.81 193.68L214.84 209.24L205.24 211.55L190.57 210.64L190.19 212.98L190.19 212.98L190.65 221.23L194.3 224.89Z" id="b5tnVzE1i"></path><path d="M302.41 229.51L305.58 238.21L306.49 246.46L309.67 250.58L298.65 252.43L299.56 258.4L306.44 262.51L310.55 270.76L317.89 271.21L320.63 272.13L336.2 268.02L337.11 261.59L346.71 260.22L352.67 255.63L356.79 249.67L361.84 244.61L370.09 243.7L365.98 239.58L365.06 230.88L359.55 229.02L364.15 223.05L363.24 218.01L368.29 211.15L370.14 205.64L376.56 206.1L376.56 174.49L313.78 141.93L305.98 146.05L307.36 157.52L313.32 169.01L309.21 177.26L308.75 197.43L297.73 212.11L294.08 221.27L295.12 222.6L295.12 222.6L299.23 227.65L302.41 229.51Z" id="g42yqPY4r5"></path><path d="M302.41 229.51L305.58 238.21L306.49 246.46L309.67 250.58L298.65 252.43L299.56 258.4L306.44 262.51L310.55 270.76L317.89 271.21L320.63 272.13L336.2 268.02L337.11 261.59L346.71 260.22L352.67 255.63L356.79 249.67L361.84 244.61L370.09 243.7L365.98 239.58L365.06 230.88L359.55 229.02L364.15 223.05L363.24 218.01L368.29 211.15L370.14 205.64L376.56 206.1L376.56 174.49L313.78 141.93L305.98 146.05L307.36 157.52L313.32 169.01L309.21 177.26L308.75 197.43L297.73 212.11L294.08 221.27L295.12 222.6L295.12 222.6L299.23 227.65L302.41 229.51Z" id="aj4tPknYH"></path><path d="M486.04 219.15L489.21 215.98L492.39 218.49L498.35 217.11L500.86 218.96L505.69 220.33L510.97 224.93L514.14 227.45L517.32 227.21L523.99 231.82L527.42 230.9L520.74 224.68L516.15 220.32L509.27 214.1L504.72 212.02L503.56 209.27L501.04 208.36L498.53 201.02L495.79 191.17L492.61 187.26L486.19 192.3L484.34 193.48L482.97 194.4L477.69 210.86L477.08 217.08L477.08 217.08L482.13 216.64L486.04 219.15Z" id="flfP2zJrR"></path><path d="M486.04 219.15L489.21 215.98L492.39 218.49L498.35 217.11L500.86 218.96L505.69 220.33L510.97 224.93L514.14 227.45L517.32 227.21L523.99 231.82L527.42 230.9L520.74 224.68L516.15 220.32L509.27 214.1L504.72 212.02L503.56 209.27L501.04 208.36L498.53 201.02L495.79 191.17L492.61 187.26L486.19 192.3L484.34 193.48L482.97 194.4L477.69 210.86L477.08 217.08L477.08 217.08L482.13 216.64L486.04 219.15Z" id="anmrJdJB"></path><path d="M473.42 297.28L482.13 297.28L490.38 303.71L502.74 305.33L504.37 301.69L510.79 297.57L512.87 301L518.15 301.91L521.81 299.4L525.92 298.69L532.14 294.32L543.16 293.6L568.6 268.85L560.12 269.32L535.14 259.46L527.12 250.76L527.34 243.88L522.98 243.65L521.12 245.02L519.96 237.68L522.04 231.26L517.44 227.15L514.27 227.38L505.56 220.95L500.97 218.86L498.45 217.02L492.49 218.39L489.31 215.86L486.14 219.05L482.23 216.52L477.18 216.99L475.32 228.9L471.21 230.27L466.16 238.98L465.25 245.4L459.28 246.77L456.11 264.15L451.74 265.08L451.74 270.58L456.11 272.44L463.67 280.91L467.89 289.96L467.89 289.96L472.71 291.33L473.42 297.28Z" id="ah9ABrrrt"></path><path d="M473.42 297.28L482.13 297.28L490.38 303.71L502.74 305.33L504.37 301.69L510.79 297.57L512.87 301L518.15 301.91L521.81 299.4L525.92 298.69L532.14 294.32L543.16 293.6L568.6 268.85L560.12 269.32L535.14 259.46L527.12 250.76L527.34 243.88L522.98 243.65L521.12 245.02L519.96 237.68L522.04 231.26L517.44 227.15L514.27 227.38L505.56 220.95L500.97 218.86L498.45 217.02L492.49 218.39L489.31 215.86L486.14 219.05L482.23 216.52L477.18 216.99L475.32 228.9L471.21 230.27L466.16 238.98L465.25 245.4L459.28 246.77L456.11 264.15L451.74 265.08L451.74 270.58L456.11 272.44L463.67 280.91L467.89 289.96L467.89 289.96L472.71 291.33L473.42 297.28Z" id="b33oW2QMUE"></path><path d="M522.88 243.73L521.02 245.1L520.31 238.42L521.94 231.3L524.02 231.77L527.45 230.85L529.96 235.21L529.73 240.27L529.99 241.64L529.99 241.64L527.24 243.95L522.88 243.73Z" id="dgjopbwDu"></path><path d="M522.88 243.73L521.02 245.1L520.31 238.42L521.94 231.3L524.02 231.77L527.45 230.85L529.96 235.21L529.73 240.27L529.99 241.64L529.99 241.64L527.24 243.95L522.88 243.73Z" id="ca96p7cp9"></path><path d="M540.75 250.76L547.17 250.05L551.77 247.3L557.99 248.02L563.27 244.11L567.38 244.55L573.6 243.65L583.45 242.48L588.05 238.36L593.56 239.27L592.64 242.46L592.64 248.18L594.73 250.27L591.07 251.65L590.61 256.24L589.24 261.97L586.73 262.89L581.9 270.91L576.85 280.08L573.42 288.33L567.92 293.6L567.2 298.21L550.5 314.46L541.79 319.27L531.03 327.29L524.81 335.1L517.47 344.69L512.87 337.59L513.58 308.46L518.18 304.56L518.18 301.81L521.84 299.29L525.95 298.58L531 294.68L542.45 293.77L568.58 268.77L560.1 269.24L535.11 259.39L527.09 250.68L527.32 243.83L530.06 241.52L531.81 243.67L531.81 243.67L531.81 243.67L534.78 247.58L540.75 250.76Z" id="c1wMZVeKXt"></path><path d="M540.75 250.76L547.17 250.05L551.77 247.3L557.99 248.02L563.27 244.11L567.38 244.55L573.6 243.65L583.45 242.48L588.05 238.36L593.56 239.27L592.64 242.46L592.64 248.18L594.73 250.27L591.07 251.65L590.61 256.24L589.24 261.97L586.73 262.89L581.9 270.91L576.85 280.08L573.42 288.33L567.92 293.6L567.2 298.21L550.5 314.46L541.79 319.27L531.03 327.29L524.81 335.1L517.47 344.69L512.87 337.59L513.58 308.46L518.18 304.56L518.18 301.81L521.84 299.29L525.95 298.58L531 294.68L542.45 293.77L568.58 268.77L560.1 269.24L535.11 259.39L527.09 250.68L527.32 243.83L530.06 241.52L531.81 243.67L531.81 243.67L531.81 243.67L534.78 247.58L540.75 250.76Z" id="n1NWcmTmsm"></path><path d="M464.46 314.47L464.46 321.33L455.98 330.5L456.21 340.1L487.36 357.03L487.36 360.94L499.27 368.97L504.55 360.71L510.51 349.7L517.39 344.64L512.8 337.53L513.71 309.13L518.08 304.52L518.08 301.78L512.8 300.87L510.72 297.45L504.29 301.56L502.67 305.21L490.3 303.58L482.05 297.16L473.34 297.16L472.63 291.2L467.81 289.83L457.5 298.77L460.12 303.01L460.12 303.01L461.28 308.06L464.46 314.47Z" id="a1VC7m8B4N"></path><path d="M464.46 314.47L464.46 321.33L455.98 330.5L456.21 340.1L487.36 357.03L487.36 360.94L499.27 368.97L504.55 360.71L510.51 349.7L517.39 344.64L512.8 337.53L513.71 309.13L518.08 304.52L518.08 301.78L512.8 300.87L510.72 297.45L504.29 301.56L502.67 305.21L490.3 303.58L482.05 297.16L473.34 297.16L472.63 291.2L467.81 289.83L457.5 298.77L460.12 303.01L460.12 303.01L461.28 308.06L464.46 314.47Z" id="a26IrGC1uQ"></path><path d="M455.55 339.64L456 330.48L464.48 321.31L464.71 315.34L461.06 308.66L460.14 302.93L457.63 298.82L451.41 303.15L433.56 304.52L431.48 304.76L431.71 312.77L435.62 314.4L433.54 317.38L422.29 329.06L423 343.32L423 343.32L428.51 340.81L455.55 339.64Z" id="e3QQyLCGZh"></path><path d="M455.55 339.64L456 330.48L464.48 321.31L464.71 315.34L461.06 308.66L460.14 302.93L457.63 298.82L451.41 303.15L433.56 304.52L431.48 304.76L431.71 312.77L435.62 314.4L433.54 317.38L422.29 329.06L423 343.32L423 343.32L428.51 340.81L455.55 339.64Z" id="b7qZ7DpRO"></path><path d="M418.84 355.97L421.12 355.51L422.97 355.74L425.06 351.63L431.73 350.91L431.73 345.63L428.56 340.81L422.82 343.98L418.84 346.09L418.84 346.09L417.46 350.46L418.84 355.97Z" id="b65FI9L6H"></path><path d="M418.84 355.97L421.12 355.51L422.97 355.74L425.06 351.63L431.73 350.91L431.73 345.63L428.56 340.81L422.82 343.98L418.84 346.09L418.84 346.09L417.46 350.46L418.84 355.97Z" id="h3uIiOiAKc"></path><path d="M423.84 367.87L430.95 360.77L430.72 357.34L429.8 355.03L431.66 350.91L424.98 351.63L422.9 355.74L421.04 355.51L418.76 355.97L418.38 358.71L418.38 358.71L420.66 368.1L423.84 367.87Z" id="c1rFKpQ1r9"></path><path d="M423.84 367.87L430.95 360.77L430.72 357.34L429.8 355.03L431.66 350.91L424.98 351.63L422.9 355.74L421.04 355.51L418.76 355.97L418.38 358.71L418.38 358.71L420.66 368.1L423.84 367.87Z" id="cuhhtzxN"></path><path d="M422.34 383.46L428.31 389.43L431.48 398.82L440.19 404.1L448.67 405.73L458.06 409.16L460.57 413.27L462.43 422.85L468.16 422.85L473.67 421.7L475.05 423.78L486.72 423.07L489.24 419.89L492.41 422.2L497.01 419.89L508.68 417.58L502.26 410.91L502.03 405.17L499.06 399.43L498.83 391.41L500.92 387.75L494.49 382.47L496.78 376.04L499.29 368.94L487.38 360.92L487.38 357.01L455.55 339.62L428.56 340.78L431.73 345.6L431.73 350.89L429.88 355L431.05 360.74L423.94 367.85L420.77 368.08L420.26 371.99L420.26 371.99L422.11 378.41L422.34 383.46Z" id="cHXDfV95m"></path><path d="M422.34 383.46L428.31 389.43L431.48 398.82L440.19 404.1L448.67 405.73L458.06 409.16L460.57 413.27L462.43 422.85L468.16 422.85L473.67 421.7L475.05 423.78L486.72 423.07L489.24 419.89L492.41 422.2L497.01 419.89L508.68 417.58L502.26 410.91L502.03 405.17L499.06 399.43L498.83 391.41L500.92 387.75L494.49 382.47L496.78 376.04L499.29 368.94L487.38 360.92L487.38 357.01L455.55 339.62L428.56 340.78L431.73 345.6L431.73 350.89L429.88 355L431.05 360.74L423.94 367.85L420.77 368.08L420.26 371.99L420.26 371.99L422.11 378.41L422.34 383.46Z" id="e1xh6VR0p3"></path><path d="M302.96 284.32L301.11 284.32L303.55 291.65L307.53 298.66L308.45 304.47L315.78 310.9L321.6 301.74L333.84 302.65L335.36 298.66L341.17 291.02L350.92 295.28L365.9 298.6L368.95 293.71L376.28 295.57L381.49 291.9L384.23 293.15L391.24 290.4L395.5 292.27L400.71 291.02L407.89 294.04L406.98 288.99L400.12 283.47L398.27 277.06L390.02 274.32L386.69 271.72L384.99 267.01L379.48 266.08L378.57 261.5L375.4 260.58L375.4 251.42L370.57 247.3L369.58 243.32L362.83 244.23L355.82 251.88L351.84 256.46L346.94 260.13L337.34 261.5L336.43 267.91L320.86 272.02L317.38 270.78L311.88 271.08L309.67 272.08L309.67 272.08L305.4 279.41L302.96 284.32Z" id="a6KB1r4IiF"></path><path d="M302.96 284.32L301.11 284.32L303.55 291.65L307.53 298.66L308.45 304.47L315.78 310.9L321.6 301.74L333.84 302.65L335.36 298.66L341.17 291.02L350.92 295.28L365.9 298.6L368.95 293.71L376.28 295.57L381.49 291.9L384.23 293.15L391.24 290.4L395.5 292.27L400.71 291.02L407.89 294.04L406.98 288.99L400.12 283.47L398.27 277.06L390.02 274.32L386.69 271.72L384.99 267.01L379.48 266.08L378.57 261.5L375.4 260.58L375.4 251.42L370.57 247.3L369.58 243.32L362.83 244.23L355.82 251.88L351.84 256.46L346.94 260.13L337.34 261.5L336.43 267.91L320.86 272.02L317.38 270.78L311.88 271.08L309.67 272.08L309.67 272.08L305.4 279.41L302.96 284.32Z" id="a3sa0EcWVA"></path><path d="M50.27 212.83L54.26 222.58L62.82 222.58L68.02 220.71L71.68 224.05L75.66 224.65L75.36 225.9L69.54 225.9L66.5 224.65L57.94 226.82L53.04 227.43L52.43 233.54L62.51 232.93L67.11 230.18L81.17 230.49L86.99 232.65L98.16 234.02L97.7 228.36L95.85 222.55L91.58 219.51L88.54 215.24L79.67 207.6L77.82 204.55L73.23 203.02L68.78 199.7L55.48 200.61L55.78 204.27L55.78 204.27L55.48 209.17L50.27 212.83Z" id="buDVqs2N7"></path><path d="M50.27 212.83L54.26 222.58L62.82 222.58L68.02 220.71L71.68 224.05L75.66 224.65L75.36 225.9L69.54 225.9L66.5 224.65L57.94 226.82L53.04 227.43L52.43 233.54L62.51 232.93L67.11 230.18L81.17 230.49L86.99 232.65L98.16 234.02L97.7 228.36L95.85 222.55L91.58 219.51L88.54 215.24L79.67 207.6L77.82 204.55L73.23 203.02L68.78 199.7L55.48 200.61L55.78 204.27L55.78 204.27L55.48 209.17L50.27 212.83Z" id="aMKAxTd9W"></path><path d="M62.79 238.49L64.31 245.49L67.06 243.07L70.71 238.8L75.92 237.89L75.61 234.55L78.05 230.9L67.03 230.3L62.44 233.04L52.36 233.65L54.26 235.11L54.26 235.11L54.26 235.11L59.47 236.96L62.79 238.49Z" id="a11CZCWXgK"></path><path d="M62.79 238.49L64.31 245.49L67.06 243.07L70.71 238.8L75.92 237.89L75.61 234.55L78.05 230.9L67.03 230.3L62.44 233.04L52.36 233.65L54.26 235.11L54.26 235.11L54.26 235.11L59.47 236.96L62.79 238.49Z" id="b2TLaIzeAk"></path><path d="M65.53 224.76L70.43 225.67L75.33 225.98L75.64 224.74L71.65 224.13L68 220.8L64.34 222.65L54.29 222.65L54.29 222.63L54.26 222.6L54.26 222.6L54.26 222.6L53.02 227.49L65.53 224.76Z" id="dBZGd42rr"></path><path d="M65.53 224.76L70.43 225.67L75.33 225.98L75.64 224.74L71.65 224.13L68 220.8L64.34 222.65L54.29 222.65L54.29 222.63L54.26 222.6L54.26 222.6L54.26 222.6L53.02 227.49L65.53 224.76Z" id="aZeC40gGq"></path><path d="M70.46 249.18L74.44 253.45L77.77 255.3L79.01 258.96L83.91 259.57L86.96 255.3L89.7 252.55L93.36 253.17L96.41 250.73L97.93 251.65L101.91 261.12L101.31 265.71L105.9 263.85L109.23 264.15L111.97 270.27L112.27 273.02L115.93 273.02L119.91 270.27L122.66 267.53L123.27 263.88L126.31 262.64L124.15 254.99L122.91 250.73L124.76 248.88L119.1 245.07L119.56 239.55L114.51 233.6L110.85 233.6L106.26 237.71L98 234.05L86.83 232.68L81.02 230.52L77.97 230.83L75.54 234.48L75.84 237.8L70.64 238.71L64.21 245.48L65.86 246.43L65.86 246.43L68.61 244.92L70.46 249.18Z" id="asUvpRuAx"></path><path d="M70.46 249.18L74.44 253.45L77.77 255.3L79.01 258.96L83.91 259.57L86.96 255.3L89.7 252.55L93.36 253.17L96.41 250.73L97.93 251.65L101.91 261.12L101.31 265.71L105.9 263.85L109.23 264.15L111.97 270.27L112.27 273.02L115.93 273.02L119.91 270.27L122.66 267.53L123.27 263.88L126.31 262.64L124.15 254.99L122.91 250.73L124.76 248.88L119.1 245.07L119.56 239.55L114.51 233.6L110.85 233.6L106.26 237.71L98 234.05L86.83 232.68L81.02 230.52L77.97 230.83L75.54 234.48L75.84 237.8L70.64 238.71L64.21 245.48L65.86 246.43L65.86 246.43L68.61 244.92L70.46 249.18Z" id="bzCogxkzX"></path><path d="M101.89 269.65L104.05 267.49L104.35 265.04L101.61 265.04L101.91 261.07L97.93 251.6L96.41 250.68L93.08 253.73L89.75 252.48L87.01 255.23L83.97 259.49L80.31 259.49L80.31 264.39L82.47 268.04L84.9 269.28L86.15 274.19L93.97 279.41L93.97 279.41L97.62 272.66L101.89 269.65Z" id="b2eBsdCVZg"></path><path d="M101.89 269.65L104.05 267.49L104.35 265.04L101.61 265.04L101.91 261.07L97.93 251.6L96.41 250.68L93.08 253.73L89.75 252.48L87.01 255.23L83.97 259.49L80.31 259.49L80.31 264.39L82.47 268.04L84.9 269.28L86.15 274.19L93.97 279.41L93.97 279.41L97.62 272.66L101.89 269.65Z" id="agepNLGbX"></path><path d="M155.08 252.51L161.5 253.11L164.83 256.77L164.52 243.61L183.46 243.01L186.2 242.4L190.19 243.65L195.39 243.95L198.72 240.9L202.99 240.3L206.03 235.4L205.24 232.21L195.65 228.57L194.28 224.9L190.62 221.26L189.83 210.71L180.08 210.71L170.34 218.96L159.95 224.02L156.3 223.57L153.25 226.58L150.2 234.83L145.3 237.27L143.45 241.86L142.99 246.92L147.13 250.71L147.13 250.71L147.13 250.71L153.55 254.02L155.08 252.51Z" id="b3gDL8WCdy"></path><path d="M155.08 252.51L161.5 253.11L164.83 256.77L164.52 243.61L183.46 243.01L186.2 242.4L190.19 243.65L195.39 243.95L198.72 240.9L202.99 240.3L206.03 235.4L205.24 232.21L195.65 228.57L194.28 224.9L190.62 221.26L189.83 210.71L180.08 210.71L170.34 218.96L159.95 224.02L156.3 223.57L153.25 226.58L150.2 234.83L145.3 237.27L143.45 241.86L142.99 246.92L147.13 250.71L147.13 250.71L147.13 250.71L153.55 254.02L155.08 252.51Z" id="b2C1V0K69A"></path><path d="M129.13 287.62L127.61 295.57L126.69 298.31L114.79 294.04L108.97 288.53L102.85 283.64L98.59 281.47L93.99 279.32L97.65 272.57L104.07 267.35L104.38 264.91L109.28 264.01L112.02 270.13L112.32 272.87L115.98 272.87L119.03 271.02L120.55 276.21L120.24 278.96L118.11 280.91L118.11 280.91L124.23 283.35L129.13 287.62Z" id="aDEC5E6eB"></path><path d="M129.13 287.62L127.61 295.57L126.69 298.31L114.79 294.04L108.97 288.53L102.85 283.64L98.59 281.47L93.99 279.32L97.65 272.57L104.07 267.35L104.38 264.91L109.28 264.01L112.02 270.13L112.32 272.87L115.98 272.87L119.03 271.02L120.55 276.21L120.24 278.96L118.11 280.91L118.11 280.91L124.23 283.35L129.13 287.62Z" id="b5ZaDCwebh"></path><path d="M156.3 291.9L162.72 291.29L165.16 290.69L164.85 286.09L161.81 278.76L164.85 269.9L166.71 262.89L164.85 256.77L162.41 253.45L155.08 252.54L153.55 254.05L143.02 246.86L138.42 249.61L136.57 245.96L132.13 249.77L124.79 248.85L122.94 250.71L126.26 262.6L123.22 263.85L122.61 267.51L118.95 271.16L120.47 276.37L120.17 279.12L118.01 280.96L129.03 286.77L126.59 298.39L131.87 297.72L131.87 297.72L131.87 297.72L143.48 292.21L156.3 291.9Z" id="dFa2hR1QE"></path><path d="M156.3 291.9L162.72 291.29L165.16 290.69L164.85 286.09L161.81 278.76L164.85 269.9L166.71 262.89L164.85 256.77L162.41 253.45L155.08 252.54L153.55 254.05L143.02 246.86L138.42 249.61L136.57 245.96L132.13 249.77L124.79 248.85L122.94 250.71L126.26 262.6L123.22 263.85L122.61 267.51L118.95 271.16L120.47 276.37L120.17 279.12L118.01 280.96L129.03 286.77L126.59 298.39L131.87 297.72L131.87 297.72L131.87 297.72L143.48 292.21L156.3 291.9Z" id="aGCrLwiQB"></path><path d="M190.8 256.5L190.8 263.83L191.71 272.69L192.32 278.2L196.59 283.4L193.85 286.45L186.2 287.37L179.2 291.02L173.69 292.88L169.09 295.03L166.05 293.18L160.54 291.65L165.13 290.74L164.83 286.15L161.78 278.81L166.68 262.91L164.83 256.79L164.52 243.65L183.46 243.04L186.2 242.43L187.45 245.48L189.25 248.85L189.25 248.85L188.64 256.79L190.8 256.5Z" id="fb4551Kus4"></path><path d="M190.8 256.5L190.8 263.83L191.71 272.69L192.32 278.2L196.59 283.4L193.85 286.45L186.2 287.37L179.2 291.02L173.69 292.88L169.09 295.03L166.05 293.18L160.54 291.65L165.13 290.74L164.83 286.15L161.78 278.81L166.68 262.91L164.83 256.79L164.52 243.65L183.46 243.04L186.2 242.43L187.45 245.48L189.25 248.85L189.25 248.85L188.64 256.79L190.8 256.5Z" id="f6qFgx2d6"></path><path d="M200.01 263.81L201.26 277.87L202.17 281.52L196.66 283.38L192.4 278.18L190.87 257.69L188.72 256.77L189.63 249.43L186.3 242.43L193.95 244.27L193.57 247.33L193.57 247.33L198.16 254.33L200.01 263.81Z" id="aeOcjmXq2"></path><path d="M200.01 263.81L201.26 277.87L202.17 281.52L196.66 283.38L192.4 278.18L190.87 257.69L188.72 256.77L189.63 249.43L186.3 242.43L193.95 244.27L193.57 247.33L193.57 247.33L198.16 254.33L200.01 263.81Z" id="f1K5i220OA"></path><path d="M214.64 252.83L216.49 246.42L217.41 246.42L214.08 239.08L208.57 234.48L205.83 234.02L203.98 239.99L198.77 240.9L195.11 244.89L193.87 244.27L193.57 247.3L198.16 254.3L199.68 261.95L201.21 277.24L202.12 281.5L209.43 280.64L209.43 280.64L209.13 258.96L214.64 252.83Z" id="ck4OxuWXk"></path><path d="M214.64 252.83L216.49 246.42L217.41 246.42L214.08 239.08L208.57 234.48L205.83 234.02L203.98 239.99L198.77 240.9L195.11 244.89L193.87 244.27L193.57 247.3L198.16 254.3L199.68 261.95L201.21 277.24L202.12 281.5L209.43 280.64L209.43 280.64L209.13 258.96L214.64 252.83Z" id="a14QEbqn4j"></path><path d="M229.29 298.06L239.95 298.35L250.61 295.91L253.13 294.4L256.68 292.21L258.53 284.88L268.61 275.71L277.17 279.97L284.81 265.6L288.8 260.71L291.84 254.29L294.28 248.77L297.02 243.27L301.29 240.52L300.37 234.4L298.85 226.77L293.65 222.17L286.31 226.15L279.89 224.79L271.33 227.1L261.25 231.08L251.04 225.73L242.64 226.79L238.2 222.07L222.18 221.15L220.38 225.73L214.87 232.15L213.95 238.99L217 245.11L214.56 252.76L209.97 258.27L209.36 280.56L220.76 281.54L220.76 281.54L227.76 288.31L229.29 298.06Z" id="a3TlBklX5S"></path><path d="M229.29 298.06L239.95 298.35L250.61 295.91L253.13 294.4L256.68 292.21L258.53 284.88L268.61 275.71L277.17 279.97L284.81 265.6L288.8 260.71L291.84 254.29L294.28 248.77L297.02 243.27L301.29 240.52L300.37 234.4L298.85 226.77L293.65 222.17L286.31 226.15L279.89 224.79L271.33 227.1L261.25 231.08L251.04 225.73L242.64 226.79L238.2 222.07L222.18 221.15L220.38 225.73L214.87 232.15L213.95 238.99L217 245.11L214.56 252.76L209.97 258.27L209.36 280.56L220.76 281.54L220.76 281.54L227.76 288.31L229.29 298.06Z" id="dFLgtcn"></path><path d="M302.63 314.56L310.58 316.71L315.48 319.15L315.18 315.16L315.78 310.9L308.45 304.47L307.84 299.58L301.09 284.29L302.94 284.29L310.73 270.69L306.92 263.21L299.74 258.32L298.83 252.36L309.84 250.49L306.67 246.39L305.43 236.92L302.53 229.46L299.64 228.39L301.49 240.63L297.23 243.36L288.97 261.7L284.99 265.69L277.35 280.06L269.71 276.07L258.69 284.93L256.83 292.27L252.57 295.01L254.42 298.66L255.94 297.41L258.1 301.4L263 300.15L261.76 304.43L263.51 306L263.51 306L263.82 314.25L302.63 314.56Z" id="ewHZcH5LS"></path><path d="M302.63 314.56L310.58 316.71L315.48 319.15L315.18 315.16L315.78 310.9L308.45 304.47L307.84 299.58L301.09 284.29L302.94 284.29L310.73 270.69L306.92 263.21L299.74 258.32L298.83 252.36L309.84 250.49L306.67 246.39L305.43 236.92L302.53 229.46L299.64 228.39L301.49 240.63L297.23 243.36L288.97 261.7L284.99 265.69L277.35 280.06L269.71 276.07L258.69 284.93L256.83 292.27L252.57 295.01L254.42 298.66L255.94 297.41L258.1 301.4L263 300.15L261.76 304.43L263.51 306L263.51 306L263.82 314.25L302.63 314.56Z" id="d2wQxluAOQ"></path><path d="M267.17 324.04L265.92 326.49L263.18 324.64L260.13 323.39L263.79 314.22L277.27 314.58L277.27 314.58L276.03 324.96L267.17 324.04Z" id="c1f9337K9"></path><path d="M267.17 324.04L265.92 326.49L263.18 324.64L260.13 323.39L263.79 314.22L277.27 314.58L277.27 314.58L276.03 324.96L267.17 324.04Z" id="e1guF7q7tk"></path><path d="M301.11 321.58L300.81 326.19L298.65 329.51L297.4 332.84L298.32 336.16L302.3 337.41L301.39 348.43L298.34 351.75L294.69 350.51L290.09 350.51L285.5 346.85L285.19 351.45L280.93 350.53L278.49 352.39L279.73 356.98L282.17 357.9L280.65 362.49L276.66 362.19L274.5 364.04L258.94 347.56L254.95 339.01L259.22 336.57L258.92 328.32L263.18 324.65L265.03 326.52L267.19 324.08L276.05 324.99L277.3 314.6L292.02 314.6L292.02 314.58L291.95 314.58L291.95 314.58L291.95 314.58L291.95 314.58L291.95 314.58L292.55 322.83L301.11 321.58Z" id="bshK7xbii"></path><path d="M301.11 321.58L300.81 326.19L298.65 329.51L297.4 332.84L298.32 336.16L302.3 337.41L301.39 348.43L298.34 351.75L294.69 350.51L290.09 350.51L285.5 346.85L285.19 351.45L280.93 350.53L278.49 352.39L279.73 356.98L282.17 357.9L280.65 362.49L276.66 362.19L274.5 364.04L258.94 347.56L254.95 339.01L259.22 336.57L258.92 328.32L263.18 324.65L265.03 326.52L267.19 324.08L276.05 324.99L277.3 314.6L292.02 314.6L292.02 314.58L291.95 314.58L291.95 314.58L291.95 314.58L291.95 314.58L291.95 314.58L292.55 322.83L301.11 321.58Z" id="ividOLNDF"></path><path d="M329.49 319.43L326.45 327.38L326.45 335.02L313.93 349.7L313.63 360.71L304.77 369.88L300.78 366.22L296.19 368.97L292.53 371.12L289.79 371.12L287.05 375.1L283.72 378.44L283.72 382.7L290.73 379.96L292.88 377.22L298.09 379.65L317.97 379.35L320.71 390.67L326.83 395.57L341.2 395.27L341.5 391.94L340.89 388.92L350.06 387.4L350.06 391.38L360.14 390.77L359.53 394.76L361.05 402.1L358.61 407.6L363.51 415.54L363.82 418.6L376.97 420.12L380.02 420.12L380.93 421.98L385.53 420.12L389.79 423.45L398.35 426.77L401.39 423.73L406.6 427.71L409.04 429.57L412.08 432.59L416.98 436.85L422.19 437.46L424.04 435.94L423.13 427.69L417.62 430.74L413.35 427.08L412.11 422.81L413.96 415.81L414.27 410.29L413.66 407.25L416.98 401.13L429.8 398.09L431.58 398.92L428.41 389.53L422.44 383.56L422.21 378.51L420.36 372.09L420.82 368.18L418.53 358.78L418.99 356.04L417.62 350.53L418.86 347.06L422.92 344.16L423.15 329.03L435.77 314.58L432.67 312.81L432.06 305.79L432.98 304.27L423.68 296.02L415.28 298.46L400.91 291.13L395.71 292.37L391.44 290.52L384.43 293.26L381.69 292.01L376.49 295.66L369.15 293.82L366.1 298.71L351.13 295.39L341.05 291.72L335.54 298.74L333.79 302.63L333.79 302.63L333.48 307.52L329.49 319.43Z" id="jX9fNJKV2"></path><path d="M329.49 319.43L326.45 327.38L326.45 335.02L313.93 349.7L313.63 360.71L304.77 369.88L300.78 366.22L296.19 368.97L292.53 371.12L289.79 371.12L287.05 375.1L283.72 378.44L283.72 382.7L290.73 379.96L292.88 377.22L298.09 379.65L317.97 379.35L320.71 390.67L326.83 395.57L341.2 395.27L341.5 391.94L340.89 388.92L350.06 387.4L350.06 391.38L360.14 390.77L359.53 394.76L361.05 402.1L358.61 407.6L363.51 415.54L363.82 418.6L376.97 420.12L380.02 420.12L380.93 421.98L385.53 420.12L389.79 423.45L398.35 426.77L401.39 423.73L406.6 427.71L409.04 429.57L412.08 432.59L416.98 436.85L422.19 437.46L424.04 435.94L423.13 427.69L417.62 430.74L413.35 427.08L412.11 422.81L413.96 415.81L414.27 410.29L413.66 407.25L416.98 401.13L429.8 398.09L431.58 398.92L428.41 389.53L422.44 383.56L422.21 378.51L420.36 372.09L420.82 368.18L418.53 358.78L418.99 356.04L417.62 350.53L418.86 347.06L422.92 344.16L423.15 329.03L435.77 314.58L432.67 312.81L432.06 305.79L432.98 304.27L423.68 296.02L415.28 298.46L400.91 291.13L395.71 292.37L391.44 290.52L384.43 293.26L381.69 292.01L376.49 295.66L369.15 293.82L366.1 298.71L351.13 295.39L341.05 291.72L335.54 298.74L333.79 302.63L333.79 302.63L333.48 307.52L329.49 319.43Z" id="b12Fmdukih"></path><path d="M333.51 307.52L326.5 328.29L326.5 335.04L313.98 349.72L313.68 360.74L304.82 369.9L299.92 366.25L292.58 371.15L289.84 371.15L289.84 368.1L287.1 367.79L281.28 372.39L278.54 368.13L274.55 364.14L276.71 362.29L280.7 362.59L281.94 358.6L279.78 357.08L278.54 352.49L280.98 350.64L285.24 351.54L286.49 347.28L289.81 349.72L294.71 350.64L298.37 351.88L301.42 348.54L302.33 337.53L298.34 336.29L297.43 332.97L298.67 329.64L300.83 326.31L301.14 321.71L292.58 322.96L291.97 314.71L302.63 314.71L310.58 316.87L315.48 319.31L315.18 315.32L315.78 311.06L321.57 301.71L321.57 301.71L332.9 302.63L333.51 307.52Z" id="b1RAKdxFEE"></path><path d="M333.51 307.52L326.5 328.29L326.5 335.04L313.98 349.72L313.68 360.74L304.82 369.9L299.92 366.25L292.58 371.15L289.84 371.15L289.84 368.1L287.1 367.79L281.28 372.39L278.54 368.13L274.55 364.14L276.71 362.29L280.7 362.59L281.94 358.6L279.78 357.08L278.54 352.49L280.98 350.64L285.24 351.54L286.49 347.28L289.81 349.72L294.71 350.64L298.37 351.88L301.42 348.54L302.33 337.53L298.34 336.29L297.43 332.97L298.67 329.64L300.83 326.31L301.14 321.71L292.58 322.96L291.97 314.71L302.63 314.71L310.58 316.87L315.48 319.31L315.18 315.32L315.78 311.06L321.57 301.71L321.57 301.71L332.9 302.63L333.51 307.52Z" id="a1ZqhjUYeC"></path><path d="M376.54 431.27L375.62 434.92L360.95 434.31L361.56 462.72L365.82 466.04L369.81 468.79L371.05 471.23L383.57 470.62L385.73 473.06L399.16 475.22L410.18 465.47L414.44 464.22L416.3 457.79L425.46 454.75L424.55 451.73L448.69 442.87L447.45 438.6L448.97 432.79L451.41 430.94L451.41 421.47L454.73 416.87L448.62 405.63L440.14 404L429.68 397.88L416.86 400.93L413.53 407.04L414.14 411.31L414.14 417.74L411.98 422.64L413.22 425.96L417.49 430.56L422.69 428.4L423.94 435.74L422.42 436.65L416.91 436.65L408.96 429.31L401.32 423.5L398.27 426.54L389.72 423.22L385.45 419.89L380.85 421.75L379.94 419.89L375.93 419.95L375.93 419.95L375.93 419.95L375.93 426.37L376.54 431.27Z" id="azcl97yWw"></path><path d="M376.54 431.27L375.62 434.92L360.95 434.31L361.56 462.72L365.82 466.04L369.81 468.79L371.05 471.23L383.57 470.62L385.73 473.06L399.16 475.22L410.18 465.47L414.44 464.22L416.3 457.79L425.46 454.75L424.55 451.73L448.69 442.87L447.45 438.6L448.97 432.79L451.41 430.94L451.41 421.47L454.73 416.87L448.62 405.63L440.14 404L429.68 397.88L416.86 400.93L413.53 407.04L414.14 411.31L414.14 417.74L411.98 422.64L413.22 425.96L417.49 430.56L422.69 428.4L423.94 435.74L422.42 436.65L416.91 436.65L408.96 429.31L401.32 423.5L398.27 426.54L389.72 423.22L385.45 419.89L380.85 421.75L379.94 419.89L375.93 419.95L375.93 419.95L375.93 419.95L375.93 426.37L376.54 431.27Z" id="anORWmYra"></path><path d="M459.94 460.62L464.53 465.82L466.06 468.84L467.91 461.51L470.35 458.76L471.87 448.38L463.62 439.21L460.57 433.71L462.43 422.84L460.57 413.24L458.06 409.13L448.67 405.7L453.87 416.01L451.43 421.52L451.43 430.99L449 432.84L447.47 438.66L448.72 442.92L452.37 445.66L454.23 448.41L457.27 447.16L460.27 447.44L460.27 447.44L461.18 454.19L459.94 460.62Z" id="aVQnTyW93"></path><path d="M459.94 460.62L464.53 465.82L466.06 468.84L467.91 461.51L470.35 458.76L471.87 448.38L463.62 439.21L460.57 433.71L462.43 422.84L460.57 413.24L458.06 409.13L448.67 405.7L453.87 416.01L451.43 421.52L451.43 430.99L449 432.84L447.47 438.66L448.72 442.92L452.37 445.66L454.23 448.41L457.27 447.16L460.27 447.44L460.27 447.44L461.18 454.19L459.94 460.62Z" id="a5wDLwKybR"></path><path d="M436.76 459.65L442.27 462.7L446.53 464.54L448.39 471.56L448.39 480.42L445.65 483.47L448.39 487.73L448.69 492.94L445.04 499.35L442.29 505.17L435.54 514.64L439.53 520.76L438.92 525.66L443.51 539.09L442.27 544.91L442.88 551.91L447.78 551.29L447.17 546.4L445.92 546.1L447.78 541.82L456.33 539.09L464.89 533.57L466.74 523.82L467.66 510.4L464 507.97L463.7 501.21L460.04 496.31L461.89 491.41L468.32 488.67L472.58 483.47L477.48 483.16L479.01 475.82L488.48 471.23L497.34 468.49L501.6 464.22L506.81 458.1L511.07 451.99L510.46 446.78L509.22 444.04L508.3 428.48L507.69 422.35L508.76 417.53L497.08 419.84L492.49 422.15L489.31 419.84L486.8 423.02L474.44 423.25L473.72 421.62L468.22 422.79L462.48 422.79L460.62 433.65L463.67 439.16L471.92 448.33L470.4 459.65L467.96 462.39L466.11 468.82L463.37 465.16L460.04 460.57L461.28 454.14L460.37 447.39L457.32 447.09L454.28 448.33L452.42 445.59L448.77 442.85L425.56 452.01L425.56 454.75L427.26 455.35L427.26 455.35L429.42 459.35L436.76 459.65Z" id="a9t6cGpG"></path><path d="M436.76 459.65L442.27 462.7L446.53 464.54L448.39 471.56L448.39 480.42L445.65 483.47L448.39 487.73L448.69 492.94L445.04 499.35L442.29 505.17L435.54 514.64L439.53 520.76L438.92 525.66L443.51 539.09L442.27 544.91L442.88 551.91L447.78 551.29L447.17 546.4L445.92 546.1L447.78 541.82L456.33 539.09L464.89 533.57L466.74 523.82L467.66 510.4L464 507.97L463.7 501.21L460.04 496.31L461.89 491.41L468.32 488.67L472.58 483.47L477.48 483.16L479.01 475.82L488.48 471.23L497.34 468.49L501.6 464.22L506.81 458.1L511.07 451.99L510.46 446.78L509.22 444.04L508.3 428.48L507.69 422.35L508.76 417.53L497.08 419.84L492.49 422.15L489.31 419.84L486.8 423.02L474.44 423.25L473.72 421.62L468.22 422.79L462.48 422.79L460.62 433.65L463.67 439.16L471.92 448.33L470.4 459.65L467.96 462.39L466.11 468.82L463.37 465.16L460.04 460.57L461.28 454.14L460.37 447.39L457.32 447.09L454.28 448.33L452.42 445.59L448.77 442.85L425.56 452.01L425.56 454.75L427.26 455.35L427.26 455.35L429.42 459.35L436.76 459.65Z" id="hvsqGq9SW"></path><path d="M571.77 438.54L564.44 439.47L565.05 445.89L562 450.16L558.67 454.14L553.16 456.58L555.6 461.18L550.09 459.32L541.54 460.85L538.79 462.37L539.4 465.69L535.14 470.9L535.75 479.15L537.6 485.57L540.34 491.69L537.6 497.51L534.86 501.77L532.42 505.43L529.38 509.41L530.9 520.42L534.89 524.42L532.45 529.31L537.04 535.74L541.31 538.76L545.57 543.03L550.17 539.37L556.29 538.76L562.1 532.94L566.37 517.04L572.79 494.76L579.21 477.07L579.82 469.73L581.35 464.83L581.04 458.41L582.28 456.25L584.14 459.29L586.3 455.31L585.69 448.29L584.77 439.75L580.51 431.79L577.28 427.89L577.28 427.89L572.69 434.9L571.77 438.54Z" id="i3s5xtYBxQ"></path><path d="M571.77 438.54L564.44 439.47L565.05 445.89L562 450.16L558.67 454.14L553.16 456.58L555.6 461.18L550.09 459.32L541.54 460.85L538.79 462.37L539.4 465.69L535.14 470.9L535.75 479.15L537.6 485.57L540.34 491.69L537.6 497.51L534.86 501.77L532.42 505.43L529.38 509.41L530.9 520.42L534.89 524.42L532.45 529.31L537.04 535.74L541.31 538.76L545.57 543.03L550.17 539.37L556.29 538.76L562.1 532.94L566.37 517.04L572.79 494.76L579.21 477.07L579.82 469.73L581.35 464.83L581.04 458.41L582.28 456.25L584.14 459.29L586.3 455.31L585.69 448.29L584.77 439.75L580.51 431.79L577.28 427.89L577.28 427.89L572.69 434.9L571.77 438.54Z" id="b1HKcgYvc0"></path><path d="M390.63 479.51L393.96 487.45L396.11 491.1L401.32 492.96L404.97 496.01L407.72 498.17L408.02 502.76L414.77 507.03L418.76 510.07L426.1 510.38L435.57 514.64L443.21 503.98L448.72 492.96L448.41 487.76L445.67 483.49L448.41 479.23L448.41 471.58L446.56 464.58L436.81 459.68L429.47 459.37L427.32 455.39L425.46 454.78L416.3 457.82L414.44 464.25L410.18 465.49L399.16 475.24L387.56 474.33L387.56 474.33L388.47 477.98L390.63 479.51Z" id="cXmRaCT7a"></path><path d="M390.63 479.51L393.96 487.45L396.11 491.1L401.32 492.96L404.97 496.01L407.72 498.17L408.02 502.76L414.77 507.03L418.76 510.07L426.1 510.38L435.57 514.64L443.21 503.98L448.72 492.96L448.41 487.76L445.67 483.49L448.41 479.23L448.41 471.58L446.56 464.58L436.81 459.68L429.47 459.37L427.32 455.39L425.46 454.78L416.3 457.82L414.44 464.25L410.18 465.49L399.16 475.24L387.56 474.33L387.56 474.33L388.47 477.98L390.63 479.51Z" id="d13qquuQc9"></path><path d="M292.25 467.88L298.37 470.62L330.79 470.62L339.35 473.95L360.75 475.19L371.13 471.2L383.65 470.59L387.63 474.25L383.65 474.25L380.32 475.77L374.2 479.76L370.88 476.71L355.59 479.15L354.07 479.76L354.07 509.41L346.73 510.02L347.04 566.54L342.14 567.78L340.89 569.93L333.25 569.93L325.61 569.02L322.28 564.42L320.43 564.42L317.38 568.68L308.83 559.82L305.17 550.09L303.01 541.53L302.71 534.78L300.55 527.43L300.25 519.18L300.55 516.17L297.51 510.04L294.18 506.39L288.67 493.57L286.51 486.82L280.09 480.39L279.73 469.73L279.73 469.73L286.74 468.49L292.25 467.88Z" id="faA0lRIRd"></path><path d="M292.25 467.88L298.37 470.62L330.79 470.62L339.35 473.95L360.75 475.19L371.13 471.2L383.65 470.59L387.63 474.25L383.65 474.25L380.32 475.77L374.2 479.76L370.88 476.71L355.59 479.15L354.07 479.76L354.07 509.41L346.73 510.02L347.04 566.54L342.14 567.78L340.89 569.93L333.25 569.93L325.61 569.02L322.28 564.42L320.43 564.42L317.38 568.68L308.83 559.82L305.17 550.09L303.01 541.53L302.71 534.78L300.55 527.43L300.25 519.18L300.55 516.17L297.51 510.04L294.18 506.39L288.67 493.57L286.51 486.82L280.09 480.39L279.73 469.73L279.73 469.73L286.74 468.49L292.25 467.88Z" id="dPsdV2H3"></path><path d="M290.68 435.23L285.17 441.98L281.84 454.79L278.51 464.54L279.76 469.76L291.36 467.9L298.37 470.65L330.79 470.65L339.35 473.97L360.75 475.22L371.13 471.23L369.89 468.79L362.25 463.59L361 434.26L375.68 434.87L376.59 431.22L375.98 419.89L363.74 418.37L363.44 415.32L358.54 407.38L360.98 401.87L359.45 394.53L360.06 390.54L350.59 390.54L349.98 387.22L340.82 388.74L341.43 391.76L341.12 395.09L328.61 395.39L320.66 390.49L317.92 379.17L298.04 379.48L292.83 377.04L290.68 379.78L283.67 382.52L288.57 389.85L289.18 394.13L292.5 400.88L289.76 406.08L291.62 414.64L296.19 417.79L296.19 417.79L294.33 428.81L290.68 435.23Z" id="aDvcMimGu"></path><path d="M290.68 435.23L285.17 441.98L281.84 454.79L278.51 464.54L279.76 469.76L291.36 467.9L298.37 470.65L330.79 470.65L339.35 473.97L360.75 475.22L371.13 471.23L369.89 468.79L362.25 463.59L361 434.26L375.68 434.87L376.59 431.22L375.98 419.89L363.74 418.37L363.44 415.32L358.54 407.38L360.98 401.87L359.45 394.53L360.06 390.54L350.59 390.54L349.98 387.22L340.82 388.74L341.43 391.76L341.12 395.09L328.61 395.39L320.66 390.49L317.92 379.17L298.04 379.48L292.83 377.04L290.68 379.78L283.67 382.52L288.57 389.85L289.18 394.13L292.5 400.88L289.76 406.08L291.62 414.64L296.19 417.79L296.19 417.79L294.33 428.81L290.68 435.23Z" id="j42rBxJwNa"></path><path d="M287.96 373.51L289.81 371.07L289.81 368.03L287.07 367.72L281.26 372.29L281.26 372.29L283.69 378.41L287.96 373.51Z" id="g2tdw8v47P"></path><path d="M287.96 373.51L289.81 371.07L289.81 368.03L287.07 367.72L281.26 372.29L281.26 372.29L283.69 378.41L287.96 373.51Z" id="b1qbRO4eK9"></path><path d="M351.96 549.31L352.42 552.5L363.87 551.13L365.24 546.06L371.21 538.74L373.49 540.11L384.03 541.96L390.45 541.96L394.11 534.17L396.85 533.25L400.96 524.09L409.21 516.29L414.72 512.17L418.71 510.02L408.05 502.69L407.74 498.09L401.32 492.89L396.11 491.03L390.6 479.43L388.45 477.91L387.53 474.25L383.55 474.25L374.08 479.76L370.75 476.74L353.97 479.76L353.97 509.41L346.63 510.02L346.91 536.5L346.91 536.5L351.96 542.47L351.96 549.31Z" id="aco4JbyAv"></path><path d="M351.96 549.31L352.42 552.5L363.87 551.13L365.24 546.06L371.21 538.74L373.49 540.11L384.03 541.96L390.45 541.96L394.11 534.17L396.85 533.25L400.96 524.09L409.21 516.29L414.72 512.17L418.71 510.02L408.05 502.69L407.74 498.09L401.32 492.89L396.11 491.03L390.6 479.43L388.45 477.91L387.53 474.25L383.55 474.25L374.08 479.76L370.75 476.74L353.97 479.76L353.97 509.41L346.63 510.02L346.91 536.5L346.91 536.5L351.96 542.47L351.96 549.31Z" id="b4DWrH6Bda"></path><path d="M374.43 617.59L382.68 620.32L387.73 617.16L391.39 614.85L399.64 613.93L405.61 610.28L410.66 605.68L419.37 597.89L425.79 590.54L436.33 573.62L444.58 565.37L447.75 551.29L442.85 551.91L440.42 556.64L431.71 555.26L431.25 548.84L433.99 542.87L441.79 542.87L443.49 539.06L440.01 526.37L438.16 523.63L439.53 520.74L435.54 514.62L426.07 510.35L418.73 510.04L401.04 524.11L396.93 533.28L394.18 534.18L390.53 541.99L380.93 541.53L373.59 540.16L371.31 538.79L365.34 546.12L363.97 551.17L352.52 552.54L352.06 542.47L347.01 536.5L347.01 566.59L342.11 567.82L340.87 569.99L333.23 569.99L325.58 569.07L322.26 564.48L320.41 564.48L317.36 568.75L320.41 576.39L322.69 585.54L327.74 592.41L330.48 598.82L330.03 607.07L326.37 608L330.03 613.96L334.62 620.38L341.05 624.98L343.33 626.35L350.67 623.17L358.01 622.72L361.59 618.96L361.59 618.96L361.59 618.96L369.84 618.96L374.43 617.59Z" id="aadbHpdRzM"></path><path d="M374.43 617.59L382.68 620.32L387.73 617.16L391.39 614.85L399.64 613.93L405.61 610.28L410.66 605.68L419.37 597.89L425.79 590.54L436.33 573.62L444.58 565.37L447.75 551.29L442.85 551.91L440.42 556.64L431.71 555.26L431.25 548.84L433.99 542.87L441.79 542.87L443.49 539.06L440.01 526.37L438.16 523.63L439.53 520.74L435.54 514.62L426.07 510.35L418.73 510.04L401.04 524.11L396.93 533.28L394.18 534.18L390.53 541.99L380.93 541.53L373.59 540.16L371.31 538.79L365.34 546.12L363.97 551.17L352.52 552.54L352.06 542.47L347.01 536.5L347.01 566.59L342.11 567.82L340.87 569.99L333.23 569.99L325.58 569.07L322.26 564.48L320.41 564.48L317.36 568.75L320.41 576.39L322.69 585.54L327.74 592.41L330.48 598.82L330.03 607.07L326.37 608L330.03 613.96L334.62 620.38L341.05 624.98L343.33 626.35L350.67 623.17L358.01 622.72L361.59 618.96L361.59 618.96L361.59 618.96L369.84 618.96L374.43 617.59Z" id="bGfHSIbOd"></path><path d="M407.03 571.07L401.52 576.59L402.89 580.02L405.63 584.38L408.81 586.68L410.43 583.27L414.34 581.41L417.52 579.79L417.97 575.67L418.89 572.71L416.14 570.18L413.38 567.86L413.38 567.86L410.2 570.17L407.03 571.07Z" id="a29hH4epFN"></path><path d="M407.03 571.07L401.52 576.59L402.89 580.02L405.63 584.38L408.81 586.68L410.43 583.27L414.34 581.41L417.52 579.79L417.97 575.67L418.89 572.71L416.14 570.18L413.38 567.86L413.38 567.86L410.2 570.17L407.03 571.07Z" id="dvHgo8lpY"></path><path d="M434.73 542.67L431.76 547.72L431.76 555.29L440.69 556L442.93 551.93L442.27 546.55L442.27 546.55L442.98 541.96L434.73 542.67Z" id="a1kgKlO733"></path><path d="M434.73 542.67L431.76 547.72L431.76 555.29L440.69 556L442.93 551.93L442.27 546.55L442.27 546.55L442.98 541.96L434.73 542.67Z" id="b25NSTu0ds"></path><path d="M383.11 253.98L386.54 248.98L392.99 248.35L396.19 254.11L396.75 255.63L400.73 256.06L402.97 254.96L409.31 255.72L410.89 257.15L416.45 257.26L418.35 254.96L422.34 255.3L421.22 251.52L426.35 249.55L434.55 254.67L437.75 253.35L443.21 245.99L446.74 243.4L445.39 241.43L445.39 236.86L444.05 234.58L448.82 234.68L448.72 232.93L453.26 233.27L452.02 236.95L452.8 245.3L459.03 251.15L458.47 250.93L459.36 245.6L465.42 244.23L466.36 238.08L471.87 229.02L475.71 227.71L477.66 210.36L481.44 201.05L484.36 192.58L488.15 190.27L492.97 186.8L484.69 180.51L483.7 164.99L482.43 158.92L480.58 153.49L474.46 148.95L472.23 146.26L470.93 145.11L468.8 146.58L466.08 147.35L463.32 152.07L460.12 152.67L457.88 156.46L453.9 156.64L451.41 155.26L435.54 154.93L435.16 153.36L434.45 153.14L434.55 155.21L386.06 154.98L386.16 171.77L377.88 170.68L376.72 174.05L376.77 207.4L369.89 206.02L368.36 210.8L363.21 217.65L364.15 222.74L359.93 227.96L364.89 229.52L365.88 238.6L370.14 242.61L370.24 246.33L375.29 250.4L375.29 259.46L378.37 260.33L379.71 264.9L379.71 264.9L382.78 257.21L383.11 253.98Z" id="k2sKuGX8bj"></path><path d="M383.11 253.98L386.54 248.98L392.99 248.35L396.19 254.11L396.75 255.63L400.73 256.06L402.97 254.96L409.31 255.72L410.89 257.15L416.45 257.26L418.35 254.96L422.34 255.3L421.22 251.52L426.35 249.55L434.55 254.67L437.75 253.35L443.21 245.99L446.74 243.4L445.39 241.43L445.39 236.86L444.05 234.58L448.82 234.68L448.72 232.93L453.26 233.27L452.02 236.95L452.8 245.3L459.03 251.15L458.47 250.93L459.36 245.6L465.42 244.23L466.36 238.08L471.87 229.02L475.71 227.71L477.66 210.36L481.44 201.05L484.36 192.58L488.15 190.27L492.97 186.8L484.69 180.51L483.7 164.99L482.43 158.92L480.58 153.49L474.46 148.95L472.23 146.26L470.93 145.11L468.8 146.58L466.08 147.35L463.32 152.07L460.12 152.67L457.88 156.46L453.9 156.64L451.41 155.26L435.54 154.93L435.16 153.36L434.45 153.14L434.55 155.21L386.06 154.98L386.16 171.77L377.88 170.68L376.72 174.05L376.77 207.4L369.89 206.02L368.36 210.8L363.21 217.65L364.15 222.74L359.93 227.96L364.89 229.52L365.88 238.6L370.14 242.61L370.24 246.33L375.29 250.4L375.29 259.46L378.37 260.33L379.71 264.9L379.71 264.9L382.78 257.21L383.11 253.98Z" id="elg09zBzD"></path><path d="M383.09 253.88L386.52 248.88L392.96 248.24L396.16 254.01L396.72 255.52L400.71 255.96L402.94 254.86L409.29 255.63L410.86 257.04L416.42 257.15L418.33 254.86L422.31 255.2L421.2 251.42L426.33 249.43L434.53 254.54L437.72 253.21L443.18 245.86L446.71 243.27L445.37 241.3L445.37 236.74L444.02 234.46L448.79 234.55L448.69 232.8L453.24 233.14L451.99 236.82L452.78 245.17L459 251.04L458.57 251.85L455.98 265.31L451.21 265.25L453.59 271.79L455.88 272.74L463.42 281.38L468.09 290.31L451.71 304.29L434.2 305.66L423.94 296.89L414.29 298.74L408.5 295.57L407.61 290.64L400.51 285.15L398.5 278.4L389.82 275.64L386.77 272.26L384.71 268.29L379.31 267.31L379.69 264.79L379.69 264.79L382.76 257.1L383.09 253.88Z" id="iGnvYzKqM"></path><path d="M383.09 253.88L386.52 248.88L392.96 248.24L396.16 254.01L396.72 255.52L400.71 255.96L402.94 254.86L409.29 255.63L410.86 257.04L416.42 257.15L418.33 254.86L422.31 255.2L421.2 251.42L426.33 249.43L434.53 254.54L437.72 253.21L443.18 245.86L446.71 243.27L445.37 241.3L445.37 236.74L444.02 234.46L448.79 234.55L448.69 232.8L453.24 233.14L451.99 236.82L452.78 245.17L459 251.04L458.57 251.85L455.98 265.31L451.21 265.25L453.59 271.79L455.88 272.74L463.42 281.38L468.09 290.31L451.71 304.29L434.2 305.66L423.94 296.89L414.29 298.74L408.5 295.57L407.61 290.64L400.51 285.15L398.5 278.4L389.82 275.64L386.77 272.26L384.71 268.29L379.31 267.31L379.69 264.79L379.69 264.79L382.76 257.1L383.09 253.88Z" id="daaibZbnl"></path></defs><g><g><g><g><use xlink:href="#e3ev3u2TG" opacity="1" fill="#000000" fill-opacity="1"></use><g><use xlink:href="#e3ev3u2TG" opacity="1" fill-opacity="0" stroke="#000000" stroke-width="1" stroke-opacity="0"></use></g></g><g><use xlink:href="#d1iZuns2O3" opacity="1" fill="#000000" fill-opacity="0"></use><g><use xlink:href="#d1iZuns2O3" opacity="1" fill-opacity="0" stroke="#ffffff" stroke-width="0.5" stroke-opacity="1"></use></g></g><g><use xlink:href="#hdv8RNj23" opacity="1" fill="#000000" fill-opacity="1"></use><g><use xlink:href="#hdv8RNj23" opacity="1" fill-opacity="0" stroke="#000000" stroke-width="1" stroke-opacity="0"></use></g></g><g><use xlink:href="#c1oa1U4vaK" opacity="1" fill="#000000" fill-opacity="0"></use><g><use xlink:href="#c1oa1U4vaK" opacity="1" fill-opacity="0" stroke="#ffffff" stroke-width="0.5" stroke-opacity="1"></use></g></g><g><use xlink:href="#a1xviS9nB" opacity="1" fill="#000000" fill-opacity="1"></use><g><use xlink:href="#a1xviS9nB" opacity="1" fill-opacity="0" stroke="#000000" stroke-width="1" stroke-opacity="0"></use></g></g><g><use xlink:href="#ajp9xZasb" opacity="1" fill="#000000" fill-opacity="0"></use><g><use xlink:href="#ajp9xZasb" opacity="1" fill-opacity="0" stroke="#ffffff" stroke-width="0.5" stroke-opacity="1"></use></g></g><g><use xlink:href="#c2wTYYDBu" opacity="1" fill="#000000" fill-opacity="1"></use><g><use xlink:href="#c2wTYYDBu" opacity="1" fill-opacity="0" stroke="#000000" stroke-width="1" stroke-opacity="0"></use></g></g><g><use xlink:href="#e3VvayxOt" opacity="1" fill="#000000" fill-opacity="0"></use><g><use xlink:href="#e3VvayxOt" opacity="1" fill-opacity="0" stroke="#ffffff" stroke-width="0.5" stroke-opacity="1"></use></g></g><g><use xlink:href="#c4kMBWPjqi" opacity="1" fill="#000000" fill-opacity="1"></use><g><use xlink:href="#c4kMBWPjqi" opacity="1" fill-opacity="0" stroke="#000000" stroke-width="1" stroke-opacity="0"></use></g></g><g><use xlink:href="#dKLYMbJLg" opacity="1" fill="#000000" fill-opacity="0"></use><g><use xlink:href="#dKLYMbJLg" opacity="1" fill-opacity="0" stroke="#ffffff" stroke-width="0.5" stroke-opacity="1"></use></g></g><g><use xlink:href="#c1zCeZWYpI" opacity="1" fill="#000000" fill-opacity="1"></use><g><use xlink:href="#c1zCeZWYpI" opacity="1" fill-opacity="0" stroke="#000000" stroke-width="1" stroke-opacity="0"></use></g></g><g><use xlink:href="#louK70VBN" opacity="1" fill="#000000" fill-opacity="0"></use><g><use xlink:href="#louK70VBN" opacity="1" fill-opacity="0" stroke="#ffffff" stroke-width="0.5" stroke-opacity="1"></use></g></g><g><use xlink:href="#d1lZCym80A" opacity="1" fill="#000000" fill-opacity="1"></use><g><use xlink:href="#d1lZCym80A" opacity="1" fill-opacity="0" stroke="#000000" stroke-width="1" stroke-opacity="0"></use></g></g><g><use xlink:href="#c4yzh0gwTj" opacity="1" fill="#000000" fill-opacity="0"></use><g><use xlink:href="#c4yzh0gwTj" opacity="1" fill-opacity="0" stroke="#ffffff" stroke-width="0.5" stroke-opacity="1"></use></g></g><g><use xlink:href="#bhGCMN5Bg" opacity="1" fill="#000000" fill-opacity="1"></use><g><use xlink:href="#bhGCMN5Bg" opacity="1" fill-opacity="0" stroke="#000000" stroke-width="1" stroke-opacity="0"></use></g></g><g><use xlink:href="#i1HP4TFN3" opacity="1" fill="#000000" fill-opacity="0"></use><g><use xlink:href="#i1HP4TFN3" opacity="1" fill-opacity="0" stroke="#ffffff" stroke-width="0.5" stroke-opacity="1"></use></g></g><g><use xlink:href="#a534q0SYfj" opacity="1" fill="#000000" fill-opacity="1"></use><g><use xlink:href="#a534q0SYfj" opacity="1" fill-opacity="0" stroke="#000000" stroke-width="1" stroke-opacity="0"></use></g></g><g><use xlink:href="#b5tnVzE1i" opacity="1" fill="#000000" fill-opacity="0"></use><g><use xlink:href="#b5tnVzE1i" opacity="1" fill-opacity="0" stroke="#ffffff" stroke-width="0.5" stroke-opacity="1"></use></g></g><g><use xlink:href="#g42yqPY4r5" opacity="1" fill="#000000" fill-opacity="1"></use><g><use xlink:href="#g42yqPY4r5" opacity="1" fill-opacity="0" stroke="#000000" stroke-width="1" stroke-opacity="0"></use></g></g><g><use xlink:href="#aj4tPknYH" opacity="1" fill="#000000" fill-opacity="0"></use><g><use xlink:href="#aj4tPknYH" opacity="1" fill-opacity="0" stroke="#ffffff" stroke-width="0.5" stroke-opacity="1"></use></g></g><g><use xlink:href="#flfP2zJrR" opacity="1" fill="#000000" fill-opacity="1"></use><g><use xlink:href="#flfP2zJrR" opacity="1" fill-opacity="0" stroke="#000000" stroke-width="1" stroke-opacity="0"></use></g></g><g><use xlink:href="#anmrJdJB" opacity="1" fill="#000000" fill-opacity="0"></use><g><use xlink:href="#anmrJdJB" opacity="1" fill-opacity="0" stroke="#ffffff" stroke-width="0.5" stroke-opacity="1"></use></g></g><g><use xlink:href="#ah9ABrrrt" opacity="1" fill="#000000" fill-opacity="1"></use><g><use xlink:href="#ah9ABrrrt" opacity="1" fill-opacity="0" stroke="#000000" stroke-width="1" stroke-opacity="0"></use></g></g><g><use xlink:href="#b33oW2QMUE" opacity="1" fill="#000000" fill-opacity="0"></use><g><use xlink:href="#b33oW2QMUE" opacity="1" fill-opacity="0" stroke="#ffffff" stroke-width="0.5" stroke-opacity="1"></use></g></g><g><use xlink:href="#dgjopbwDu" opacity="1" fill="#000000" fill-opacity="1"></use><g><use xlink:href="#dgjopbwDu" opacity="1" fill-opacity="0" stroke="#000000" stroke-width="1" stroke-opacity="0"></use></g></g><g><use xlink:href="#ca96p7cp9" opacity="1" fill="#000000" fill-opacity="0"></use><g><use xlink:href="#ca96p7cp9" opacity="1" fill-opacity="0" stroke="#ffffff" stroke-width="0.5" stroke-opacity="1"></use></g></g><g><use xlink:href="#c1wMZVeKXt" opacity="1" fill="#000000" fill-opacity="1"></use><g><use xlink:href="#c1wMZVeKXt" opacity="1" fill-opacity="0" stroke="#000000" stroke-width="1" stroke-opacity="0"></use></g></g><g><use xlink:href="#n1NWcmTmsm" opacity="1" fill="#000000" fill-opacity="0"></use><g><use xlink:href="#n1NWcmTmsm" opacity="1" fill-opacity="0" stroke="#ffffff" stroke-width="0.5" stroke-opacity="1"></use></g></g><g><use xlink:href="#a1VC7m8B4N" opacity="1" fill="#000000" fill-opacity="1"></use><g><use xlink:href="#a1VC7m8B4N" opacity="1" fill-opacity="0" stroke="#000000" stroke-width="1" stroke-opacity="0"></use></g></g><g><use xlink:href="#a26IrGC1uQ" opacity="1" fill="#000000" fill-opacity="0"></use><g><use xlink:href="#a26IrGC1uQ" opacity="1" fill-opacity="0" stroke="#ffffff" stroke-width="0.5" stroke-opacity="1"></use></g></g><g><use xlink:href="#e3QQyLCGZh" opacity="1" fill="#000000" fill-opacity="1"></use><g><use xlink:href="#e3QQyLCGZh" opacity="1" fill-opacity="0" stroke="#000000" stroke-width="1" stroke-opacity="0"></use></g></g><g><use xlink:href="#b7qZ7DpRO" opacity="1" fill="#000000" fill-opacity="0"></use><g><use xlink:href="#b7qZ7DpRO" opacity="1" fill-opacity="0" stroke="#ffffff" stroke-width="0.5" stroke-opacity="1"></use></g></g><g><use xlink:href="#b65FI9L6H" opacity="1" fill="#000000" fill-opacity="1"></use><g><use xlink:href="#b65FI9L6H" opacity="1" fill-opacity="0" stroke="#000000" stroke-width="1" stroke-opacity="0"></use></g></g><g><use xlink:href="#h3uIiOiAKc" opacity="1" fill="#000000" fill-opacity="0"></use><g><use xlink:href="#h3uIiOiAKc" opacity="1" fill-opacity="0" stroke="#ffffff" stroke-width="0.5" stroke-opacity="1"></use></g></g><g><use xlink:href="#c1rFKpQ1r9" opacity="1" fill="#000000" fill-opacity="1"></use><g><use xlink:href="#c1rFKpQ1r9" opacity="1" fill-opacity="0" stroke="#000000" stroke-width="1" stroke-opacity="0"></use></g></g><g><use xlink:href="#cuhhtzxN" opacity="1" fill="#000000" fill-opacity="0"></use><g><use xlink:href="#cuhhtzxN" opacity="1" fill-opacity="0" stroke="#ffffff" stroke-width="0.5" stroke-opacity="1"></use></g></g><g><use xlink:href="#cHXDfV95m" opacity="1" fill="#000000" fill-opacity="1"></use><g><use xlink:href="#cHXDfV95m" opacity="1" fill-opacity="0" stroke="#000000" stroke-width="1" stroke-opacity="0"></use></g></g><g><use xlink:href="#e1xh6VR0p3" opacity="1" fill="#000000" fill-opacity="0"></use><g><use xlink:href="#e1xh6VR0p3" opacity="1" fill-opacity="0" stroke="#ffffff" stroke-width="0.5" stroke-opacity="1"></use></g></g><g><use xlink:href="#a6KB1r4IiF" opacity="1" fill="#000000" fill-opacity="1"></use><g><use xlink:href="#a6KB1r4IiF" opacity="1" fill-opacity="0" stroke="#000000" stroke-width="1" stroke-opacity="0"></use></g></g><g><use xlink:href="#a3sa0EcWVA" opacity="1" fill="#000000" fill-opacity="0"></use><g><use xlink:href="#a3sa0EcWVA" opacity="1" fill-opacity="0" stroke="#ffffff" stroke-width="0.5" stroke-opacity="1"></use></g></g><g><use xlink:href="#buDVqs2N7" opacity="1" fill="#000000" fill-opacity="1"></use><g><use xlink:href="#buDVqs2N7" opacity="1" fill-opacity="0" stroke="#000000" stroke-width="1" stroke-opacity="0"></use></g></g><g><use xlink:href="#aMKAxTd9W" opacity="1" fill="#000000" fill-opacity="0"></use><g><use xlink:href="#aMKAxTd9W" opacity="1" fill-opacity="0" stroke="#ffffff" stroke-width="0.5" stroke-opacity="1"></use></g></g><g><use xlink:href="#a11CZCWXgK" opacity="1" fill="#000000" fill-opacity="1"></use><g><use xlink:href="#a11CZCWXgK" opacity="1" fill-opacity="0" stroke="#000000" stroke-width="1" stroke-opacity="0"></use></g></g><g><use xlink:href="#b2TLaIzeAk" opacity="1" fill="#000000" fill-opacity="0"></use><g><use xlink:href="#b2TLaIzeAk" opacity="1" fill-opacity="0" stroke="#ffffff" stroke-width="0.5" stroke-opacity="1"></use></g></g><g><use xlink:href="#dBZGd42rr" opacity="1" fill="#000000" fill-opacity="1"></use><g><use xlink:href="#dBZGd42rr" opacity="1" fill-opacity="0" stroke="#000000" stroke-width="1" stroke-opacity="0"></use></g></g><g><use xlink:href="#aZeC40gGq" opacity="1" fill="#000000" fill-opacity="0"></use><g><use xlink:href="#aZeC40gGq" opacity="1" fill-opacity="0" stroke="#ffffff" stroke-width="0.5" stroke-opacity="1"></use></g></g><g><use xlink:href="#asUvpRuAx" opacity="1" fill="#000000" fill-opacity="1"></use><g><use xlink:href="#asUvpRuAx" opacity="1" fill-opacity="0" stroke="#000000" stroke-width="1" stroke-opacity="0"></use></g></g><g><use xlink:href="#bzCogxkzX" opacity="1" fill="#000000" fill-opacity="0"></use><g><use xlink:href="#bzCogxkzX" opacity="1" fill-opacity="0" stroke="#ffffff" stroke-width="0.5" stroke-opacity="1"></use></g></g><g><use xlink:href="#b2eBsdCVZg" opacity="1" fill="#000000" fill-opacity="1"></use><g><use xlink:href="#b2eBsdCVZg" opacity="1" fill-opacity="0" stroke="#000000" stroke-width="1" stroke-opacity="0"></use></g></g><g><use xlink:href="#agepNLGbX" opacity="1" fill="#000000" fill-opacity="0"></use><g><use xlink:href="#agepNLGbX" opacity="1" fill-opacity="0" stroke="#ffffff" stroke-width="0.5" stroke-opacity="1"></use></g></g><g><use xlink:href="#b3gDL8WCdy" opacity="1" fill="#000000" fill-opacity="1"></use><g><use xlink:href="#b3gDL8WCdy" opacity="1" fill-opacity="0" stroke="#000000" stroke-width="1" stroke-opacity="0"></use></g></g><g><use xlink:href="#b2C1V0K69A" opacity="1" fill="#000000" fill-opacity="0"></use><g><use xlink:href="#b2C1V0K69A" opacity="1" fill-opacity="0" stroke="#ffffff" stroke-width="0.5" stroke-opacity="1"></use></g></g><g><use xlink:href="#aDEC5E6eB" opacity="1" fill="#000000" fill-opacity="1"></use><g><use xlink:href="#aDEC5E6eB" opacity="1" fill-opacity="0" stroke="#000000" stroke-width="1" stroke-opacity="0"></use></g></g><g><use xlink:href="#b5ZaDCwebh" opacity="1" fill="#000000" fill-opacity="0"></use><g><use xlink:href="#b5ZaDCwebh" opacity="1" fill-opacity="0" stroke="#ffffff" stroke-width="0.5" stroke-opacity="1"></use></g></g><g><use xlink:href="#dFa2hR1QE" opacity="1" fill="#000000" fill-opacity="1"></use><g><use xlink:href="#dFa2hR1QE" opacity="1" fill-opacity="0" stroke="#000000" stroke-width="1" stroke-opacity="0"></use></g></g><g><use xlink:href="#aGCrLwiQB" opacity="1" fill="#000000" fill-opacity="0"></use><g><use xlink:href="#aGCrLwiQB" opacity="1" fill-opacity="0" stroke="#ffffff" stroke-width="0.5" stroke-opacity="1"></use></g></g><g><use xlink:href="#fb4551Kus4" opacity="1" fill="#000000" fill-opacity="1"></use><g><use xlink:href="#fb4551Kus4" opacity="1" fill-opacity="0" stroke="#000000" stroke-width="1" stroke-opacity="0"></use></g></g><g><use xlink:href="#f6qFgx2d6" opacity="1" fill="#000000" fill-opacity="0"></use><g><use xlink:href="#f6qFgx2d6" opacity="1" fill-opacity="0" stroke="#ffffff" stroke-width="0.5" stroke-opacity="1"></use></g></g><g><use xlink:href="#aeOcjmXq2" opacity="1" fill="#000000" fill-opacity="1"></use><g><use xlink:href="#aeOcjmXq2" opacity="1" fill-opacity="0" stroke="#000000" stroke-width="1" stroke-opacity="0"></use></g></g><g><use xlink:href="#f1K5i220OA" opacity="1" fill="#000000" fill-opacity="0"></use><g><use xlink:href="#f1K5i220OA" opacity="1" fill-opacity="0" stroke="#ffffff" stroke-width="0.5" stroke-opacity="1"></use></g></g><g><use xlink:href="#ck4OxuWXk" opacity="1" fill="#000000" fill-opacity="1"></use><g><use xlink:href="#ck4OxuWXk" opacity="1" fill-opacity="0" stroke="#000000" stroke-width="1" stroke-opacity="0"></use></g></g><g><use xlink:href="#a14QEbqn4j" opacity="1" fill="#000000" fill-opacity="0"></use><g><use xlink:href="#a14QEbqn4j" opacity="1" fill-opacity="0" stroke="#ffffff" stroke-width="0.5" stroke-opacity="1"></use></g></g><g><use xlink:href="#a3TlBklX5S" opacity="1" fill="#000000" fill-opacity="1"></use><g><use xlink:href="#a3TlBklX5S" opacity="1" fill-opacity="0" stroke="#000000" stroke-width="1" stroke-opacity="0"></use></g></g><g><use xlink:href="#dFLgtcn" opacity="1" fill="#000000" fill-opacity="0"></use><g><use xlink:href="#dFLgtcn" opacity="1" fill-opacity="0" stroke="#ffffff" stroke-width="0.5" stroke-opacity="1"></use></g></g><g><use xlink:href="#ewHZcH5LS" opacity="1" fill="#000000" fill-opacity="1"></use><g><use xlink:href="#ewHZcH5LS" opacity="1" fill-opacity="0" stroke="#000000" stroke-width="1" stroke-opacity="0"></use></g></g><g><use xlink:href="#d2wQxluAOQ" opacity="1" fill="#000000" fill-opacity="0"></use><g><use xlink:href="#d2wQxluAOQ" opacity="1" fill-opacity="0" stroke="#ffffff" stroke-width="0.5" stroke-opacity="1"></use></g></g><g><use xlink:href="#c1f9337K9" opacity="1" fill="#000000" fill-opacity="1"></use><g><use xlink:href="#c1f9337K9" opacity="1" fill-opacity="0" stroke="#000000" stroke-width="1" stroke-opacity="0"></use></g></g><g><use xlink:href="#e1guF7q7tk" opacity="1" fill="#000000" fill-opacity="0"></use><g><use xlink:href="#e1guF7q7tk" opacity="1" fill-opacity="0" stroke="#ffffff" stroke-width="0.5" stroke-opacity="1"></use></g></g><g><use xlink:href="#bshK7xbii" opacity="1" fill="#000000" fill-opacity="1"></use><g><use xlink:href="#bshK7xbii" opacity="1" fill-opacity="0" stroke="#000000" stroke-width="1" stroke-opacity="0"></use></g></g><g><use xlink:href="#ividOLNDF" opacity="1" fill="#000000" fill-opacity="0"></use><g><use xlink:href="#ividOLNDF" opacity="1" fill-opacity="0" stroke="#ffffff" stroke-width="0.5" stroke-opacity="1"></use></g></g><g><use xlink:href="#jX9fNJKV2" opacity="1" fill="#000000" fill-opacity="1"></use><g><use xlink:href="#jX9fNJKV2" opacity="1" fill-opacity="0" stroke="#000000" stroke-width="1" stroke-opacity="0"></use></g></g><g><use xlink:href="#b12Fmdukih" opacity="1" fill="#000000" fill-opacity="0"></use><g><use xlink:href="#b12Fmdukih" opacity="1" fill-opacity="0" stroke="#ffffff" stroke-width="0.5" stroke-opacity="1"></use></g></g><g><use xlink:href="#b1RAKdxFEE" opacity="1" fill="#000000" fill-opacity="1"></use><g><use xlink:href="#b1RAKdxFEE" opacity="1" fill-opacity="0" stroke="#000000" stroke-width="1" stroke-opacity="0"></use></g></g><g><use xlink:href="#a1ZqhjUYeC" opacity="1" fill="#000000" fill-opacity="0"></use><g><use xlink:href="#a1ZqhjUYeC" opacity="1" fill-opacity="0" stroke="#ffffff" stroke-width="0.5" stroke-opacity="1"></use></g></g><g><use xlink:href="#azcl97yWw" opacity="1" fill="#000000" fill-opacity="1"></use><g><use xlink:href="#azcl97yWw" opacity="1" fill-opacity="0" stroke="#000000" stroke-width="1" stroke-opacity="0"></use></g></g><g><use xlink:href="#anORWmYra" opacity="1" fill="#000000" fill-opacity="0"></use><g><use xlink:href="#anORWmYra" opacity="1" fill-opacity="0" stroke="#ffffff" stroke-width="0.5" stroke-opacity="1"></use></g></g><g><use xlink:href="#aVQnTyW93" opacity="1" fill="#000000" fill-opacity="1"></use><g><use xlink:href="#aVQnTyW93" opacity="1" fill-opacity="0" stroke="#000000" stroke-width="1" stroke-opacity="0"></use></g></g><g><use xlink:href="#a5wDLwKybR" opacity="1" fill="#000000" fill-opacity="0"></use><g><use xlink:href="#a5wDLwKybR" opacity="1" fill-opacity="0" stroke="#ffffff" stroke-width="0.5" stroke-opacity="1"></use></g></g><g><use xlink:href="#a9t6cGpG" opacity="1" fill="#000000" fill-opacity="1"></use><g><use xlink:href="#a9t6cGpG" opacity="1" fill-opacity="0" stroke="#000000" stroke-width="1" stroke-opacity="0"></use></g></g><g><use xlink:href="#hvsqGq9SW" opacity="1" fill="#000000" fill-opacity="0"></use><g><use xlink:href="#hvsqGq9SW" opacity="1" fill-opacity="0" stroke="#ffffff" stroke-width="0.5" stroke-opacity="1"></use></g></g><g><use xlink:href="#i3s5xtYBxQ" opacity="1" fill="#000000" fill-opacity="1"></use><g><use xlink:href="#i3s5xtYBxQ" opacity="1" fill-opacity="0" stroke="#000000" stroke-width="1" stroke-opacity="0"></use></g></g><g><use xlink:href="#b1HKcgYvc0" opacity="1" fill="#000000" fill-opacity="0"></use><g><use xlink:href="#b1HKcgYvc0" opacity="1" fill-opacity="0" stroke="#ffffff" stroke-width="0.5" stroke-opacity="1"></use></g></g><g><use xlink:href="#cXmRaCT7a" opacity="1" fill="#000000" fill-opacity="1"></use><g><use xlink:href="#cXmRaCT7a" opacity="1" fill-opacity="0" stroke="#000000" stroke-width="1" stroke-opacity="0"></use></g></g><g><use xlink:href="#d13qquuQc9" opacity="1" fill="#000000" fill-opacity="0"></use><g><use xlink:href="#d13qquuQc9" opacity="1" fill-opacity="0" stroke="#ffffff" stroke-width="0.5" stroke-opacity="1"></use></g></g><g><use xlink:href="#faA0lRIRd" opacity="1" fill="#000000" fill-opacity="1"></use><g><use xlink:href="#faA0lRIRd" opacity="1" fill-opacity="0" stroke="#000000" stroke-width="1" stroke-opacity="0"></use></g></g><g><use xlink:href="#dPsdV2H3" opacity="1" fill="#000000" fill-opacity="0"></use><g><use xlink:href="#dPsdV2H3" opacity="1" fill-opacity="0" stroke="#ffffff" stroke-width="0.5" stroke-opacity="1"></use></g></g><g><use xlink:href="#aDvcMimGu" opacity="1" fill="#000000" fill-opacity="1"></use><g><use xlink:href="#aDvcMimGu" opacity="1" fill-opacity="0" stroke="#000000" stroke-width="1" stroke-opacity="0"></use></g></g><g><use xlink:href="#j42rBxJwNa" opacity="1" fill="#000000" fill-opacity="0"></use><g><use xlink:href="#j42rBxJwNa" opacity="1" fill-opacity="0" stroke="#ffffff" stroke-width="0.5" stroke-opacity="1"></use></g></g><g><use xlink:href="#g2tdw8v47P" opacity="1" fill="#000000" fill-opacity="1"></use><g><use xlink:href="#g2tdw8v47P" opacity="1" fill-opacity="0" stroke="#000000" stroke-width="1" stroke-opacity="0"></use></g></g><g><use xlink:href="#b1qbRO4eK9" opacity="1" fill="#000000" fill-opacity="0"></use><g><use xlink:href="#b1qbRO4eK9" opacity="1" fill-opacity="0" stroke="#ffffff" stroke-width="0.5" stroke-opacity="1"></use></g></g><g><use xlink:href="#aco4JbyAv" opacity="1" fill="#000000" fill-opacity="1"></use><g><use xlink:href="#aco4JbyAv" opacity="1" fill-opacity="0" stroke="#000000" stroke-width="1" stroke-opacity="0"></use></g></g><g><use xlink:href="#b4DWrH6Bda" opacity="1" fill="#000000" fill-opacity="0"></use><g><use xlink:href="#b4DWrH6Bda" opacity="1" fill-opacity="0" stroke="#ffffff" stroke-width="0.5" stroke-opacity="1"></use></g></g><g><use xlink:href="#aadbHpdRzM" opacity="1" fill="#000000" fill-opacity="1"></use><g><use xlink:href="#aadbHpdRzM" opacity="1" fill-opacity="0" stroke="#000000" stroke-width="1" stroke-opacity="0"></use></g></g><g><use xlink:href="#bGfHSIbOd" opacity="1" fill="#000000" fill-opacity="0"></use><g><use xlink:href="#bGfHSIbOd" opacity="1" fill-opacity="0" stroke="#ffffff" stroke-width="0.5" stroke-opacity="1"></use></g></g><g><use xlink:href="#a29hH4epFN" opacity="1" fill="#000000" fill-opacity="1"></use><g><use xlink:href="#a29hH4epFN" opacity="1" fill-opacity="0" stroke="#000000" stroke-width="1" stroke-opacity="0"></use></g></g><g><use xlink:href="#dvHgo8lpY" opacity="1" fill="#000000" fill-opacity="0"></use><g><use xlink:href="#dvHgo8lpY" opacity="1" fill-opacity="0" stroke="#ffffff" stroke-width="0.5" stroke-opacity="1"></use></g></g><g><use xlink:href="#a1kgKlO733" opacity="1" fill="#000000" fill-opacity="1"></use><g><use xlink:href="#a1kgKlO733" opacity="1" fill-opacity="0" stroke="#000000" stroke-width="1" stroke-opacity="0"></use></g></g><g><use xlink:href="#b25NSTu0ds" opacity="1" fill="#000000" fill-opacity="0"></use><g><use xlink:href="#b25NSTu0ds" opacity="1" fill-opacity="0" stroke="#ffffff" stroke-width="0.5" stroke-opacity="1"></use></g></g><g><use xlink:href="#k2sKuGX8bj" opacity="1" fill="#000000" fill-opacity="1"></use><g><use xlink:href="#k2sKuGX8bj" opacity="1" fill-opacity="0" stroke="#000000" stroke-width="1" stroke-opacity="0"></use></g></g><g><use xlink:href="#elg09zBzD" opacity="1" fill="#000000" fill-opacity="0"></use><g><use xlink:href="#elg09zBzD" opacity="1" fill-opacity="0" stroke="#ffffff" stroke-width="0.5" stroke-opacity="1"></use></g></g><g><use xlink:href="#iGnvYzKqM" opacity="1" fill="#000000" fill-opacity="1"></use><g><use xlink:href="#iGnvYzKqM" opacity="1" fill-opacity="0" stroke="#000000" stroke-width="1" stroke-opacity="0"></use></g></g><g><use xlink:href="#daaibZbnl" opacity="1" fill="#000000" fill-opacity="0"></use><g><use xlink:href="#daaibZbnl" opacity="1" fill-opacity="0" stroke="#ffffff" stroke-width="0.5" stroke-opacity="1"></use></g></g></g></g></g></svg>