<?xml version="1.0" encoding="utf-8"?>
<!-- Generator: Adobe Illustrator 24.0.3, SVG Export Plug-In . SVG Version: 6.00 Build 0)  -->
<svg version="1.1" id="Layer_1" xmlns="http://www.w3.org/2000/svg" xmlns:xlink="http://www.w3.org/1999/xlink" x="0px" y="0px"
	 viewBox="0 0 640 640" enable-background="new 0 0 640 640" xml:space="preserve">
<g id="landmarks-africa">
	<path id="sahara_1_" fill="#DDDDDD" stroke="#FFFFFF" stroke-width="0.5" stroke-miterlimit="10" d="M83.86,159.38l-1.85-12.36
		l2.74-4.6l6.43-0.91l0.91-22.44h25.67l-0.46-15.57l-33.94-0.45l-3.18,6.85l-2.74,4.6l-5.51,2.31l-1.37,6.42l-2.28,5.97l-4.6,5.51
		l-5.05,5.96l-2.74,10.08l-3.18,3.66l0.46,6.34l0,0L83.86,159.38z"/>
	<path id="egypt_1_" fill="#DDDDDD" stroke="#FFFFFF" stroke-width="0.5" stroke-miterlimit="10" d="M455.65,73.7l-6.75,1.52
		l-4.9-0.61l-4.9-2.43l-0.92-2.75l-4.9,1.86l-3.65,1.85l-1.53-2.74l-4.59,3.04l-6.12,3.66l-5.21-2.74h-6.42l-5.51-2.44l-7.34-2.16
		l-3.32,0.61l-3.05-0.3l-0.91-1.25l-1.86,2.16l0.31,2.44l1.24,2.16l-0.61,3.65l-1.24,1.86l1.85,5.51l0.61,3.65l-0.3,65.07h47.35
		v-2.16l2.43,0.31v2.16l15.29-0.31l1.85,1.25h3.66l2.15-3.66l3.05-0.61l2.74-4.59l2.44-0.31l3.05-2.44l-1.53-5.81l2.75-1.52
		l-4.9-3.33l-7.65-14.37l-2.74-5.51l-0.3-4.26l-2.44-3.33v-3.02l-5.51-6.42l-2.16-7.01l-0.61-3.66v-4.26l2.44,4.9l1.85,5.51
		l3.05,5.51l5.51,5.5h2.44l0.61-3.65l0.91-3.99l2.44-5.51l0.61-2.74l-1.25-6.75l-3.17-7.64l1.47-4.17l0,0l0,0L455.65,73.7z"/>
	<path id="libya_1_" fill="#DDDDDD" stroke="#FFFFFF" stroke-width="0.5" stroke-miterlimit="10" d="M380.37,65.88l-8.25-1.37
		l-2.74-4.11l-8.25-3.18l-10.54,0.92l-4.59,5.5v8.26l-2.29,5.51L337.29,82l-5.97-5.05l-16.93-3.18l-6.42-3.17v-5.97l-8.26-4.11
		l-8.25-1.85h-6.42l-6.42-2.31l-0.92,4.59l-10.08,6.43l-0.45,10.53l-5.06,0.92L261.66,82l1.85,5.51l2.74,5.97l-0.91,5.51l0.46,5.5
		v7.8l-4.12,5.05l4.12,4.11l4.11,11.02h5.05l5.51,5.97l2.74,3.65l11.48,2.75l4.11,3.65l15.13-5.96l62.79,32.54l1.37-4.11l7.79,0.91
		l-0.15-16.47l0.3-65.07l-1.52-6.88l-0.91-2.31l1.24-1.86l0.61-3.65l-1.62-3.43l0.22-2.08l1.68-1.35l0,0L380.37,65.88z"/>
	<path id="tunisia_1_" fill="#DDDDDD" stroke="#FFFFFF" stroke-width="0.5" stroke-miterlimit="10" d="M258.99,63.16l-5.51-4.11
		l-1.37-4.11l-4.59-9.6l5.96-8.71l-0.45-13.76l-0.92-2.74l0.92-1.37l4.11-1.85l3.17-1.86l5.51-0.91l2.29,3.17l4.59,2.31l-1.37,3.18
		l-0.46,4.59l4.12,5.97l-2.29,4.11l-4.59,3.66l-4.12,3.17l3.18,2.74l5.51-0.91l1.85,3.17l0.46,2.74l-0.46,3.18l4.11,0.91l-0.91,4.6
		l-10.08,6.42l-0.46,10.53l-5.03,1.05l0,0L258.99,63.16z"/>
	<path id="algeria_1_" fill="#DDDDDD" stroke="#FFFFFF" stroke-width="0.5" stroke-miterlimit="10" d="M232.41,173.12l49.02-33.01
		l-6.42-7.79h-5.05l-4.11-11.02l-4.12-4.11l4.12-5.05l-0.46-13.31l0.91-5.51l-4.59-11.47l0.45-3.18l-3.17-15.56L253.48,59
		l-5.96-13.76l5.96-8.71l-0.45-13.76l-0.92-2.74l-3.65-2.31l-6.43-0.92l-5.51,0.46l-5.51,0.91h-7.79l-5.97-1.37l-5.96,1.86
		l-6.86,1.37l-6.88,0.91l-5.96,1.86l-6.43,5.5h-6.42l-7.79,6.86l3.17,5.51l1.37,14.22l3.17,2.31l-0.91,5.51l-10.54,1.85l-3.17,2.74
		l-5.51,1.37l0.46,5.97l-10.08,5.51l-4.11,5.05l-6.88,2.31l-2.75,3.66l-4.11-1.86l-8.25,4.6l-5.05,2.74l0.45,11.91l82.49,56.84
		l1.85,3.17l9.6,3.66l0.53,6.85l0,0L232.41,173.12z"/>
	<path id="morocco_1_" fill="#DDDDDD" stroke="#FFFFFF" stroke-width="0.5" stroke-miterlimit="10" d="M83.38,103.02l11.02-4.59
		l5.05-4.6l6.88-2.74l1.86-9.6V71.41l2.74-5.51l3.17-3.17l-0.91-2.31l6.42-7.34l6.42-3.17l7.8-4.6l3.17-6.88l2.29-9.16l2.28-0.91
		l3.66,4.11l3.65,2.31l5.51-0.46l4.11,0.46l5.06,0.46h7.33l3.18,5.5l1.37,14.22l3.17,2.31l-0.91,5.51l-10.54,1.85l-4.59,3.18
		l-4.12,0.91l0.46,5.97l-10.08,5.51l-4.11,5.05l-6.88,2.31l-2.74,3.66l-4.12-1.86l-13.3,7.34l-0.35,6.78l0,0L83.38,103.02z"/>
	<path id="mauritania_1_" fill="#DDDDDD" stroke="#FFFFFF" stroke-width="0.5" stroke-miterlimit="10" d="M113.69,207.95l4.12,0.92
		l27.95-0.46l0.46-5.51l-2.74-1.37l-6.89-73.32l9.17-0.46l-27.52-19.27l-0.46,10.54H92.11l-0.91,22.44l-6.42,0.91l-2.74,4.6
		l1.85,12.36l-30.7,1.37v3.18l1.86,7.33l-0.46,3.66l1.37,4.11l2.74,3.18v6.42L57.33,195l-1.85,5.97l7.34-0.46l5.96-0.45l3.66,3.17
		l5.05,0.91l3.17,4.12l7.8,7.33l3.65-1.85l4.12-5.51l4.11,2.31l4.11-1.85l4.65,1.57l0,0L113.69,207.95z"/>
	<path id="south-sudan_1_" fill="#DDDDDD" stroke="#FFFFFF" stroke-width="0.5" stroke-miterlimit="10" d="M382.76,257.59l0.33-3.23
		l3.43-5l6.44-0.64l3.2,5.77l0.56,1.52l3.99,0.43l2.23-1.09l6.35,0.76l1.57,1.42l5.56,0.11l1.91-2.29l3.98,0.33l-1.11-3.78
		l5.13-1.98l8.2,5.1l3.19-1.32l5.46-7.36l3.53-2.59l-1.34-1.96v-4.57l-1.35-2.28l4.77,0.1l-0.1-1.75l4.55,0.33l-1.25,3.68l0.79,8.35
		l6.22,5.87l-0.43,0.81l-2.59,13.46l-4.77-0.06l2.38,6.55l2.29,0.94l7.54,8.64l4.67,8.93l-16.38,13.99l-17.51,1.37l-10.26-8.78
		l-9.65,1.85l-5.79-3.17l-0.89-4.93l-7.1-5.48l-2.01-6.75l-8.68-2.77l-3.05-3.38l-2.06-3.96l-5.4-0.99l0.38-2.51l0,0L382.76,257.59z
		"/>
	<path id="niger_1_" fill="#DDDDDD" stroke="#FFFFFF" stroke-width="0.5" stroke-miterlimit="10" d="M190.65,221.71l3.65,3.66
		l1.37,3.65l9.6,3.66l0.46,1.85l2.74,0.46l5.51,4.59l0.91-6.85l5.51-6.42l1.85-4.6l16.02,0.92l3.66,5.05l9.17-1.37l10.07,4.59
		l10.08-4.11l8.71-1.37l6.43,1.37l7.79-5.05l3.66-9.17l11.01-14.67l0.46-20.19l4.11-8.25l-5.96-11.47l-1.37-11.48l-7.34,1.86
		l-4.11-3.66l-11.48-2.74l-1.85-1.86l-49.03,33.01l-11.02,3.65l-0.45,17.4l-5.97,15.56l-9.6,2.31l-14.67-0.92l-0.38,2.34l0,0
		L190.65,221.71z"/>
	<path id="mali_1_" fill="#DDDDDD" stroke="#FFFFFF" stroke-width="0.5" stroke-miterlimit="10" d="M95.82,223.06l1.37,4.11
		l0.92,7.34l8.25,3.65l4.59-4.11h3.66l5.05,5.97l-0.46,5.51l6.86,3.17l6.88,1.37l3.65-3.66l1.86,3.66l4.59-2.74l0.46-5.05l1.85-4.6
		l5.06-3.17l2.74-6.86l3.17-3.65l3.66,0.45l9.59-5.05l10.54-8.25h10.54l13.3,0.91l11.02-2.31l1.85-4.59l3.66-9.6l0.45-1.37
		l0.46-17.39l-8.71,2.31l-0.45-6.88l-9.6-3.66l-1.85-3.17l-54.99-37.57l-9.17,0.45l6.86,73.32l2.74,1.38l-1.86,5.5h-28.41
		l-2.28-0.45l-5.97,2.74l-3.17-1.85l-5.51,2.31l-2.74-2.75l-4.11,5.51l-3.66,1.86l2.26,3.09l0,0L95.82,223.06z"/>
	<path id="eritrea_1_" fill="#DDDDDD" stroke="#FFFFFF" stroke-width="0.5" stroke-miterlimit="10" d="M482.13,217.12l3.91,2.51
		l3.17-3.17l3.18,2.51l5.96-1.37l2.51,1.85l4.83,1.37l5.28,4.6l3.17,2.51l3.18-0.23l6.67,4.6l3.43-0.92l-6.68-6.22l-4.59-4.36
		l-6.88-6.22l-4.55-2.08l-1.16-2.75l-2.52-0.91l-2.51-7.34l-2.74-9.85l-3.18-3.91l-6.42,5.05l-1.85,1.17l-1.37,0.92l-5.28,16.47
		l-0.61,6.22l0,0L482.13,217.12z"/>
	<path id="chad_1_" fill="#DDDDDD" stroke="#FFFFFF" stroke-width="0.5" stroke-miterlimit="10" d="M299.23,228.13l3.18,1.86
		l3.17,8.71l0.91,8.25l3.18,4.11l-11.02,1.85l0.91,5.97l6.88,4.11l4.11,8.25l7.34,0.46l2.74,0.91l15.57-4.11l0.91-6.42l9.6-1.37
		l5.96-4.6l4.12-5.96l5.05-5.06l8.25-0.91l-4.11-4.11l-0.92-8.71l-5.51-1.85l4.6-5.97l-0.91-5.05l5.05-6.86l1.85-5.51l6.42,0.46
		v-31.61l-62.78-32.55l-7.8,4.12l1.38,11.47l5.96,11.48l-4.11,8.25l-0.46,20.18l-11.02,14.68l-3.65,9.16l1.04,1.32l0,0
		L299.23,228.13z"/>
	<path id="ethiopia_1_" fill="#DDDDDD" stroke="#FFFFFF" stroke-width="0.5" stroke-miterlimit="10" d="M472.71,291.81l0.71,5.96
		h8.71l8.25,6.43l12.36,1.62l1.63-3.65l6.42-4.12l2.08,3.43l5.28,0.92l3.66-2.52l4.11-0.71l6.22-4.37l11.02-0.71l25.44-24.75
		l-8.48,0.46l-24.98-9.85l-8.02-8.71l0.22-6.88l-4.36-0.23l-1.86,1.37l-1.16-7.34l2.08-6.42l-4.6-4.11l-3.17,0.23l-8.71-6.43
		l-4.59-2.08l-2.52-1.85l-5.96,1.37l-3.18-2.52l-3.17,3.18l-3.91-2.52l-5.05,0.46l-1.86,11.91l-4.11,1.37l-5.05,8.71l-0.91,6.42
		l-5.97,1.37l-3.17,17.39l-4.37,0.92v5.51l4.37,1.85l7.56,8.48l4.22,9.04l0,0L472.71,291.81z"/>
	<path id="somalia_1_" fill="#DDDDDD" stroke="#FFFFFF" stroke-width="0.5" stroke-miterlimit="10" d="M534.78,248.06l5.97,3.18
		l6.42-0.71l4.6-2.74l6.22,0.71l5.28-3.91l4.11,0.45l6.22-0.91l9.85-1.17l4.6-4.11l5.51,0.91l-0.92,3.18v5.73l2.09,2.09l-3.66,1.37
		l-0.46,4.59l-1.37,5.74l-2.51,0.91l-4.83,8.03l-5.05,9.16l-3.43,8.25l-5.5,5.28l-0.72,4.6l-16.7,16.25l-8.71,4.82l-10.76,8.02
		l-6.22,7.8l-7.34,9.59l-4.6-7.1l0.71-29.12l4.6-3.91v-2.75l3.66-2.51l4.11-0.71l5.05-3.91l11.45-0.91l26.13-24.99l-8.48,0.46
		l-24.99-9.85l-8.02-8.71l0.23-6.85l2.74-2.31l1.75,2.15l0,0l0,0L534.78,248.06z"/>
	<path id="djibouti_1_" fill="#DDDDDD" stroke="#FFFFFF" stroke-width="0.5" stroke-miterlimit="10" d="M527.24,244.43l-4.36-0.22
		l-1.86,1.37l-0.71-6.68l1.63-7.11l2.08,0.46l3.43-0.92l2.51,4.37l-0.23,5.05l0.26,1.37l0,0L527.24,244.43z"/>
	<path id="kenya_1_" fill="#DDDDDD" stroke="#FFFFFF" stroke-width="0.5" stroke-miterlimit="10" d="M461.28,308.54l3.18,6.42v6.86
		l-8.48,9.16l0.23,9.6l31.15,16.93v3.91l11.91,8.03l5.28-8.26l5.96-11.01l6.88-5.06l-4.59-7.11l0.91-28.4l4.37-4.6v-2.74l-5.28-0.92
		l-2.08-3.42l-6.43,4.11l-1.62,3.66l-12.37-1.63l-8.25-6.42h-8.71l-0.71-5.97l-4.82-1.37l-10.31,8.94l2.62,4.24l0,0L461.28,308.54z"
		/>
	<path id="sudan" fill="#DDDDDD" stroke="#FFFFFF" stroke-width="0.5" stroke-miterlimit="10" d="M382.78,257.69l0.33-3.23l3.43-5
		l6.45-0.63l3.2,5.76l0.56,1.52l3.98,0.43l2.24-1.09l6.34,0.76l1.58,1.43l5.56,0.1l1.9-2.29l3.99,0.33l-1.12-3.78l5.13-1.96
		l8.2,5.11l3.2-1.32l5.46-7.36l3.53-2.59l-1.35-1.96v-4.57l-1.34-2.28l4.77,0.1l-0.1-1.75l4.54,0.33l-1.24,3.68l0.78,8.35l6.23,5.86
		l-0.56-0.22l0.89-5.34l6.06-1.37l0.94-6.14l5.51-9.06l3.84-1.32l1.95-17.34l3.78-9.32l2.92-8.46l3.79-2.31l4.82-3.47l-8.28-6.3
		l-0.99-15.51l-1.27-6.07l-1.85-5.43l-6.12-4.55l-2.23-2.69l-1.3-1.14l-2.13,1.47l-2.72,0.76l-2.76,4.72l-3.2,0.61l-2.24,3.79
		l-3.98,0.17l-2.49-1.37l-15.87-0.33l-0.38-1.57l-0.71-0.23l0.1,2.08l-48.49-0.23l0.1,16.79l-8.28-1.1l-1.16,3.38l0.05,33.34
		l-6.88-1.38l-1.53,4.78l-5.15,6.85l0.94,5.1l-4.22,5.21l4.96,1.57l0.99,9.07l4.26,4.01l0.1,3.73l5.05,4.06v9.07l3.08,0.86
		l1.34,4.57l0,0L382.78,257.69z"/>
	<path id="eswatini_1_" fill="#DDDDDD" stroke="#FFFFFF" stroke-width="0.5" stroke-miterlimit="10" d="M442.98,542.44l-8.25,0.71
		l-2.97,5.05v7.57l8.93,0.71l2.24-4.06l-0.66-5.38l0,0L442.98,542.44z"/>
	<!--<path id="lesotho_1_" fill="#DDDDDD" stroke="#FFFFFF" stroke-width="0.5" stroke-miterlimit="10" d="M410.2,570.65l-3.17,0.91-->
		<!--l-5.51,5.51l1.37,3.43l2.74,4.36l3.18,2.31l1.62-3.42l3.91-1.86l3.18-1.62l0.45-4.11l0.92-2.97l-2.75-2.52l-2.76-2.33l0,0-->
		<!--L410.2,570.65z"/>-->
	<path id="south-africa_1_" fill="#DDDDDD" stroke="#FFFFFF" stroke-width="0.5" stroke-miterlimit="10" d="M369.84,619.44
		l4.59-1.37l8.25,2.74l5.05-3.17l3.66-2.31l8.25-0.91l5.97-3.66l5.05-4.59l8.71-7.8l6.42-7.34l10.54-16.93l8.25-8.25l3.17-14.07
		l-4.9,0.61l-2.43,4.73l-8.71-1.38l-0.46-6.42l2.74-5.97h7.8l1.7-3.8l-3.48-12.7l-1.85-2.74l1.37-2.89l-3.99-6.12l-9.47-4.27
		l-7.34-0.3l-17.69,14.06l-4.11,9.17l-2.75,0.91l-3.65,7.8l-9.6-0.46l-7.34-1.37l-2.28-1.37l-5.97,7.33l-1.37,5.06l-11.45,1.37
		l-0.46-10.08l-5.05-5.97v30.09l-4.9,1.24l-1.24,2.16h-7.64l-7.65-0.91l-3.32-4.6h-1.85l-3.05,4.27l3.05,7.64l2.28,9.16l5.05,6.86
		l2.74,6.42l-0.45,8.25l-3.66,0.92l3.66,5.96l4.59,6.42l6.43,4.6l2.28,1.37l7.34-3.17l7.34-0.46l3.58-3.76l0,0l0,0H369.84z"/>
	<path id="botswana_1_" fill="#DDDDDD" stroke="#FFFFFF" stroke-width="0.5" stroke-miterlimit="10" d="M351.96,542.95v6.85
		l0.46,3.18l11.45-1.37l1.37-5.06l5.97-7.33l2.28,1.37l10.54,1.85h6.42l3.66-7.79l2.74-0.92l4.11-9.16l8.25-7.8l5.51-4.11l3.99-2.16
		l-10.66-7.33l-0.31-4.6l-6.42-5.2l-5.21-1.86l-5.51-11.6l-2.15-1.52l-0.92-3.66h-3.98l-9.47,5.51l-3.33-3.02l-16.78,3.02v29.65
		l-7.34,0.61l0.28,26.48l0,0L351.96,542.95z"/>
	<path id="angola-2_1_" fill="#DDDDDD" stroke="#FFFFFF" stroke-width="0.5" stroke-miterlimit="10" d="M283.69,378.89l4.27-4.9
		l1.85-2.44v-3.04l-2.74-0.31l-5.81,4.57l0,0L283.69,378.89z"/>
	<path id="angola_1_" fill="#DDDDDD" stroke="#FFFFFF" stroke-width="0.5" stroke-miterlimit="10" d="M294.33,429.29l-3.65,6.42
		l-5.51,6.75l-3.33,12.82l-3.33,9.75l1.25,5.21l11.6-1.86l7.01,2.75h32.42l8.56,3.32l21.4,1.25l10.38-3.99l-1.24-2.44l-7.64-5.2
		L361,434.74l14.68,0.61l0.91-3.65l-0.61-11.33l-12.24-1.52l-0.3-3.05l-4.9-7.94l2.44-5.51l-1.53-7.34l0.61-3.98h-9.47l-0.61-3.33
		l-9.16,1.52l0.61,3.02l-0.31,3.33l-12.51,0.3l-7.95-4.9l-2.74-11.32l-19.88,0.31l-5.21-2.44l-2.15,2.74l-7.01,2.74l4.9,7.34
		l0.61,4.27l3.32,6.75l-2.74,5.2l1.86,8.56l4.57,3.15l0,0L294.33,429.29z"/>
	<path id="namibia_1_" fill="#DDDDDD" stroke="#FFFFFF" stroke-width="0.5" stroke-miterlimit="10" d="M286.74,468.97l5.51-0.61
		l6.12,2.74h32.42l8.56,3.33l21.4,1.24l10.38-3.99l12.52-0.61l3.98,3.66h-3.98l-3.33,1.52l-6.12,3.99l-3.32-3.05l-15.29,2.44
		l-1.52,0.61v29.65l-7.34,0.61l0.31,56.52l-4.9,1.24l-1.25,2.16h-7.64l-7.64-0.92l-3.33-4.59h-1.85l-3.05,4.26l-8.55-8.86
		l-3.66-9.74l-2.16-8.56l-0.3-6.75l-2.16-7.34l-0.3-8.25l0.3-3.02l-3.04-6.12l-3.33-3.66l-5.51-12.82l-2.16-6.75l-6.42-6.43
		l-0.36-10.66l0,0L286.74,468.97z"/>
	<path id="zimbabwe_1_" fill="#DDDDDD" stroke="#FFFFFF" stroke-width="0.5" stroke-miterlimit="10" d="M388.47,478.46l2.16,1.53
		l3.33,7.94l2.15,3.66l5.21,1.85l3.65,3.05l2.75,2.16l0.3,4.59l6.75,4.27l3.99,3.04l7.34,0.31l9.47,4.26l7.64-10.66l5.51-11.02
		l-0.31-5.2l-2.74-4.27l2.74-4.26v-7.65l-1.85-7l-9.75-4.9l-7.34-0.31l-2.15-3.98l-1.86-0.61l-9.16,3.04l-1.86,6.43l-4.26,1.24
		l-11.02,9.75l-11.6-0.91l0,0L388.47,478.46z"/>
	<path id="madagascar" fill="#DDDDDD" stroke="#FFFFFF" stroke-width="0.5" stroke-miterlimit="10" d="M572.69,435.38l-0.92,3.65
		l-7.33,0.92l0.61,6.42l-3.05,4.27l-3.33,3.98l-5.51,2.44l2.44,4.6l-5.51-1.86l-8.55,1.53l-2.75,1.52l0.61,3.32l-4.26,5.21
		l0.61,8.25l1.85,6.42l2.74,6.12l-2.74,5.82l-2.74,4.26l-2.44,3.66l-3.04,3.98l1.52,11.02l3.99,3.99l-2.44,4.9l4.59,6.42l4.27,3.02
		l4.26,4.27l4.6-3.66l6.12-0.61l5.81-5.81l4.27-15.9l6.42-22.29l6.42-17.69l0.61-7.34l1.53-4.9l-0.31-6.42l1.24-2.16l1.86,3.05
		l2.16-3.99l-0.61-7.01l-0.92-8.55l-4.26-7.95l-3.23-3.91l0,0L572.69,435.38z"/>
	<path id="mozambique_2_" fill="#DDDDDD" stroke="#FFFFFF" stroke-width="0.5" stroke-miterlimit="10" d="M429.42,459.83l7.34,0.3
		l5.51,3.05l4.26,1.85l1.86,7.01v8.86l-2.74,3.05l2.74,4.26l0.3,5.21l-3.65,6.42l-2.75,5.81l-6.75,9.47l3.99,6.12l-0.61,4.9
		l4.59,13.43l-1.24,5.82l0.61,7l4.9-0.61l-0.61-4.9l-1.25-0.3l1.86-4.27l8.55-2.74l8.56-5.51l1.85-9.75l0.92-13.43l-3.66-2.43
		l-0.3-6.76l-3.66-4.9l1.85-4.9l6.43-2.74l4.26-5.2l4.9-0.31l1.53-7.34l9.47-4.59l8.86-2.74l4.26-4.27l5.21-6.12l4.26-6.11
		l-0.61-5.21l-1.24-2.74l-0.92-15.56l-0.61-6.12l1.07-4.83l-11.68,2.31l-4.59,2.31l-3.18-2.31l-2.51,3.18l-12.36,0.23l-0.72-1.63
		l-5.5,1.17h-5.74l-1.86,10.86l3.05,5.51l8.25,9.17l-1.52,11.32l-2.44,2.74l-1.85,6.43l-2.74-3.66l-3.33-4.59l1.24-6.43l-0.91-6.75
		l-3.05-0.3l-3.04,1.24l-1.86-2.74l-3.65-2.74l-23.21,9.16v2.74l1.7,0.61l0,0L429.42,459.83z"/>
	<path id="malawi_1_" fill="#DDDDDD" stroke="#FFFFFF" stroke-width="0.5" stroke-miterlimit="10" d="M461.18,454.67l-1.24,6.43
		l4.59,5.2l1.53,3.02l1.85-7.33l2.44-2.75l1.52-10.38l-8.25-9.17l-3.05-5.5l1.86-10.87l-1.86-9.6l-2.51-4.11l-9.39-3.43l5.2,10.31
		l-2.44,5.51v9.47l-2.43,1.85l-1.53,5.82l1.25,4.26l3.65,2.74l1.86,2.75l3.04-1.25l3,0.28l0,0L461.18,454.67z"/>
	<path id="zambia_1_" fill="#DDDDDD" stroke="#FFFFFF" stroke-width="0.5" stroke-miterlimit="10" d="M375.93,426.85l0.61,4.9
		l-0.92,3.65l-14.67-0.61l0.61,28.41l4.26,3.33l3.99,2.74l1.24,2.44l12.52-0.61l2.16,2.44l13.43,2.16l11.02-9.75l4.26-1.25
		l1.86-6.42l9.16-3.05l-0.91-3.02l24.14-8.86l-1.24-4.26l1.52-5.82l2.44-1.85v-9.47l3.32-4.6l-6.11-11.24l-8.48-1.63l-10.46-6.12
		l-12.82,3.05l-3.33,6.12l0.61,4.26v6.43l-2.16,4.9l1.24,3.32l4.27,4.6l5.2-2.16l1.25,7.34l-1.52,0.91h-5.51l-7.95-7.34l-7.64-5.81
		l-3.05,3.05l-8.55-3.33l-4.27-3.33l-4.6,1.86l-0.91-1.86l-4.01,0.06l0,0l0,0V426.85z"/>
	<path id="congo_1_" fill="#DDDDDD" stroke="#FFFFFF" stroke-width="0.5" stroke-miterlimit="10" d="M332.9,303.11l0.61,4.9
		l-7.01,20.76v6.76l-12.52,14.67l-0.3,11.02l-8.86,9.16l-4.9-3.65l-7.34,4.9h-2.74v-3.05l-2.74-0.3l-5.82,4.59l-2.74-4.26
		l-3.99-3.99l2.16-1.85l3.99,0.3l1.24-3.98l-2.16-1.53l-1.24-4.59l2.44-1.85l4.26,0.91l1.25-4.27l3.32,2.44l4.9,0.92l3.66,1.24
		l3.05-3.33l0.91-11.02l-3.99-1.24l-0.91-3.32l1.24-3.33l2.16-3.33l0.31-4.59l-8.56,1.24l-0.61-8.25h10.66l7.95,2.16l4.9,2.44
		l-0.3-3.99l0.6-4.26l5.79-9.35l0,0L332.9,303.11z"/>
	<path id="dem-congo_1_" fill="#DDDDDD" stroke="#FFFFFF" stroke-width="0.5" stroke-miterlimit="10" d="M333.48,308.01l-3.99,11.9
		l-3.04,7.95v7.64l-12.52,14.68l-0.3,11.01l-8.86,9.17l-3.99-3.66l-4.59,2.75l-3.66,2.15h-2.74l-2.74,3.99l-3.33,3.33v4.26
		l7.01-2.74l2.15-2.74l5.21,2.43l19.88-0.3l2.74,11.32l6.12,4.9l14.37-0.3l0.3-3.33l-0.61-3.02l9.17-1.52v3.98l10.08-0.61
		l-0.61,3.99l1.52,7.34l-2.44,5.51l4.9,7.94l0.31,3.05l13.15,1.52h3.05l0.91,1.86l4.6-1.86l4.26,3.33l8.56,3.32l3.04-3.04l5.21,3.98
		l2.44,1.86l3.04,3.02l4.9,4.26l5.21,0.61l1.85-1.52l-0.91-8.25l-5.51,3.05l-4.27-3.66l-1.24-4.27l1.85-7l0.31-5.51l-0.61-3.05
		l3.32-6.12l12.82-3.04l1.78,0.83l-3.17-9.39l-5.97-5.97l-0.23-5.05l-1.85-6.42l0.46-3.91l-2.29-9.4l0.46-2.74l-1.37-5.51l1.24-3.47
		l4.06-2.9l0.23-15.13l12.62-14.45l-3.1-1.77l-0.61-7.01l0.92-1.52l-9.3-8.25l-8.4,2.43l-14.37-7.33l-5.2,1.24l-4.27-1.85
		l-7.01,2.74l-2.74-1.25l-5.2,3.66l-7.34-1.85l-3.05,4.9l-14.97-3.33l-10.08-3.66l-5.51,7.01l-1.75,3.89l0,0L333.48,308.01z"/>
	<path id="gabon_2_" fill="#DDDDDD" stroke="#FFFFFF" stroke-width="0.5" stroke-miterlimit="10" d="M292.55,323.32l8.56-1.25
		l-0.3,4.6l-2.16,3.32l-1.25,3.33l0.92,3.32l3.98,1.25l-0.91,11.02l-3.05,3.32l-3.65-1.24h-4.6l-4.59-3.66l-0.31,4.6l-4.26-0.92
		l-2.44,1.86l1.24,4.59l2.44,0.92l-1.52,4.59l-3.99-0.3l-2.16,1.85l-15.56-16.48l-3.99-8.55l4.27-2.44l-0.3-8.25l4.26-3.66
		l1.85,1.86l2.16-2.44l8.86,0.91l1.25-10.38h14.72v-0.03h-0.07l0,0l0,0l0,0l0,0L292.55,323.32z"/>
	<path id="equatorial_1_" fill="#DDDDDD" stroke="#FFFFFF" stroke-width="0.5" stroke-miterlimit="10" d="M276.03,325.45l-8.86-0.92
		l-1.25,2.44l-2.74-1.85l-3.05-1.25l3.66-9.16l13.48,0.35l0,0L276.03,325.45z"/>
	<path id="cameroon_1_" fill="#DDDDDD" stroke="#FFFFFF" stroke-width="0.5" stroke-miterlimit="10" d="M263.82,314.73l38.81,0.31
		l7.95,2.16l4.9,2.43l-0.3-3.98l0.6-4.27l-7.33-6.42l-0.61-4.9l-6.75-15.28h1.85l7.79-13.61l-3.81-7.47l-7.18-4.9l-0.91-5.96
		l11.01-1.86l-3.17-4.11l-1.24-9.47l-2.9-7.46l-2.89-1.07l1.85,12.24l-4.26,2.74l-8.26,18.33l-3.98,3.99l-7.64,14.37l-7.64-3.99
		l-11.02,8.86l-1.86,7.34l-4.26,2.74l1.85,3.66l1.52-1.25l2.16,3.99l4.9-1.25l-1.24,4.27l1.75,1.57l0,0L263.82,314.73z"/>
	<path id="nigeria_1_" fill="#DDDDDD" stroke="#FFFFFF" stroke-width="0.5" stroke-miterlimit="10" d="M227.76,288.79l1.53,9.75
		l10.66,0.3l10.66-2.44l2.52-1.52l3.55-2.18l1.85-7.34l10.08-9.17l8.56,4.27l7.64-14.37l3.99-4.9l3.04-6.42l2.44-5.51l2.74-5.51
		l4.27-2.74l-0.92-6.12l-1.52-7.64l-5.2-4.6l-7.34,3.99l-6.42-1.37l-8.56,2.31l-10.08,3.98l-10.21-5.35l-8.4,1.06l-4.44-4.72
		l-16.02-0.91l-1.8,4.57l-5.51,6.42l-0.92,6.85l3.05,6.12l-2.44,7.64l-4.59,5.51l-0.61,22.29l11.4,0.99l0,0L227.76,288.79z"/>
	<path id="benin_1_" fill="#DDDDDD" stroke="#FFFFFF" stroke-width="0.5" stroke-miterlimit="10" d="M209.13,259.44l5.51-6.12
		l1.85-6.42h0.92l-3.33-7.34l-5.51-4.6l-2.74-0.45l-1.85,5.96l-5.21,0.92l-3.66,3.98l-1.24-0.61l-0.3,3.03l4.59,7l1.52,7.64
		l1.53,15.29l0.91,4.26l7.31-0.86l0,0L209.13,259.44z"/>
	<path id="togo_1_" fill="#DDDDDD" stroke="#FFFFFF" stroke-width="0.5" stroke-miterlimit="10" d="M198.16,254.82l1.85,9.47
		l1.25,14.06l0.91,3.66l-5.51,1.85l-4.26-5.2l-1.53-20.49l-2.15-0.91l0.91-7.34l-3.33-7.01l7.65,1.85l-0.38,3.05l0,0L198.16,254.82z
		"/>
	<path id="ghana_1_" fill="#DDDDDD" stroke="#FFFFFF" stroke-width="0.5" stroke-miterlimit="10" d="M188.64,257.28l2.16-0.3v7.33
		l0.91,8.86l0.61,5.51l4.27,5.21l-2.74,3.04l-7.65,0.92l-7,3.65l-5.51,1.86l-4.6,2.16l-3.04-1.86l-5.51-1.52l4.59-0.92l-0.3-4.59
		l-3.05-7.34l4.9-15.89l-1.85-6.12l-0.31-13.15l18.94-0.61l2.74-0.61l1.25,3.05l1.8,3.37l0,0L188.64,257.28z"/>
	<path id="cote_1_" fill="#DDDDDD" stroke="#FFFFFF" stroke-width="0.5" stroke-miterlimit="10" d="M143.48,292.7l12.82-0.31
		l6.42-0.61l2.44-0.61l-0.31-4.59l-3.04-7.34l3.04-8.86l1.86-7.01l-1.86-6.11l-2.44-3.33l-7.33-0.91l-1.53,1.52l-10.53-7.19
		l-4.6,2.75l-1.85-3.66l-4.44,3.81l-7.34-0.92l-1.85,1.86l3.32,11.9l-3.04,1.25l-0.61,3.65l-3.66,3.66l1.52,5.2l-0.3,2.75
		l-2.16,1.85l11.02,5.81l-2.44,11.61l5.28-0.66l0,0l0,0L143.48,292.7z"/>
	<path id="liberia_1_" fill="#DDDDDD" stroke="#FFFFFF" stroke-width="0.5" stroke-miterlimit="10" d="M124.23,283.84l4.9,4.26
		l-1.52,7.95l-0.92,2.74l-11.9-4.26l-5.82-5.51l-6.12-4.9l-4.26-2.16l-4.6-2.16l3.66-6.75l6.42-5.21l0.31-2.44l4.9-0.91l2.74,6.12
		l0.3,2.74h3.66l3.05-1.85l1.52,5.2l-0.31,2.74l-2.13,1.96l0,0L124.23,283.84z"/>
	<path id="burkina_1_" fill="#DDDDDD" stroke="#FFFFFF" stroke-width="0.5" stroke-miterlimit="10" d="M153.55,254.51l1.53-1.52
		l6.42,0.61l3.33,3.66l-0.31-13.16l18.94-0.61l2.74-0.6l3.99,1.24l5.2,0.3l3.33-3.04l4.27-0.61l3.04-4.9l-0.79-3.18l-9.59-3.65
		l-1.37-3.66l-3.66-3.65l-0.79-10.54h-9.75l-9.74,8.25l-10.39,5.05l-3.65-0.45l-3.05,3.02l-3.05,8.25l-4.9,2.44l-1.85,4.59
		l-0.46,5.05l4.14,3.79l0,0l0,0L153.55,254.51z"/>
	<path id="sierra-leone" fill="#DDDDDD" stroke="#FFFFFF" stroke-width="0.5" stroke-miterlimit="10" d="M97.62,273.15l4.27-3.02
		l2.16-2.16l0.3-2.44h-2.74l0.3-3.98l-3.98-9.47l-1.52-0.92l-3.33,3.05l-3.33-1.25l-2.74,2.75l-3.04,4.26h-3.66v4.9l2.16,3.66
		l2.43,1.24l1.25,4.9l7.82,5.23l0,0L97.62,273.15z"/>
	<path id="c" fill="#DDDDDD" stroke="#FFFFFF" stroke-width="0.5" stroke-miterlimit="10" d="M68.61,245.4l1.85,4.26l3.98,4.27
		l3.33,1.85l1.24,3.66l4.9,0.61l3.05-4.27l2.74-2.74l3.66,0.61l3.05-2.44l1.52,0.92l3.98,9.47l-0.6,4.59l4.59-1.85l3.33,0.3
		l2.74,6.12l0.3,2.74h3.66l3.98-2.74l2.75-2.74l0.61-3.66l3.04-1.24l-2.16-7.64l-1.24-4.27l1.85-1.85l-5.66-3.81l0.46-5.51
		l-5.05-5.96h-3.66l-4.59,4.11L98,234.53l-11.17-1.37L81.02,231l-3.05,0.31l-2.43,3.65l0.3,3.33l-5.2,0.91l-6.43,6.76l1.65,0.96l0,0
		L68.61,245.4z"/>
	<path id="gambia_1_" fill="#DDDDDD" stroke="#FFFFFF" stroke-width="0.5" stroke-miterlimit="10" d="M53.02,227.98l12.51-2.74
		l4.9,0.91l4.9,0.31l0.31-1.24l-3.99-0.61L68,221.28l-3.66,1.85H54.29v-0.02l-0.03-0.03l0,0l0,0L53.02,227.98z"/>
	<path id="bissau_1_" fill="#DDDDDD" stroke="#FFFFFF" stroke-width="0.5" stroke-miterlimit="10" d="M59.47,237.45l3.32,1.53
		l1.52,7l2.75-2.43l3.65-4.27l5.21-0.91l-0.31-3.33l2.44-3.66l-11.02-0.6l-4.59,2.74l-10.08,0.61l1.9,1.47l0,0l0,0L59.47,237.45z"/>
	<path id="senegal_1_" fill="#DDDDDD" stroke="#FFFFFF" stroke-width="0.5" stroke-miterlimit="10" d="M55.48,209.65l-5.21,3.66
		l3.99,9.75h8.56l5.2-1.86l3.66,3.33l3.98,0.61l-0.3,1.24h-5.82l-3.04-1.24l-8.56,2.16l-4.9,0.61l-0.61,6.11l10.08-0.6l4.6-2.75
		l14.06,0.31l5.82,2.16l11.17,1.37l-0.46-5.66l-1.85-5.82l-4.27-3.04l-3.04-4.27l-8.87-7.64l-1.85-3.05l-4.59-1.52l-4.45-3.33
		l-13.3,0.92l0.3,3.65l0,0L55.48,209.65z"/>
	<path id="african-republic_1_" fill="#DDDDDD" stroke="#FFFFFF" stroke-width="0.5" stroke-miterlimit="10" d="M305.4,279.9
		l-2.44,4.9h-1.85l2.44,7.34l3.98,7.01l0.92,5.81l7.33,6.42l5.82-9.16l12.24,0.91l1.52-3.98l5.81-7.65l9.75,4.27l14.98,3.32
		l3.05-4.9l7.33,1.86l5.21-3.66l2.74,1.25l7.01-2.75l4.26,1.86l5.21-1.25l7.18,3.03l-0.91-5.06l-6.86-5.51l-1.85-6.42l-8.25-2.74
		l-3.33-2.59l-1.7-4.72l-5.51-0.92l-0.91-4.59l-3.17-0.92v-9.16l-4.83-4.11l-0.99-3.99l-6.75,0.91l-7.01,7.65l-3.98,4.59l-4.9,3.66
		l-9.6,1.37l-0.91,6.42l-15.57,4.11l-3.48-1.24l-5.5,0.3l-2.21,0.99l0,0L305.4,279.9z"/>
	<path id="tanzania_1_" fill="#DDDDDD" stroke="#FFFFFF" stroke-width="0.5" stroke-miterlimit="10" d="M422.11,378.89l0.23,5.05
		l5.97,5.97l3.17,9.39l8.71,5.28l8.48,1.63l9.39,3.43l2.51,4.11l1.86,9.59h5.73l5.51-1.16l1.38,2.08l11.67-0.71l2.52-3.18l3.17,2.31
		l4.6-2.31l11.67-2.31l-6.42-6.67l-0.23-5.74l-2.97-5.74l-0.23-8.02l2.09-3.66l-6.43-5.28l2.29-6.42l2.51-7.11l-11.91-8.02v-3.91
		l-31.83-17.39l-26.99,1.16l3.17,4.83v5.28l-1.85,4.11l1.17,5.74l-7.11,7.11l-3.17,0.23l-0.51,3.91l0,0L422.11,378.89z"/>
	<path id="burundi_1_" fill="#DDDDDD" stroke="#FFFFFF" stroke-width="0.5" stroke-miterlimit="10" d="M420.66,368.58l3.18-0.23
		l7.11-7.1l-0.23-3.43l-0.92-2.31l1.86-4.12l-6.68,0.72l-2.08,4.11l-1.86-0.23l-2.28,0.46l-0.38,2.74l0,0L420.66,368.58z"/>
	<path id="rwanda_1_" fill="#DDDDDD" stroke="#FFFFFF" stroke-width="0.5" stroke-miterlimit="10" d="M417.46,350.94l1.38,5.51
		l2.28-0.46l1.85,0.23l2.09-4.11l6.67-0.72v-5.28l-3.17-4.82l-5.74,3.17l-3.98,2.11l0,0L417.46,350.94z"/>
	<path id="uganda_1_" fill="#DDDDDD" stroke="#FFFFFF" stroke-width="0.5" stroke-miterlimit="10" d="M428.51,341.29l27.04-1.17
		l0.45-9.16l8.48-9.17l0.23-5.96l-3.65-6.68l-0.92-5.74l-2.51-4.11l-6.22,4.34l-17.85,1.37l-2.08,0.23l0.23,8.02l3.91,1.63
		l-2.08,2.97l-11.25,11.68L423,343.8l0,0L428.51,341.29z"/>
</g>
</svg>
