<?xml version="1.0" encoding="UTF-8" standalone="no"?>
<!DOCTYPE svg PUBLIC "-//W3C//DTD SVG 1.1//EN" "http://www.w3.org/Graphics/SVG/1.1/DTD/svg11.dtd">
<svg version="1.1" xmlns="http://www.w3.org/2000/svg" xmlns:xlink="http://www.w3.org/1999/xlink" preserveAspectRatio="xMidYMid meet" viewBox="0 0 640 640" width="640" height="640"><defs>
    <path fill="#DDDDDD" stroke="#FFFFFF" stroke-width="0.5" stroke-miterlimit="10" d="M83.86 159.38L82.01 147.02L84.75 142.42L91.18 141.51L92.09 119.07L117.76 119.07L117.3 103.5L83.36 103.05L80.18 109.9L77.44 114.5L71.93 116.81L70.56 123.23L68.28 129.2L63.68 134.71L58.63 140.67L55.89 150.75L52.71 154.41L53.17 160.75L53.17 160.75L83.86 159.38Z" id="b1VYtvc6pB"></path>
    <path title="egypt" fill="#DDDDDD" stroke="#FFFFFF" stroke-width="0.5" stroke-miterlimit="10" d="M455.65 73.7L448.9 75.22L444 74.61L439.1 72.18L438.18 69.43L433.28 71.29L429.63 73.14L428.1 70.4L423.51 73.44L417.39 77.1L412.18 74.36L405.76 74.36L400.25 71.92L392.91 69.76L389.59 70.37L386.54 70.07L385.63 68.82L383.77 70.98L384.08 73.42L385.32 75.58L384.71 79.23L383.47 81.09L385.32 86.6L385.93 90.25L385.63 155.32L432.98 155.32L432.98 153.16L435.41 153.47L435.41 155.63L450.7 155.32L452.55 156.57L456.21 156.57L458.36 152.91L461.41 152.3L464.15 147.71L466.59 147.4L469.64 144.96L468.11 139.15L470.86 137.63L465.96 134.3L458.31 119.93L455.57 114.42L455.27 110.16L452.83 106.83L452.83 103.81L447.32 97.39L445.16 90.38L444.55 86.72L444.55 82.46L446.99 87.36L448.84 92.87L451.89 98.38L457.4 103.88L459.84 103.88L460.45 100.23L461.36 96.24L463.8 90.73L464.41 87.99L463.16 81.24L459.99 73.6L461.46 69.43L461.46 69.43L461.46 69.43L455.65 73.7Z" id="e1SggwKWMB" ></path>
    <path fill="#DDDDDD" stroke="#FFFFFF" stroke-width="0.5" stroke-miterlimit="10" d="M380.37 65.88L372.12 64.51L369.38 60.4L361.13 57.22L350.59 58.14L346 63.64L346 71.9L343.71 77.41L337.29 82L331.32 76.95L314.39 73.77L307.97 70.6L307.97 64.63L299.71 60.52L291.46 58.67L285.04 58.67L278.62 56.36L277.7 60.95L267.62 67.38L267.17 77.91L262.11 78.83L261.66 82L263.51 87.51L266.25 93.48L265.34 98.99L265.8 104.49L265.8 112.29L261.68 117.34L265.8 121.45L269.91 132.47L274.96 132.47L280.47 138.44L283.21 142.09L294.69 144.84L298.8 148.49L313.93 142.53L376.72 175.07L378.09 170.96L385.88 171.87L385.73 155.4L386.03 90.33L384.51 83.45L383.6 81.14L384.84 79.28L385.45 75.63L383.83 72.2L384.05 70.12L385.73 68.77L385.73 68.77L380.37 65.88Z" id="bJ01nDjWm"></path>
    <path fill="#DDDDDD" stroke="#FFFFFF" stroke-width="0.5" stroke-miterlimit="10" d="M258.99 63.16L253.48 59.05L252.11 54.94L247.52 45.34L253.48 36.63L253.03 22.87L252.11 20.13L253.03 18.76L257.14 16.91L260.31 15.05L265.82 14.14L268.11 17.31L272.7 19.62L271.33 22.8L270.87 27.39L274.99 33.36L272.7 37.47L268.11 41.13L263.99 44.3L267.17 47.04L272.68 46.13L274.53 49.3L274.99 52.04L274.53 55.22L278.64 56.13L277.73 60.73L267.65 67.15L267.19 77.68L262.16 78.73L262.16 78.73L258.99 63.16Z" id="cOw1BswfI"></path>
    <path fill="#DDDDDD" stroke="#FFFFFF" stroke-width="0.5" stroke-miterlimit="10" d="M232.41 173.12L281.43 140.11L275.01 132.32L269.96 132.32L265.85 121.3L261.73 117.19L265.85 112.14L265.39 98.83L266.3 93.32L261.71 81.85L262.16 78.67L258.99 63.11L253.48 59L247.52 45.24L253.48 36.53L253.03 22.77L252.11 20.03L248.46 17.72L242.03 16.8L236.52 17.26L231.01 18.17L223.22 18.17L217.25 16.8L211.29 18.66L204.43 20.03L197.55 20.94L191.59 22.8L185.16 28.3L178.74 28.3L170.95 35.16L174.12 40.67L175.49 54.89L178.66 57.2L177.75 62.71L167.21 64.56L164.04 67.3L158.53 68.67L158.99 74.64L148.91 80.15L144.8 85.2L137.92 87.51L135.17 91.17L131.06 89.31L122.81 93.91L117.76 96.65L118.21 108.56L200.7 165.4L202.55 168.57L212.15 172.23L212.68 179.08L212.68 179.08L232.41 173.12Z" id="b5JhM7OhsT"></path>
    <path fill="#DDDDDD" stroke="#FFFFFF" stroke-width="0.5" stroke-miterlimit="10" d="M83.38 103.02L94.4 98.43L99.45 93.83L106.33 91.09L108.19 81.49L108.19 71.41L110.93 65.9L114.1 62.73L113.19 60.42L119.61 53.08L126.03 49.91L133.83 45.31L137 38.43L139.29 29.27L141.57 28.36L145.23 32.47L148.88 34.78L154.39 34.32L158.5 34.78L163.56 35.24L170.89 35.24L174.07 40.74L175.44 54.96L178.61 57.27L177.7 62.78L167.16 64.63L162.57 67.81L158.45 68.72L158.91 74.69L148.83 80.2L144.72 85.25L137.84 87.56L135.1 91.22L130.98 89.36L117.68 96.7L117.33 103.48L117.33 103.48L83.38 103.02Z" id="a25oWSashM"></path>
    <path fill="#DDDDDD" stroke="#FFFFFF" stroke-width="0.5" stroke-miterlimit="10" d="M113.69 207.95L117.81 208.87L145.76 208.41L146.22 202.9L143.48 201.53L136.59 128.21L145.76 127.75L118.24 108.48L117.78 119.02L92.11 119.02L91.2 141.46L84.78 142.37L82.04 146.97L83.89 159.33L53.19 160.7L53.19 163.88L55.05 171.21L54.59 174.87L55.96 178.98L58.7 182.16L58.7 188.58L57.33 195L55.48 200.97L62.82 200.51L68.78 200.06L72.44 203.23L77.49 204.14L80.66 208.26L88.46 215.59L92.11 213.74L96.23 208.23L100.34 210.54L104.45 208.69L109.1 210.26L109.1 210.26L113.69 207.95Z" id="g17ZF5EeK7"></path>
    <path fill="#DDDDDD" stroke="#FFFFFF" stroke-width="0.5" stroke-miterlimit="10" d="M95.82 223.06L97.19 227.17L98.11 234.51L106.36 238.16L110.95 234.05L114.61 234.05L119.66 240.02L119.2 245.53L126.06 248.7L132.94 250.07L136.59 246.41L138.45 250.07L143.04 247.33L143.5 242.28L145.35 237.68L150.41 234.51L153.15 227.65L156.32 224L159.98 224.45L169.57 219.4L180.11 211.15L190.65 211.15L203.95 212.06L214.97 209.75L216.82 205.16L220.48 195.56L220.93 194.19L221.39 176.8L212.68 179.11L212.23 172.23L202.63 168.57L200.78 165.4L145.79 127.83L136.62 128.28L143.48 201.6L146.22 202.98L144.36 208.48L115.95 208.48L113.67 208.03L107.7 210.77L104.53 208.92L99.02 211.23L96.28 208.48L92.17 213.99L88.51 215.85L90.77 218.94L90.77 218.94L95.82 223.06Z" id="d1c0lIi7jK"></path>
    <path fill="#DDDDDD" stroke="#FFFFFF" stroke-width="0.5" stroke-miterlimit="10" d="M190.65 221.71L194.3 225.37L195.67 229.02L205.27 232.68L205.73 234.53L208.47 234.99L213.98 239.58L214.89 232.73L220.4 226.31L222.25 221.71L238.27 222.63L241.93 227.68L251.1 226.31L261.17 230.9L271.25 226.79L279.96 225.42L286.39 226.79L294.18 221.74L297.84 212.57L308.85 197.9L309.31 177.71L313.42 169.46L307.46 157.99L306.09 146.51L298.75 148.37L294.64 144.71L283.16 141.97L281.31 140.11L232.28 173.12L221.26 176.77L220.81 194.17L214.84 209.73L205.24 212.04L190.57 211.12L190.19 213.46L190.19 213.46L190.65 221.71Z" id="aoDTuvmrb"></path>
    <path fill="#DDDDDD" stroke="#FFFFFF" stroke-width="0.5" stroke-miterlimit="10" d="M299.23 228.13L302.41 229.99L305.58 238.7L306.49 246.95L309.67 251.06L298.65 252.91L299.56 258.88L306.44 262.99L310.55 271.24L317.89 271.7L320.63 272.61L336.2 268.5L337.11 262.08L346.71 260.71L352.67 256.11L356.79 250.15L361.84 245.09L370.09 244.18L365.98 240.07L365.06 231.36L359.55 229.51L364.15 223.54L363.24 218.49L368.29 211.63L370.14 206.12L376.56 206.58L376.56 174.97L313.78 142.42L305.98 146.54L307.36 158.01L313.32 169.49L309.21 177.74L308.75 197.92L297.73 212.6L294.08 221.76L295.12 223.08L295.12 223.08L299.23 228.13Z" id="a4mqT1FF5h"></path>
    <path fill="#DDDDDD" stroke="#FFFFFF" stroke-width="0.5" stroke-miterlimit="10" d="M482.13 217.12L486.04 219.63L489.21 216.46L492.39 218.97L498.35 217.6L500.86 219.45L505.69 220.82L510.97 225.42L514.14 227.93L517.32 227.7L523.99 232.3L527.42 231.38L520.74 225.16L516.15 220.8L509.27 214.58L504.72 212.5L503.56 209.75L501.04 208.84L498.53 201.5L495.79 191.65L492.61 187.74L486.19 192.79L484.34 193.96L482.97 194.88L477.69 211.35L477.08 217.57L477.08 217.57L482.13 217.12Z" id="a71P77dZE"></path>
    <path fill="#DDDDDD" stroke="#FFFFFF" stroke-width="0.5" stroke-miterlimit="10" d="M472.71 291.81L473.42 297.77L482.13 297.77L490.38 304.2L502.74 305.82L504.37 302.17L510.79 298.05L512.87 301.48L518.15 302.4L521.81 299.88L525.92 299.17L532.14 294.8L543.16 294.09L568.6 269.34L560.12 269.8L535.14 259.95L527.12 251.24L527.34 244.36L522.98 244.13L521.12 245.5L519.96 238.16L522.04 231.74L517.44 227.63L514.27 227.86L505.56 221.43L500.97 219.35L498.45 217.5L492.49 218.87L489.31 216.35L486.14 219.53L482.23 217.01L477.18 217.47L475.32 229.38L471.21 230.75L466.16 239.46L465.25 245.88L459.28 247.25L456.11 264.64L451.74 265.56L451.74 271.07L456.11 272.92L463.67 281.4L467.89 290.44L467.89 290.44L472.71 291.81Z" id="c95sm9I3A"></path>
    <path fill="#DDDDDD" stroke="#FFFFFF" stroke-width="0.5" stroke-miterlimit="10" d="M527.24 244.43L522.88 244.21L521.02 245.58L520.31 238.9L521.94 231.79L524.02 232.25L527.45 231.33L529.96 235.7L529.73 240.75L529.99 242.12L529.99 242.12L527.24 244.43Z" id="aTxX3ELv7"></path>
    <path fill="#DDDDDD" stroke="#FFFFFF" stroke-width="0.5" stroke-miterlimit="10" d="M534.78 248.06L540.75 251.24L547.17 250.53L551.77 247.79L557.99 248.5L563.27 244.59L567.38 245.04L573.6 244.13L583.45 242.96L588.05 238.85L593.56 239.76L592.64 242.94L592.64 248.67L594.73 250.76L591.07 252.13L590.61 256.72L589.24 262.46L586.73 263.37L581.9 271.4L576.85 280.56L573.42 288.81L567.92 294.09L567.2 298.69L550.5 314.94L541.79 319.76L531.03 327.78L524.81 335.58L517.47 345.17L512.87 338.07L513.58 308.95L518.18 305.04L518.18 302.29L521.84 299.78L525.95 299.07L531 295.16L542.45 294.25L568.58 269.26L560.1 269.72L535.11 259.87L527.09 251.16L527.32 244.31L530.06 242L531.81 244.15L531.81 244.15L531.81 244.15L534.78 248.06Z" id="b4ksbG2RME"></path>
    <path fill="#DDDDDD" stroke="#FFFFFF" stroke-width="0.5" stroke-miterlimit="10" d="M461.28 308.54L464.46 314.96L464.46 321.82L455.98 330.98L456.21 340.58L487.36 357.51L487.36 361.42L499.27 369.45L504.55 361.19L510.51 350.18L517.39 345.12L512.8 338.01L513.71 309.61L518.08 305.01L518.08 302.27L512.8 301.35L510.72 297.93L504.29 302.04L502.67 305.7L490.3 304.07L482.05 297.65L473.34 297.65L472.63 291.68L467.81 290.31L457.5 299.25L460.12 303.49L460.12 303.49L461.28 308.54Z" id="a5c7zbBIuC"></path>
    <path fill="#DDDDDD" stroke="#FFFFFF" stroke-width="0.5" stroke-miterlimit="10" d="M428.51 341.29L455.55 340.12L456 330.96L464.48 321.79L464.71 315.83L461.06 309.15L460.14 303.41L457.63 299.3L451.41 303.64L433.56 305.01L431.48 305.24L431.71 313.26L435.62 314.89L433.54 317.86L422.29 329.54L423 343.8L423 343.8L428.51 341.29Z" id="b1MWDcp1Mr"></path>
    <path fill="#DDDDDD" stroke="#FFFFFF" stroke-width="0.5" stroke-miterlimit="10" d="M417.46 350.94L418.84 356.45L421.12 355.99L422.97 356.22L425.06 352.11L431.73 351.39L431.73 346.11L428.56 341.29L422.82 344.46L418.84 346.57L418.84 346.57L417.46 350.94Z" id="cdwhL1fdt"></path>
    <path fill="#DDDDDD" stroke="#FFFFFF" stroke-width="0.5" stroke-miterlimit="10" d="M420.66 368.58L423.84 368.35L430.95 361.25L430.72 357.82L429.8 355.51L431.66 351.39L424.98 352.11L422.9 356.22L421.04 355.99L418.76 356.45L418.38 359.19L418.38 359.19L420.66 368.58Z" id="c16MHcZUYg"></path>
    <path fill="#DDDDDD" stroke="#FFFFFF" stroke-width="0.5" stroke-miterlimit="10" d="M422.11 378.89L422.34 383.94L428.31 389.91L431.48 399.3L440.19 404.58L448.67 406.21L458.06 409.64L460.57 413.75L462.43 423.34L468.16 423.34L473.67 422.18L475.05 424.26L486.72 423.55L489.24 420.37L492.41 422.68L497.01 420.37L508.68 418.06L502.26 411.39L502.03 405.65L499.06 399.91L498.83 391.89L500.92 388.23L494.49 382.95L496.78 376.53L499.29 369.42L487.38 361.4L487.38 357.49L455.55 340.1L428.56 341.26L431.73 346.09L431.73 351.37L429.88 355.48L431.05 361.22L423.94 368.33L420.77 368.56L420.26 372.47L420.26 372.47L422.11 378.89Z" id="a2Nvh0KSJ6"></path>
    <path fill="#DDDDDD" stroke="#FFFFFF" stroke-width="0.5" stroke-miterlimit="10" d="M305.4 279.9L302.96 284.8L301.11 284.8L303.55 292.14L307.53 299.15L308.45 304.96L315.78 311.38L321.6 302.22L333.84 303.13L335.36 299.15L341.17 291.5L350.92 295.77L365.9 299.09L368.95 294.19L376.28 296.05L381.49 292.39L384.23 293.64L391.24 290.89L395.5 292.75L400.71 291.5L407.89 294.53L406.98 289.47L400.12 283.96L398.27 277.54L390.02 274.8L386.69 272.21L384.99 267.49L379.48 266.57L378.57 261.98L375.4 261.06L375.4 251.9L370.57 247.79L369.58 243.8L362.83 244.71L355.82 252.36L351.84 256.95L346.94 260.61L337.34 261.98L336.43 268.4L320.86 272.51L317.38 271.27L311.88 271.57L309.67 272.56L309.67 272.56L305.4 279.9Z" id="diPA8OU1A"></path>
    <path fill="#DDDDDD" stroke="#FFFFFF" stroke-width="0.5" stroke-miterlimit="10" d="M55.48 209.65L50.27 213.31L54.26 223.06L62.82 223.06L68.02 221.2L71.68 224.53L75.66 225.14L75.36 226.38L69.54 226.38L66.5 225.14L57.94 227.3L53.04 227.91L52.43 234.02L62.51 233.42L67.11 230.67L81.17 230.98L86.99 233.14L98.16 234.51L97.7 228.85L95.85 223.03L91.58 219.99L88.54 215.72L79.67 208.08L77.82 205.03L73.23 203.51L68.78 200.18L55.48 201.1L55.78 204.75L55.78 204.75L55.48 209.65Z" id="bnPL96vWY"></path>
    <path fill="#DDDDDD" stroke="#FFFFFF" stroke-width="0.5" stroke-miterlimit="10" d="M59.47 237.45L62.79 238.98L64.31 245.98L67.06 243.55L70.71 239.28L75.92 238.37L75.61 235.04L78.05 231.38L67.03 230.78L62.44 233.52L52.36 234.13L54.26 235.6L54.26 235.6L54.26 235.6L59.47 237.45Z" id="dMjckIRt6"></path>
    <path fill="#DDDDDD" stroke="#FFFFFF" stroke-width="0.5" stroke-miterlimit="10" d="M53.02 227.98L65.53 225.24L70.43 226.15L75.33 226.46L75.64 225.22L71.65 224.61L68 221.28L64.34 223.13L54.29 223.13L54.29 223.11L54.26 223.08L54.26 223.08L54.26 223.08L53.02 227.98Z" id="c3prH2cOb"></path>
    <path fill="#DDDDDD" stroke="#FFFFFF" stroke-width="0.5" stroke-miterlimit="10" d="M68.61 245.4L70.46 249.66L74.44 253.93L77.77 255.78L79.01 259.44L83.91 260.05L86.96 255.78L89.7 253.04L93.36 253.65L96.41 251.21L97.93 252.13L101.91 261.6L101.31 266.19L105.9 264.34L109.23 264.64L111.97 270.76L112.27 273.5L115.93 273.5L119.91 270.76L122.66 268.02L123.27 264.36L126.31 263.12L124.15 255.48L122.91 251.21L124.76 249.36L119.1 245.55L119.56 240.04L114.51 234.08L110.85 234.08L106.26 238.19L98 234.53L86.83 233.16L81.02 231L77.97 231.31L75.54 234.96L75.84 238.29L70.64 239.2L64.21 245.96L65.86 246.92L65.86 246.92L68.61 245.4Z" id="a4IjSUKaTv"></path>
    <path fill="#DDDDDD" stroke="#FFFFFF" stroke-width="0.5" stroke-miterlimit="10" d="M97.62 273.15L101.89 270.13L104.05 267.97L104.35 265.53L101.61 265.53L101.91 261.55L97.93 252.08L96.41 251.16L93.08 254.21L89.75 252.96L87.01 255.71L83.97 259.97L80.31 259.97L80.31 264.87L82.47 268.53L84.9 269.77L86.15 274.67L93.97 279.9L93.97 279.9L97.62 273.15Z" id="eBVGXMxrI"></path>
    <path fill="#DDDDDD" stroke="#FFFFFF" stroke-width="0.5" stroke-miterlimit="10" d="M153.55 254.51L155.08 252.99L161.5 253.6L164.83 257.26L164.52 244.1L183.46 243.49L186.2 242.89L190.19 244.13L195.39 244.43L198.72 241.39L202.99 240.78L206.03 235.88L205.24 232.7L195.65 229.05L194.28 225.39L190.62 221.74L189.83 211.2L180.08 211.2L170.34 219.45L159.95 224.5L156.3 224.05L153.25 227.07L150.2 235.32L145.3 237.76L143.45 242.35L142.99 247.4L147.13 251.19L147.13 251.19L147.13 251.19L153.55 254.51Z" id="lnYb5sYXb"></path>
    <path fill="#DDDDDD" stroke="#FFFFFF" stroke-width="0.5" stroke-miterlimit="10" d="M124.23 283.84L129.13 288.1L127.61 296.05L126.69 298.79L114.79 294.53L108.97 289.02L102.85 284.12L98.59 281.96L93.99 279.8L97.65 273.05L104.07 267.84L104.38 265.4L109.28 264.49L112.02 270.61L112.32 273.35L115.98 273.35L119.03 271.5L120.55 276.7L120.24 279.44L118.11 281.4L118.11 281.4L124.23 283.84Z" id="bUxvkEZaj"></path>
    <path fill="#DDDDDD" stroke="#FFFFFF" stroke-width="0.5" stroke-miterlimit="10" d="M143.48 292.7L156.3 292.39L162.72 291.78L165.16 291.17L164.85 286.58L161.81 279.24L164.85 270.38L166.71 263.37L164.85 257.26L162.41 253.93L155.08 253.02L153.55 254.54L143.02 247.35L138.42 250.1L136.57 246.44L132.13 250.25L124.79 249.33L122.94 251.19L126.26 263.09L123.22 264.34L122.61 267.99L118.95 271.65L120.47 276.85L120.17 279.6L118.01 281.45L129.03 287.26L126.59 298.87L131.87 298.21L131.87 298.21L131.87 298.21L143.48 292.7Z" id="a1ltNC5Kc6"></path>
    <path fill="#DDDDDD" stroke="#FFFFFF" stroke-width="0.5" stroke-miterlimit="10" d="M188.64 257.28L190.8 256.98L190.8 264.31L191.71 273.17L192.32 278.68L196.59 283.89L193.85 286.93L186.2 287.85L179.2 291.5L173.69 293.36L169.09 295.52L166.05 293.66L160.54 292.14L165.13 291.22L164.83 286.63L161.78 279.29L166.68 263.4L164.83 257.28L164.52 244.13L183.46 243.52L186.2 242.91L187.45 245.96L189.25 249.33L189.25 249.33L188.64 257.28Z" id="b3PpNnVNZm"></path>
    <path fill="#DDDDDD" stroke="#FFFFFF" stroke-width="0.5" stroke-miterlimit="10" d="M198.16 254.82L200.01 264.29L201.26 278.35L202.17 282.01L196.66 283.86L192.4 278.66L190.87 258.17L188.72 257.26L189.63 249.92L186.3 242.91L193.95 244.76L193.57 247.81L193.57 247.81L198.16 254.82Z" id="h1OyKfOUIE"></path>
    <path fill="#DDDDDD" stroke="#FFFFFF" stroke-width="0.5" stroke-miterlimit="10" d="M209.13 259.44L214.64 253.32L216.49 246.9L217.41 246.9L214.08 239.56L208.57 234.96L205.83 234.51L203.98 240.47L198.77 241.39L195.11 245.37L193.87 244.76L193.57 247.79L198.16 254.79L199.68 262.43L201.21 277.72L202.12 281.98L209.43 281.12L209.43 281.12L209.13 259.44Z" id="e8haenUe6"></path>
    <path fill="#DDDDDD" stroke="#FFFFFF" stroke-width="0.5" stroke-miterlimit="10" d="M227.76 288.79L229.29 298.54L239.95 298.84L250.61 296.4L253.13 294.88L256.68 292.7L258.53 285.36L268.61 276.19L277.17 280.46L284.81 266.09L288.8 261.19L291.84 254.77L294.28 249.26L297.02 243.75L301.29 241.01L300.37 234.89L298.85 227.25L293.65 222.65L286.31 226.64L279.89 225.27L271.33 227.58L261.25 231.56L251.04 226.21L242.64 227.27L238.2 222.55L222.18 221.64L220.38 226.21L214.87 232.63L213.95 239.48L217 245.6L214.56 253.24L209.97 258.75L209.36 281.04L220.76 282.03L220.76 282.03L227.76 288.79Z" id="b3El5hJhQ6"></path>
    <path fill="#DDDDDD" stroke="#FFFFFF" stroke-width="0.5" stroke-miterlimit="10" d="M263.82 314.73L302.63 315.04L310.58 317.2L315.48 319.63L315.18 315.65L315.78 311.38L308.45 304.96L307.84 300.06L301.09 284.78L302.94 284.78L310.73 271.17L306.92 263.7L299.74 258.8L298.83 252.84L309.84 250.98L306.67 246.87L305.43 237.4L302.53 229.94L299.64 228.87L301.49 241.11L297.23 243.85L288.97 262.18L284.99 266.17L277.35 280.54L269.71 276.55L258.69 285.41L256.83 292.75L252.57 295.49L254.42 299.15L255.94 297.9L258.1 301.89L263 300.64L261.76 304.91L263.51 306.48L263.51 306.48L263.82 314.73Z" id="bv3wCZ0EN"></path>
    <path fill="#DDDDDD" stroke="#FFFFFF" stroke-width="0.5" stroke-miterlimit="10" d="M276.03 325.45L267.17 324.53L265.92 326.97L263.18 325.12L260.13 323.87L263.79 314.71L277.27 315.06L277.27 315.06L276.03 325.45Z" id="b1TQnMlI4x"></path>
    <path fill="#DDDDDD" stroke="#FFFFFF" stroke-width="0.5" stroke-miterlimit="10" d="M292.55 323.32L301.11 322.07L300.81 326.67L298.65 329.99L297.4 333.32L298.32 336.64L302.3 337.89L301.39 348.91L298.34 352.23L294.69 350.99L290.09 350.99L285.5 347.33L285.19 351.93L280.93 351.01L278.49 352.87L279.73 357.46L282.17 358.38L280.65 362.97L276.66 362.67L274.5 364.52L258.94 348.04L254.95 339.49L259.22 337.05L258.92 328.8L263.18 325.14L265.03 327L267.19 324.56L276.05 325.47L277.3 315.09L292.02 315.09L292.02 315.06L291.95 315.06L291.95 315.06L291.95 315.06L291.95 315.06L291.95 315.06L292.55 323.32Z" id="ajWbpO2Ah"></path>
    <path fill="#DDDDDD" stroke="#FFFFFF" stroke-width="0.5" stroke-miterlimit="10" d="M333.48 308.01L329.49 319.91L326.45 327.86L326.45 335.5L313.93 350.18L313.63 361.19L304.77 370.36L300.78 366.7L296.19 369.45L292.53 371.6L289.79 371.6L287.05 375.59L283.72 378.92L283.72 383.18L290.73 380.44L292.88 377.7L298.09 380.13L317.97 379.83L320.71 391.15L326.83 396.05L341.2 395.75L341.5 392.42L340.89 389.4L350.06 387.88L350.06 391.86L360.14 391.25L359.53 395.24L361.05 402.58L358.61 408.09L363.51 416.03L363.82 419.08L376.97 420.6L380.02 420.6L380.93 422.46L385.53 420.6L389.79 423.93L398.35 427.25L401.39 424.21L406.6 428.19L409.04 430.05L412.08 433.07L416.98 437.33L422.19 437.94L424.04 436.42L423.13 428.17L417.62 431.22L413.35 427.56L412.11 423.29L413.96 416.29L414.27 410.78L413.66 407.73L416.98 401.61L429.8 398.57L431.58 399.4L428.41 390.01L422.44 384.04L422.21 378.99L420.36 372.57L420.82 368.66L418.53 359.26L418.99 356.52L417.62 351.01L418.86 347.54L422.92 344.64L423.15 329.51L435.77 315.06L432.67 313.29L432.06 306.28L432.98 304.76L423.68 296.51L415.28 298.94L400.91 291.61L395.71 292.85L391.44 291L384.43 293.74L381.69 292.49L376.49 296.15L369.15 294.3L366.1 299.2L351.13 295.87L341.05 292.21L335.54 299.22L333.79 303.11L333.79 303.11L333.48 308.01Z" id="c4IYWpZjS2"></path>
    <path fill="#DDDDDD" stroke="#FFFFFF" stroke-width="0.5" stroke-miterlimit="10" d="M332.9 303.11L333.51 308.01L326.5 328.77L326.5 335.53L313.98 350.2L313.68 361.22L304.82 370.38L299.92 366.73L292.58 371.63L289.84 371.63L289.84 368.58L287.1 368.28L281.28 372.87L278.54 368.61L274.55 364.62L276.71 362.77L280.7 363.07L281.94 359.09L279.78 357.56L278.54 352.97L280.98 351.12L285.24 352.03L286.49 347.76L289.81 350.2L294.71 351.12L298.37 352.36L301.42 349.03L302.33 338.01L298.34 336.77L297.43 333.45L298.67 330.12L300.83 326.79L301.14 322.2L292.58 323.44L291.97 315.19L302.63 315.19L310.58 317.35L315.48 319.79L315.18 315.8L315.78 311.54L321.57 302.19L321.57 302.19L332.9 303.11Z" id="l502Gt7AJ"></path>
    <path fill="#DDDDDD" stroke="#FFFFFF" stroke-width="0.5" stroke-miterlimit="10" d="M375.93 426.85L376.54 431.75L375.62 435.4L360.95 434.79L361.56 463.2L365.82 466.53L369.81 469.27L371.05 471.71L383.57 471.1L385.73 473.54L399.16 475.7L410.18 465.95L414.44 464.7L416.3 458.28L425.46 455.23L424.55 452.21L448.69 443.35L447.45 439.09L448.97 433.27L451.41 431.42L451.41 421.95L454.73 417.35L448.62 406.11L440.14 404.48L429.68 398.36L416.86 401.41L413.53 407.53L414.14 411.79L414.14 418.22L411.98 423.12L413.22 426.44L417.49 431.04L422.69 428.88L423.94 436.22L422.42 437.13L416.91 437.13L408.96 429.79L401.32 423.98L398.27 427.03L389.72 423.7L385.45 420.37L380.85 422.23L379.94 420.37L375.93 420.43L375.93 420.43L375.93 420.43L375.93 426.85Z" id="aWlbtQw0g"></path>
    <path fill="#DDDDDD" stroke="#FFFFFF" stroke-width="0.5" stroke-miterlimit="10" d="M461.18 454.67L459.94 461.1L464.53 466.3L466.06 469.32L467.91 461.99L470.35 459.24L471.87 448.86L463.62 439.69L460.57 434.19L462.43 423.32L460.57 413.72L458.06 409.61L448.67 406.18L453.87 416.49L451.43 422L451.43 431.47L449 433.32L447.47 439.14L448.72 443.4L452.37 446.14L454.23 448.89L457.27 447.64L460.27 447.92L460.27 447.92L461.18 454.67Z" id="c57POsUdF"></path>
    <path fill="#DDDDDD" stroke="#FFFFFF" stroke-width="0.5" stroke-miterlimit="10" d="M429.42 459.83L436.76 460.13L442.27 463.18L446.53 465.03L448.39 472.04L448.39 480.9L445.65 483.95L448.39 488.21L448.69 493.42L445.04 499.84L442.29 505.65L435.54 515.12L439.53 521.24L438.92 526.14L443.51 539.57L442.27 545.39L442.88 552.39L447.78 551.78L447.17 546.88L445.92 546.58L447.78 542.31L456.33 539.57L464.89 534.06L466.74 524.31L467.66 510.88L464 508.45L463.7 501.69L460.04 496.79L461.89 491.89L468.32 489.15L472.58 483.95L477.48 483.64L479.01 476.3L488.48 471.71L497.34 468.97L501.6 464.7L506.81 458.58L511.07 452.47L510.46 447.26L509.22 444.52L508.3 428.96L507.69 422.84L508.76 418.01L497.08 420.32L492.49 422.63L489.31 420.32L486.8 423.5L474.44 423.73L473.72 422.1L468.22 423.27L462.48 423.27L460.62 434.13L463.67 439.64L471.92 448.81L470.4 460.13L467.96 462.87L466.11 469.3L463.37 465.64L460.04 461.05L461.28 454.62L460.37 447.87L457.32 447.57L454.28 448.81L452.42 446.07L448.77 443.33L425.56 452.49L425.56 455.23L427.26 455.84L427.26 455.84L429.42 459.83Z" id="i1iHYVraD2"></path>
    <path fill="#DDDDDD" stroke="#FFFFFF" stroke-width="0.5" stroke-miterlimit="10" d="M572.69 435.38L571.77 439.03L564.44 439.95L565.05 446.37L562 450.64L558.67 454.62L553.16 457.06L555.6 461.66L550.09 459.8L541.54 461.33L538.79 462.85L539.4 466.17L535.14 471.38L535.75 479.63L537.6 486.05L540.34 492.17L537.6 497.99L534.86 502.25L532.42 505.91L529.38 509.89L530.9 520.91L534.89 524.9L532.45 529.8L537.04 536.22L541.31 539.24L545.57 543.51L550.17 539.85L556.29 539.24L562.1 533.43L566.37 517.53L572.79 495.24L579.21 477.55L579.82 470.21L581.35 465.31L581.04 458.89L582.28 456.73L584.14 459.78L586.3 455.79L585.69 448.78L584.77 440.23L580.51 432.28L577.28 428.37L577.28 428.37L572.69 435.38Z" id="a1zuOS8JeF"></path>
    <path fill="#DDDDDD" stroke="#FFFFFF" stroke-width="0.5" stroke-miterlimit="10" d="M388.47 478.46L390.63 479.99L393.96 487.93L396.11 491.59L401.32 493.44L404.97 496.49L407.72 498.65L408.02 503.24L414.77 507.51L418.76 510.55L426.1 510.86L435.57 515.12L443.21 504.46L448.72 493.44L448.41 488.24L445.67 483.97L448.41 479.71L448.41 472.06L446.56 465.06L436.81 460.16L429.47 459.85L427.32 455.87L425.46 455.26L416.3 458.3L414.44 464.73L410.18 465.97L399.16 475.72L387.56 474.81L387.56 474.81L388.47 478.46Z" id="a3jQCD5fhK"></path>
    <path fill="#DDDDDD" stroke="#FFFFFF" stroke-width="0.5" stroke-miterlimit="10" d="M286.74 468.97L292.25 468.36L298.37 471.1L330.79 471.1L339.35 474.43L360.75 475.67L371.13 471.68L383.65 471.07L387.63 474.73L383.65 474.73L380.32 476.25L374.2 480.24L370.88 477.19L355.59 479.63L354.07 480.24L354.07 509.89L346.73 510.5L347.04 567.02L342.14 568.26L340.89 570.42L333.25 570.42L325.61 569.5L322.28 564.91L320.43 564.91L317.38 569.17L308.83 560.31L305.17 550.57L303.01 542.01L302.71 535.26L300.55 527.92L300.25 519.67L300.55 516.65L297.51 510.53L294.18 506.87L288.67 494.05L286.51 487.3L280.09 480.87L279.73 470.21L279.73 470.21L286.74 468.97Z" id="jXekAXX1h"></path>
    <path fill="#DDDDDD" stroke="#FFFFFF" stroke-width="0.5" stroke-miterlimit="10" d="M294.33 429.29L290.68 435.71L285.17 442.46L281.84 455.28L278.51 465.03L279.76 470.24L291.36 468.38L298.37 471.13L330.79 471.13L339.35 474.45L360.75 475.7L371.13 471.71L369.89 469.27L362.25 464.07L361 434.74L375.68 435.35L376.59 431.7L375.98 420.37L363.74 418.85L363.44 415.8L358.54 407.86L360.98 402.35L359.45 395.01L360.06 391.03L350.59 391.03L349.98 387.7L340.82 389.22L341.43 392.24L341.12 395.57L328.61 395.87L320.66 390.97L317.92 379.65L298.04 379.96L292.83 377.52L290.68 380.26L283.67 383L288.57 390.34L289.18 394.61L292.5 401.36L289.76 406.56L291.62 415.12L296.19 418.27L296.19 418.27L294.33 429.29Z" id="a18jU6xLBE"></path>
    <path fill="#DDDDDD" stroke="#FFFFFF" stroke-width="0.5" stroke-miterlimit="10" d="M283.69 378.89L287.96 373.99L289.81 371.55L289.81 368.51L287.07 368.2L281.26 372.77L281.26 372.77L283.69 378.89Z" id="bulfXjnEB"></path>
    <path fill="#DDDDDD" stroke="#FFFFFF" stroke-width="0.5" stroke-miterlimit="10" d="M351.96 542.95L351.96 549.8L352.42 552.98L363.87 551.61L365.24 546.55L371.21 539.22L373.49 540.59L384.03 542.44L390.45 542.44L394.11 534.65L396.85 533.73L400.96 524.57L409.21 516.77L414.72 512.66L418.71 510.5L408.05 503.17L407.74 498.57L401.32 493.37L396.11 491.51L390.6 479.91L388.45 478.39L387.53 474.73L383.55 474.73L374.08 480.24L370.75 477.22L353.97 480.24L353.97 509.89L346.63 510.5L346.91 536.98L346.91 536.98L351.96 542.95Z" id="eg2kcq4nd"></path>
    <path fill="#DDDDDD" stroke="#FFFFFF" stroke-width="0.5" stroke-miterlimit="10" d="M369.84 619.44L374.43 618.07L382.68 620.81L387.73 617.64L391.39 615.33L399.64 614.42L405.61 610.76L410.66 606.17L419.37 598.37L425.79 591.03L436.33 574.1L444.58 565.85L447.75 551.78L442.85 552.39L440.42 557.12L431.71 555.74L431.25 549.32L433.99 543.35L441.79 543.35L443.49 539.55L440.01 526.85L438.16 524.11L439.53 521.22L435.54 515.1L426.07 510.83L418.73 510.53L401.04 524.59L396.93 533.76L394.18 534.67L390.53 542.47L380.93 542.01L373.59 540.64L371.31 539.27L365.34 546.6L363.97 551.66L352.52 553.03L352.06 542.95L347.01 536.98L347.01 567.07L342.11 568.31L340.87 570.47L333.23 570.47L325.58 569.56L322.26 564.96L320.41 564.96L317.36 569.23L320.41 576.87L322.69 586.03L327.74 592.89L330.48 599.31L330.03 607.56L326.37 608.48L330.03 614.44L334.62 620.86L341.05 625.46L343.33 626.83L350.67 623.66L358.01 623.2L361.59 619.44L361.59 619.44L361.59 619.44L369.84 619.44Z" id="bEn6OfSYX"></path>
    <path fill="#DDDDDD" stroke="#FFFFFF" stroke-width="0.5" stroke-miterlimit="10" d="M410.2 570.65L407.03 571.56L401.52 577.07L402.89 580.5L405.63 584.86L408.81 587.17L410.43 583.75L414.34 581.89L417.52 580.27L417.97 576.16L418.89 573.19L416.14 570.67L413.38 568.34L413.38 568.34L410.2 570.65Z" id="b7miC5KBT"></path>
    <path fill="#DDDDDD" stroke="#FFFFFF" stroke-width="0.5" stroke-miterlimit="10" d="M442.98 542.44L434.73 543.15L431.76 548.2L431.76 555.77L440.69 556.48L442.93 552.42L442.27 547.04L442.27 547.04L442.98 542.44Z" id="f22pHkDtZ"></path>
    <path fill="#DDDDDD" stroke="#FFFFFF" stroke-width="0.5" stroke-miterlimit="10" d="M382.78 257.69L383.11 254.46L386.54 249.46L392.99 248.83L396.19 254.59L396.75 256.11L400.73 256.54L402.97 255.45L409.31 256.21L410.89 257.64L416.45 257.74L418.35 255.45L422.34 255.78L421.22 252L426.35 250.04L434.55 255.15L437.75 253.83L443.21 246.47L446.74 243.88L445.39 241.92L445.39 237.35L444.05 235.07L448.82 235.17L448.72 233.42L453.26 233.75L452.02 237.43L452.8 245.78L459.03 251.64L458.47 251.42L459.36 246.08L465.42 244.71L466.36 238.57L471.87 229.51L475.71 228.19L477.66 210.85L481.44 201.53L484.36 193.07L488.15 190.76L492.97 187.29L484.69 180.99L483.7 165.48L482.43 159.41L480.58 153.98L474.46 149.43L472.23 146.74L470.93 145.6L468.8 147.07L466.08 147.83L463.32 152.55L460.12 153.16L457.88 156.95L453.9 157.12L451.41 155.75L435.54 155.42L435.16 153.85L434.45 153.62L434.55 155.7L386.06 155.47L386.16 172.26L377.88 171.16L376.72 174.54L376.77 207.88L369.89 206.5L368.36 211.28L363.21 218.13L364.15 223.23L359.93 228.44L364.89 230.01L365.88 239.08L370.14 243.09L370.24 246.82L375.29 250.88L375.29 259.95L378.37 260.81L379.71 265.38L379.71 265.38L382.78 257.69Z" id="a2tvE1UnwB"></path>
    <path fill="#DDDDDD" stroke="#FFFFFF" stroke-width="0.5" stroke-miterlimit="10" d="M382.76 257.59L383.09 254.36L386.52 249.36L392.96 248.72L396.16 254.49L396.72 256.01L400.71 256.44L402.94 255.35L409.29 256.11L410.86 257.53L416.42 257.64L418.33 255.35L422.31 255.68L421.2 251.9L426.33 249.92L434.53 255.02L437.72 253.7L443.18 246.34L446.71 243.75L445.37 241.79L445.37 237.22L444.02 234.94L448.79 235.04L448.69 233.29L453.24 233.62L451.99 237.3L452.78 245.65L459 251.52L458.57 252.33L455.98 265.79L451.21 265.73L453.59 272.28L455.88 273.22L463.42 281.86L468.09 290.79L451.71 304.78L434.2 306.15L423.94 297.37L414.29 299.22L408.5 296.05L407.61 291.12L400.51 285.64L398.5 278.89L389.82 276.12L386.77 272.74L384.71 268.78L379.31 267.79L379.69 265.28L379.69 265.28L382.76 257.59Z" id="aeIfbcNgo"></path></defs><g><g><g><use xlink:href="#b1VYtvc6pB" opacity="1" fill="#000000" fill-opacity="1"></use><g><use xlink:href="#b1VYtvc6pB" opacity="1" fill-opacity="0" stroke="#ffffff" stroke-width="0.5" stroke-opacity="1"></use></g></g><g><use xlink:href="#e1SggwKWMB" opacity="1" fill="#000000" fill-opacity="1"></use><g><use xlink:href="#e1SggwKWMB" opacity="1" fill-opacity="0" stroke="#ffffff" stroke-width="0.5" stroke-opacity="1"></use></g></g><g><use xlink:href="#bJ01nDjWm" opacity="1" fill="#000000" fill-opacity="1"></use><g><use xlink:href="#bJ01nDjWm" opacity="1" fill-opacity="0" stroke="#ffffff" stroke-width="0.5" stroke-opacity="1"></use></g></g><g><use xlink:href="#cOw1BswfI" opacity="1" fill="#000000" fill-opacity="1"></use><g><use xlink:href="#cOw1BswfI" opacity="1" fill-opacity="0" stroke="#ffffff" stroke-width="0.5" stroke-opacity="1"></use></g></g><g><use xlink:href="#b5JhM7OhsT" opacity="1" fill="#000000" fill-opacity="1"></use><g><use xlink:href="#b5JhM7OhsT" opacity="1" fill-opacity="0" stroke="#ffffff" stroke-width="0.5" stroke-opacity="1"></use></g></g><g><use xlink:href="#a25oWSashM" opacity="1" fill="#000000" fill-opacity="1"></use><g><use xlink:href="#a25oWSashM" opacity="1" fill-opacity="0" stroke="#ffffff" stroke-width="0.5" stroke-opacity="1"></use></g></g><g><use xlink:href="#g17ZF5EeK7" opacity="1" fill="#000000" fill-opacity="1"></use><g><use xlink:href="#g17ZF5EeK7" opacity="1" fill-opacity="0" stroke="#ffffff" stroke-width="0.5" stroke-opacity="1"></use></g></g><g><use xlink:href="#d1c0lIi7jK" opacity="1" fill="#000000" fill-opacity="1"></use><g><use xlink:href="#d1c0lIi7jK" opacity="1" fill-opacity="0" stroke="#ffffff" stroke-width="0.5" stroke-opacity="1"></use></g></g><g><use xlink:href="#aoDTuvmrb" opacity="1" fill="#000000" fill-opacity="1"></use><g><use xlink:href="#aoDTuvmrb" opacity="1" fill-opacity="0" stroke="#ffffff" stroke-width="0.5" stroke-opacity="1"></use></g></g><g><use xlink:href="#a4mqT1FF5h" opacity="1" fill="#000000" fill-opacity="1"></use><g><use xlink:href="#a4mqT1FF5h" opacity="1" fill-opacity="0" stroke="#ffffff" stroke-width="0.5" stroke-opacity="1"></use></g></g><g><use xlink:href="#a71P77dZE" opacity="1" fill="#000000" fill-opacity="1"></use><g><use xlink:href="#a71P77dZE" opacity="1" fill-opacity="0" stroke="#ffffff" stroke-width="0.5" stroke-opacity="1"></use></g></g><g><use xlink:href="#c95sm9I3A" opacity="1" fill="#000000" fill-opacity="1"></use><g><use xlink:href="#c95sm9I3A" opacity="1" fill-opacity="0" stroke="#ffffff" stroke-width="0.5" stroke-opacity="1"></use></g></g><g><use xlink:href="#aTxX3ELv7" opacity="1" fill="#000000" fill-opacity="1"></use><g><use xlink:href="#aTxX3ELv7" opacity="1" fill-opacity="0" stroke="#ffffff" stroke-width="0.5" stroke-opacity="1"></use></g></g><g><use xlink:href="#b4ksbG2RME" opacity="1" fill="#000000" fill-opacity="1"></use><g><use xlink:href="#b4ksbG2RME" opacity="1" fill-opacity="0" stroke="#ffffff" stroke-width="0.5" stroke-opacity="1"></use></g></g><g><use xlink:href="#a5c7zbBIuC" opacity="1" fill="#000000" fill-opacity="1"></use><g><use xlink:href="#a5c7zbBIuC" opacity="1" fill-opacity="0" stroke="#ffffff" stroke-width="0.5" stroke-opacity="1"></use></g></g><g><use xlink:href="#b1MWDcp1Mr" opacity="1" fill="#000000" fill-opacity="1"></use><g><use xlink:href="#b1MWDcp1Mr" opacity="1" fill-opacity="0" stroke="#ffffff" stroke-width="0.5" stroke-opacity="1"></use></g></g><g><use xlink:href="#cdwhL1fdt" opacity="1" fill="#000000" fill-opacity="1"></use><g><use xlink:href="#cdwhL1fdt" opacity="1" fill-opacity="0" stroke="#ffffff" stroke-width="0.5" stroke-opacity="1"></use></g></g><g><use xlink:href="#c16MHcZUYg" opacity="1" fill="#000000" fill-opacity="1"></use><g><use xlink:href="#c16MHcZUYg" opacity="1" fill-opacity="0" stroke="#ffffff" stroke-width="0.5" stroke-opacity="1"></use></g></g><g><use xlink:href="#a2Nvh0KSJ6" opacity="1" fill="#000000" fill-opacity="1"></use><g><use xlink:href="#a2Nvh0KSJ6" opacity="1" fill-opacity="0" stroke="#ffffff" stroke-width="0.5" stroke-opacity="1"></use></g></g><g><use xlink:href="#diPA8OU1A" opacity="1" fill="#000000" fill-opacity="1"></use><g><use xlink:href="#diPA8OU1A" opacity="1" fill-opacity="0" stroke="#ffffff" stroke-width="0.5" stroke-opacity="1"></use></g></g><g><use xlink:href="#bnPL96vWY" opacity="1" fill="#000000" fill-opacity="1"></use><g><use xlink:href="#bnPL96vWY" opacity="1" fill-opacity="0" stroke="#ffffff" stroke-width="0.5" stroke-opacity="1"></use></g></g><g><use xlink:href="#dMjckIRt6" opacity="1" fill="#000000" fill-opacity="1"></use><g><use xlink:href="#dMjckIRt6" opacity="1" fill-opacity="0" stroke="#ffffff" stroke-width="0.5" stroke-opacity="1"></use></g></g><g><use xlink:href="#c3prH2cOb" opacity="1" fill="#000000" fill-opacity="1"></use><g><use xlink:href="#c3prH2cOb" opacity="1" fill-opacity="0" stroke="#ffffff" stroke-width="0.5" stroke-opacity="1"></use></g></g><g><use xlink:href="#a4IjSUKaTv" opacity="1" fill="#000000" fill-opacity="1"></use><g><use xlink:href="#a4IjSUKaTv" opacity="1" fill-opacity="0" stroke="#ffffff" stroke-width="0.5" stroke-opacity="1"></use></g></g><g><use xlink:href="#eBVGXMxrI" opacity="1" fill="#000000" fill-opacity="1"></use><g><use xlink:href="#eBVGXMxrI" opacity="1" fill-opacity="0" stroke="#ffffff" stroke-width="0.5" stroke-opacity="1"></use></g></g><g><use xlink:href="#lnYb5sYXb" opacity="1" fill="#000000" fill-opacity="1"></use><g><use xlink:href="#lnYb5sYXb" opacity="1" fill-opacity="0" stroke="#ffffff" stroke-width="0.5" stroke-opacity="1"></use></g></g><g><use xlink:href="#bUxvkEZaj" opacity="1" fill="#000000" fill-opacity="1"></use><g><use xlink:href="#bUxvkEZaj" opacity="1" fill-opacity="0" stroke="#ffffff" stroke-width="0.5" stroke-opacity="1"></use></g></g><g><use xlink:href="#a1ltNC5Kc6" opacity="1" fill="#000000" fill-opacity="1"></use><g><use xlink:href="#a1ltNC5Kc6" opacity="1" fill-opacity="0" stroke="#ffffff" stroke-width="0.5" stroke-opacity="1"></use></g></g><g><use xlink:href="#b3PpNnVNZm" opacity="1" fill="#000000" fill-opacity="1"></use><g><use xlink:href="#b3PpNnVNZm" opacity="1" fill-opacity="0" stroke="#ffffff" stroke-width="0.5" stroke-opacity="1"></use></g></g><g><use xlink:href="#h1OyKfOUIE" opacity="1" fill="#000000" fill-opacity="1"></use><g><use xlink:href="#h1OyKfOUIE" opacity="1" fill-opacity="0" stroke="#ffffff" stroke-width="0.5" stroke-opacity="1"></use></g></g><g><use xlink:href="#e8haenUe6" opacity="1" fill="#000000" fill-opacity="1"></use><g><use xlink:href="#e8haenUe6" opacity="1" fill-opacity="0" stroke="#ffffff" stroke-width="0.5" stroke-opacity="1"></use></g></g><g><use xlink:href="#b3El5hJhQ6" opacity="1" fill="#000000" fill-opacity="1"></use><g><use xlink:href="#b3El5hJhQ6" opacity="1" fill-opacity="0" stroke="#ffffff" stroke-width="0.5" stroke-opacity="1"></use></g></g><g><use xlink:href="#bv3wCZ0EN" opacity="1" fill="#000000" fill-opacity="1"></use><g><use xlink:href="#bv3wCZ0EN" opacity="1" fill-opacity="0" stroke="#ffffff" stroke-width="0.5" stroke-opacity="1"></use></g></g><g><use xlink:href="#b1TQnMlI4x" opacity="1" fill="#000000" fill-opacity="1"></use><g><use xlink:href="#b1TQnMlI4x" opacity="1" fill-opacity="0" stroke="#ffffff" stroke-width="0.5" stroke-opacity="1"></use></g></g><g><use xlink:href="#ajWbpO2Ah" opacity="1" fill="#000000" fill-opacity="1"></use><g><use xlink:href="#ajWbpO2Ah" opacity="1" fill-opacity="0" stroke="#ffffff" stroke-width="0.5" stroke-opacity="1"></use></g></g><g><use xlink:href="#c4IYWpZjS2" opacity="1" fill="#000000" fill-opacity="1"></use><g><use xlink:href="#c4IYWpZjS2" opacity="1" fill-opacity="0" stroke="#ffffff" stroke-width="0.5" stroke-opacity="1"></use></g></g><g><use xlink:href="#l502Gt7AJ" opacity="1" fill="#000000" fill-opacity="1"></use><g><use xlink:href="#l502Gt7AJ" opacity="1" fill-opacity="0" stroke="#ffffff" stroke-width="0.5" stroke-opacity="1"></use></g></g><g><use xlink:href="#aWlbtQw0g" opacity="1" fill="#000000" fill-opacity="1"></use><g><use xlink:href="#aWlbtQw0g" opacity="1" fill-opacity="0" stroke="#ffffff" stroke-width="0.5" stroke-opacity="1"></use></g></g><g><use xlink:href="#c57POsUdF" opacity="1" fill="#000000" fill-opacity="1"></use><g><use xlink:href="#c57POsUdF" opacity="1" fill-opacity="0" stroke="#ffffff" stroke-width="0.5" stroke-opacity="1"></use></g></g><g><use xlink:href="#i1iHYVraD2" opacity="1" fill="#000000" fill-opacity="1"></use><g><use xlink:href="#i1iHYVraD2" opacity="1" fill-opacity="0" stroke="#ffffff" stroke-width="0.5" stroke-opacity="1"></use></g></g><g><use xlink:href="#a1zuOS8JeF" opacity="1" fill="#000000" fill-opacity="1"></use><g><use xlink:href="#a1zuOS8JeF" opacity="1" fill-opacity="0" stroke="#ffffff" stroke-width="0.5" stroke-opacity="1"></use></g></g><g><use xlink:href="#a3jQCD5fhK" opacity="1" fill="#000000" fill-opacity="1"></use><g><use xlink:href="#a3jQCD5fhK" opacity="1" fill-opacity="0" stroke="#ffffff" stroke-width="0.5" stroke-opacity="1"></use></g></g><g><use xlink:href="#jXekAXX1h" opacity="1" fill="#000000" fill-opacity="1"></use><g><use xlink:href="#jXekAXX1h" opacity="1" fill-opacity="0" stroke="#ffffff" stroke-width="0.5" stroke-opacity="1"></use></g></g><g><use xlink:href="#a18jU6xLBE" opacity="1" fill="#000000" fill-opacity="1"></use><g><use xlink:href="#a18jU6xLBE" opacity="1" fill-opacity="0" stroke="#ffffff" stroke-width="0.5" stroke-opacity="1"></use></g></g><g><use xlink:href="#bulfXjnEB" opacity="1" fill="#000000" fill-opacity="1"></use><g><use xlink:href="#bulfXjnEB" opacity="1" fill-opacity="0" stroke="#ffffff" stroke-width="0.5" stroke-opacity="1"></use></g></g><g><use xlink:href="#eg2kcq4nd" opacity="1" fill="#000000" fill-opacity="1"></use><g><use xlink:href="#eg2kcq4nd" opacity="1" fill-opacity="0" stroke="#ffffff" stroke-width="0.5" stroke-opacity="1"></use></g></g><g><use xlink:href="#bEn6OfSYX" opacity="1" fill="#000000" fill-opacity="1"></use><g><use xlink:href="#bEn6OfSYX" opacity="1" fill-opacity="0" stroke="#ffffff" stroke-width="0.5" stroke-opacity="1"></use></g></g><g><use xlink:href="#b7miC5KBT" opacity="1" fill="#000000" fill-opacity="1"></use><g><use xlink:href="#b7miC5KBT" opacity="1" fill-opacity="0" stroke="#ffffff" stroke-width="0.5" stroke-opacity="1"></use></g></g><g><use xlink:href="#f22pHkDtZ" opacity="1" fill="#000000" fill-opacity="1"></use><g><use xlink:href="#f22pHkDtZ" opacity="1" fill-opacity="0" stroke="#ffffff" stroke-width="0.5" stroke-opacity="1"></use></g></g><g><use xlink:href="#a2tvE1UnwB" opacity="1" fill="#000000" fill-opacity="1"></use><g><use xlink:href="#a2tvE1UnwB" opacity="1" fill-opacity="0" stroke="#ffffff" stroke-width="0.5" stroke-opacity="1"></use></g></g><g><use xlink:href="#aeIfbcNgo" opacity="1" fill="#000000" fill-opacity="1"></use><g><use xlink:href="#aeIfbcNgo" opacity="1" fill-opacity="0" stroke="#ffffff" stroke-width="0.5" stroke-opacity="1"></use></g></g></g></g></svg>