<?xml version="1.0" encoding="utf-8"?>
<!-- Generator: Adobe Illustrator 24.0.3, SVG Export Plug-In . SVG Version: 6.00 Build 0)  -->
<svg version="1.1" id="Layer_1" xmlns="http://www.w3.org/2000/svg" xmlns:xlink="http://www.w3.org/1999/xlink" x="0px" y="0px"
	 viewBox="0 0 640 640" enable-background="new 0 0 640 640" xml:space="preserve">
<g id="landmarks-south-america">
	<path id="mexico" fill="#DDDDDD" d="M78.23,23.73l2.82,6.14l5.68,5.68l3.3,5.22l3.3,6.62l4.73,5.67l0.47,7.54l3.3,5.22l1.88,2.83
		l1.44-0.47l2.35,3.3l1.89,3.79l-1.89,1.43l-5.67-4.73l-6.15-3.79l-2.83-2.83l1.44-5.22l-1.44-4.73l-3.29-0.47l-1.44-2.36
		l-2.83-0.47l-8.03-7.54l3.79-0.47l0.47-3.3l-3.78-6.62l-3.3-3.79h-3.3l-0.47-5.67l-2.83-5.68l-3.24-4.26l-0.77-4.02l12.04-0.24
		l23.62,8.25h19.62l-0.48-1.89h9.45l3.79,2.12l2.12,2.12l5.03,3.91l2.29,6.74l8.35,4.43l4.91-5.61l5.22,1.02l2.65,1.94L169,44.01
		l2.35,2.18l1.67,5.91l12.1,5.02l-1.44,5.17l-1.76,1.61l-0.55,5.32l0.35,4.61l0.18,4.09l-0.36,3.91l-0.17,3.73l3.37,3.18l4.27,8.15
		l3.55,4.61l7.09,3.73l3.55,1.43l9.76-0.35l5.85-0.71l1.95,0.36l0.17-2.3l-0.71-1.43l3.38-0.36l2.3-2.65l0.35-5.16l0.36-5.32
		l6.91-0.18l4.61-0.71l2.3-1.78l4.81,0.17l3.55,1.95l-0.55,3.18l-4.26,4.26l0.71,3.55l-0.55,5.3l-0.55,2.46l-2.65-1.26l-0.71,1.61
		l-1.76,0.55l-1.61,2.3l-1.61,0.35l-11,0.18v6.56l2.65,2.82l-0.18,1.26l-7.61,1.61l-1.06,1.94l-0.71,2.13l0.35,3.18l1.44,2.29
		l-1.26,0.91l-3.56-2.65l-3.55-4.81l-3.18-2.83l-4.44-0.36l-3.18-1.43h-3.91l-4.43,2.12h-4.97l-7.97-1.78l-3.03-2.83l-3.55-1.79
		l-4.44-0.35l-5.67-3.38l-3.38-2.12l-4.44-2.3h-5.49l-3.32-2.12l-1.44-4.44l-4.43-1.43l-4.09-2.45l-1.25-3.91l1.06-2.45l0.55-3.38
		l-0.91-1.79l-0.55-3.55l-2.65-4.26l-3.73-3.38l-3.02-4.44l-3.38-3.18l-3.18-3.02l-2.83-3.18l-4.08-1.95l-2.3-3.02l1.43-2.65
		l-0.35-1.61l-2.3-0.55l-2.65-2.83l-4.08-2.83l1.43-3.18l-2.82-0.35l-3.56-3.73l-1.61-2.3l-3.55,1.43l0.35-4.81v-3.37l-3.02-5.17
		l-1.26-3.18l-1.43-2.45l-2.3-1.61l-3.55,0.7l-2.11-2.23l0,0l0,0L78.23,23.73z"/>
	<path id="mexico-w" fill-opacity="0" stroke="#FFFFFF" stroke-width="0.5" d="M78.23,23.73l2.82,6.14l5.68,5.68l3.3,5.22l3.3,6.62
		l4.73,5.67l0.47,7.54l3.3,5.22l1.88,2.83l1.44-0.47l2.35,3.3l1.89,3.79l-1.89,1.43l-5.67-4.73l-6.15-3.79l-2.83-2.83l1.44-5.22
		l-1.44-4.73l-3.29-0.47l-1.44-2.36l-2.83-0.47l-8.03-7.54l3.79-0.47l0.47-3.3l-3.78-6.62l-3.3-3.79h-3.3l-0.47-5.67l-2.83-5.68
		l-3.24-4.26l-0.77-4.02l12.04-0.24l23.62,8.25h19.62l-0.48-1.89h9.45l3.79,2.12l2.12,2.12l5.03,3.91l2.29,6.74l8.35,4.43l4.91-5.61
		l5.22,1.02l2.65,1.94L169,44.01l2.35,2.18l1.67,5.91l12.1,5.02l-1.44,5.17l-1.76,1.61l-0.55,5.32l0.35,4.61l0.18,4.09l-0.36,3.91
		l-0.17,3.73l3.37,3.18l4.27,8.15l3.55,4.61l7.09,3.73l3.55,1.43l9.76-0.35l5.85-0.71l1.95,0.36l0.17-2.3l-0.71-1.43l3.38-0.36
		l2.3-2.65l0.35-5.16l0.36-5.32l6.91-0.18l4.61-0.71l2.3-1.78l4.81,0.17l3.55,1.95l-0.55,3.18l-4.26,4.26l0.71,3.55l-0.55,5.3
		l-0.55,2.46l-2.65-1.26l-0.71,1.61l-1.76,0.55l-1.61,2.3l-1.61,0.35l-11,0.18v6.56l2.65,2.82l-0.18,1.26l-7.61,1.61l-1.06,1.94
		l-0.71,2.13l0.35,3.18l1.44,2.29l-1.26,0.91l-3.56-2.65l-3.55-4.81l-3.18-2.83l-4.44-0.36l-3.18-1.43h-3.91l-4.43,2.12h-4.97
		l-7.97-1.78l-3.03-2.83l-3.55-1.79l-4.44-0.35l-5.67-3.38l-3.38-2.12l-4.44-2.3h-5.49l-3.32-2.12l-1.44-4.44l-4.43-1.43l-4.09-2.45
		l-1.25-3.91l1.06-2.45l0.55-3.38l-0.91-1.79l-0.55-3.55l-2.65-4.26l-3.73-3.38l-3.02-4.44l-3.38-3.18l-3.18-3.02l-2.83-3.18
		l-4.08-1.95l-2.3-3.02l1.43-2.65l-0.35-1.61l-2.3-0.55l-2.65-2.83l-4.08-2.83l1.43-3.18l-2.82-0.35l-3.56-3.73l-1.61-2.3
		l-3.55,1.43l0.35-4.81v-3.37l-3.02-5.17l-1.26-3.18l-1.43-2.45l-2.3-1.61l-3.55,0.7l-2.11-2.23l0,0l0,0L78.23,23.73z"/>
	<path id="guatemala" fill="#DDDDDD" d="M236.62,123.35l1.43,1.18l1.18-0.71l0.83,0.97l-0.36,1.67l-4.85,2.82l-0.61,3.3l-2.12,2
		l-2.82,2.46l-2.69-1.67l-3.09-0.12h-3.3l-2.35-1.94l1.26-0.91l-1.44-2.29l-0.06-3.03l1.5-4.26l7.61-1.61l0.18-1.25l-2.65-2.83
		l0.35-6.26l10.65-0.48l-0.18,12.85l0,0L236.62,123.35z"/>
	<path id="guatemala-w" fill-opacity="0" stroke="#FFFFFF" stroke-width="0.5" d="M236.62,123.35l1.43,1.18l1.18-0.71l0.83,0.97
		l-0.36,1.67l-4.85,2.82l-0.61,3.3l-2.12,2l-2.82,2.46l-2.69-1.67l-3.09-0.12h-3.3l-2.35-1.94l1.26-0.91l-1.44-2.29l-0.06-3.03
		l1.5-4.26l7.61-1.61l0.18-1.25l-2.65-2.83l0.35-6.26l10.65-0.48l-0.18,12.85l0,0L236.62,123.35z"/>
	<path id="belize" fill="#DDDDDD" d="M237.46,121.11l-1.06,1.79l-1.31,0.35l0.12-12.74l1.61-0.35l1.61-2.3l1.76-0.55l0.71-1.61
		l2.65,1.26l-2.18,1.06l-0.12,3.65l-0.47,4.38l-1.43,3.63l0,0L237.46,121.11z"/>
	<path id="belize-w" fill-opacity="0" stroke="#FFFFFF" stroke-width="0.5" d="M237.46,121.11l-1.06,1.79l-1.31,0.35l0.12-12.74
		l1.61-0.35l1.61-2.3l1.76-0.55l0.71-1.61l2.65,1.26l-2.18,1.06l-0.12,3.65l-0.47,4.38l-1.43,3.63l0,0L237.46,121.11z"/>
	<path id="honduras" fill="#DDDDDD" d="M266.29,131.01l-2.36,0.35l-2.94-1.17l-1.53,1.78l-1.89,1.18l-1.77,1.67l-0.82,0.61
		l-1.53-0.47l-1.67,2l-3.08,1.53l-0.36,2.24l-2.94,1.18l0.35-1.67l-1.53-1.53l-0.96-1.89l-2.24-0.35l-2-0.35l-2.95-1.67l-1.77-1.89
		l0.36-2.94l5.08-3.18l0.12-1.32l2.83-0.71l1.43-1.43l2.83,1.53l2.94-1.31l3.91-0.61l2.45-0.83l1.44,1.32l5.32,0.23l3.3,2.36
		l-1.77,1.06l2.24,1.06l0.71-1.53l2.69,0.35l0.49,2.28l0,0L266.29,131.01z"/>
	<path id="honduras-w" fill-opacity="0" stroke="#FFFFFF" stroke-width="0.5" d="M266.29,131.01l-2.36,0.35l-2.94-1.17l-1.53,1.78
		l-1.89,1.18l-1.77,1.67l-0.82,0.61l-1.53-0.47l-1.67,2l-3.08,1.53l-0.36,2.24l-2.94,1.18l0.35-1.67l-1.53-1.53l-0.96-1.89
		l-2.24-0.35l-2-0.35l-2.95-1.67l-1.77-1.89l0.36-2.94l5.08-3.18l0.12-1.32l2.83-0.71l1.43-1.43l2.83,1.53l2.94-1.31l3.91-0.61
		l2.45-0.83l1.44,1.32l5.32,0.23l3.3,2.36l-1.77,1.06l2.24,1.06l0.71-1.53l2.69,0.35l0.49,2.28l0,0L266.29,131.01z"/>
	<path id="el-savador" fill="#DDDDDD" d="M235.32,138.37l1.06,2.01l3.3,0.11l2.12-0.47l2.01-1.31l-0.61-1.89l-4.26-0.7l-2.69-1.32
		l-2.01-2.24l-4.37,3.91l2.27,0.94l0,0l0,0L235.32,138.37z"/>
	<path id="el-savador-w" fill-opacity="0" stroke="#FFFFFF" stroke-width="0.5" d="M235.32,138.37l1.06,2.01l3.3,0.11l2.12-0.47
		l2.01-1.31l-0.61-1.89l-4.26-0.7l-2.69-1.32l-2.01-2.24l-4.37,3.91l2.27,0.94l0,0l0,0L235.32,138.37z"/>
	<path id="nicaragua" fill="#DDDDDD" d="M257.86,152.18l2.69,0.7h1.54l3.08,2.01L268,155l-0.61-1.88l0.12-4.26l1.43-2.95l-0.71-2.94
		l1.18,0.47v-6.13l1.32-2.45l0.6-3.3l-0.7-2.57l-4.38,2.12l-2.36,0.35l-2.57-1.31l-1.18,2l-2.57,1.06l-2.57,2.24l-1.18-0.47l-2,2
		l-3.09,1.88l-0.23,2.34l-3.08,0.71l-0.36,0.96l2.69,2.57l2.12,2.36l1.77,1.88l1.18,1.89l2.59,1.08l0,0L257.86,152.18z"/>
	<path id="nicaragua-w" fill-opacity="0" stroke="#FFFFFF" stroke-width="0.5" d="M257.86,152.18l2.69,0.7h1.54l3.08,2.01L268,155
		l-0.61-1.88l0.12-4.26l1.43-2.95l-0.71-2.94l1.18,0.47v-6.13l1.32-2.45l0.6-3.3l-0.7-2.57l-4.38,2.12l-2.36,0.35l-2.57-1.31
		l-1.18,2l-2.57,1.06l-2.57,2.24l-1.18-0.47l-2,2l-3.09,1.88l-0.23,2.34l-3.08,0.71l-0.36,0.96l2.69,2.57l2.12,2.36l1.77,1.88
		l1.18,1.89l2.59,1.08l0,0L257.86,152.18z"/>
	<path id="costa-rica" fill="#DDDDDD" d="M274.06,163.88l0.24,3.18l-1.32,2.95l-1.67-2.13l-1.66,0.12l0.7,1.53l-2.45-0.6l-0.12-2.58
		l-2.45-1.78l-2.12-1.32l-2.24-2.45l-1.32-0.12l-0.12,1.53l-2.94-1.79l-2-2.33l0.35-2.12l0.12-1.67l-0.24-1.79l3.08-0.35l2.58,1.06
		l1.67-0.36l3.08,1.67l2.83,0.47l2,4.27l2,1.66l3.32,1.99l0,0L274.06,163.88z"/>
	<path id="costa-rica-w" fill-opacity="0" stroke="#FFFFFF" stroke-width="0.5" d="M274.06,163.88l0.24,3.18l-1.32,2.95l-1.67-2.13
		l-1.66,0.12l0.7,1.53l-2.45-0.6l-0.12-2.58l-2.45-1.78l-2.12-1.32l-2.24-2.45l-1.32-0.12l-0.12,1.53l-2.94-1.79l-2-2.33l0.35-2.12
		l0.12-1.67l-0.24-1.79l3.08-0.35l2.58,1.06l1.67-0.36l3.08,1.67l2.83,0.47l2,4.27l2,1.66l3.32,1.99l0,0L274.06,163.88z"/>
	<path id="panama" fill="#DDDDDD" d="M306.42,175.68l0.96-2.95l-0.23-2.94l-1.32-1.79l-2.24-2.24l-0.96-1.43l-2.24-0.35l-2.35-0.47
		h-1.53l-1.18-0.71h-3.18l-0.61,1.43l-2.24,0.96l-2,0.48l-2.36,1.17l-1.43,0.48l-1.89-1.44l-2-0.61l-0.61,1.32l-1.77-0.61
		l-0.11-1.53l-1.44-1.32l-1.67,0.71l0.24,3.18l-1.32,2.95l1.89,0.96l3.55,0.12l2.12,0.7l0.83,0.61l-0.83,1.53l0.24,2.46l1.06-2.12
		l2.94,0.23l0.61,2.34l2.83-0.24l1.89-1.67l0.11-2l0.36-2l1.53-1.67l0.23-1.67l2.46-0.82l1.53-1.32l0.71,1.18l1.17,1.18l1.67,1.31
		l0.48,0.83l1.76-0.24l0.24,0.83l-1.53,1.53v2l1.88,1.89l1.06,0.94l0,0l0,0L306.42,175.68z"/>
	<path id="panama-w" fill-opacity="0" stroke="#FFFFFF" stroke-width="0.5" d="M306.42,175.68l0.96-2.95l-0.23-2.94l-1.32-1.79
		l-2.24-2.24l-0.96-1.43l-2.24-0.35l-2.35-0.47h-1.53l-1.18-0.71h-3.18l-0.61,1.43l-2.24,0.96l-2,0.48l-2.36,1.17l-1.43,0.48
		l-1.89-1.44l-2-0.61l-0.61,1.32l-1.77-0.61l-0.11-1.53l-1.44-1.32l-1.67,0.71l0.24,3.18l-1.32,2.95l1.89,0.96l3.55,0.12l2.12,0.7
		l0.83,0.61l-0.83,1.53l0.24,2.46l1.06-2.12l2.94,0.23l0.61,2.34l2.83-0.24l1.89-1.67l0.11-2l0.36-2l1.53-1.67l0.23-1.67l2.46-0.82
		l1.53-1.32l0.71,1.18l1.17,1.18l1.67,1.31l0.48,0.83l1.76-0.24l0.24,0.83l-1.53,1.53v2l1.88,1.89l1.06,0.94l0,0l0,0L306.42,175.68z
		"/>
	<path id="columbia" fill="#DDDDDD" d="M307.15,187.97l-0.96,2.83l1.43,6.14l1.88,1.44l-1.88,3.3l-3.08,2.35l-5.91,1.89v5.67
		l4.49,4.26l3.79,2.83l2.83,2.57l7.54-0.96l3.55,0.71l0.47,1.43l4.27,2.12l2.57,4.5l3.55,2.35l2.12,3.79l0.71,1.89h7.3l3.56-0.47
		l3.3,0.7l3.55,2.83l-2.36,4.26l1.89,3.3l1.18,1.43l1.17-3.3l3.56-15.84l-2.57-4.03l-1.67-3.79l0.23-2.57l4.5-0.96l0.23-2.12
		l-3.78-1.88l0.47-2.36l7.54-0.71l1.43-1.43l2.12,1.43l2.12-1.67l3.3,5.91l1.43-1.17l-4.73-8.53l-1.88-1.67l2.12-2.82l-1.89-6.62
		l2.36-11.58l-7.54-0.48l-5.42,0.48l-3.79-5.42l-12.98-0.71l-1.88-5.91l-1.89-3.79l-2.57-0.47l2.35-4.26l-0.25-6.64l5.67-3.79
		l0.24-3.3l3.55-0.7l0.97-2.12l-2.58-1.18l-3.55,0.23l-1.18,3.09l-0.96,2.57l-6.15,1.43l-3.08,0.24l-2.12,0.47l-5.22,0.47
		l-1.89,3.79l1.89,2.12l-2.36,1.88v2.13l-3.55,0.47l-2.12,4.26l-1.44,0.7v2.58l-1.67,0.96l-0.96-3.08h-0.7l-0.71,2.35l-0.47,2.83
		l-2.95,2.12l3.22,3.2l0,0L307.15,187.97z"/>
	<path id="columbia-w" display="none" fill-opacity="0" stroke="#FFFFFF" stroke-width="0.5" d="M307.15,187.97l-0.96,2.83
		l1.43,6.14l1.88,1.44l-1.88,3.3l-3.08,2.35l-5.91,1.89v5.67l4.49,4.26l3.79,2.83l2.83,2.57l7.54-0.96l3.55,0.71l0.47,1.43
		l4.27,2.12l2.57,4.5l3.55,2.35l2.12,3.79l0.71,1.89h7.3l3.56-0.47l3.3,0.7l3.55,2.83l-2.36,4.26l1.89,3.3l1.18,1.43l1.17-3.3
		l3.56-15.84l-2.57-4.03l-1.67-3.79l0.23-2.57l4.5-0.96l0.23-2.12l-3.78-1.88l0.47-2.36l7.54-0.71l1.43-1.43l2.12,1.43l2.12-1.67
		l3.3,5.91l1.43-1.17l-4.73-8.53l-1.88-1.67l2.12-2.82l-1.89-6.62l2.36-11.58l-7.54-0.48l-5.42,0.48l-3.79-5.42l-12.98-0.71
		l-1.88-5.91l-1.89-3.79l-2.57-0.47l2.35-4.26l-0.25-6.64l5.67-3.79l0.24-3.3l3.55-0.7l0.97-2.12l-2.58-1.18l-3.55,0.23l-1.18,3.09
		l-0.96,2.57l-6.15,1.43l-3.08,0.24l-2.12,0.47l-5.22,0.47l-1.89,3.79l1.89,2.12l-2.36,1.88v2.13l-3.55,0.47l-2.12,4.26l-1.44,0.7
		v2.58l-1.67,0.96l-0.96-3.08h-0.7l-0.71,2.35l-0.47,2.83l-2.95,2.12l3.22,3.2l0,0L307.15,187.97z"/>
	<path id="peru" fill="#DDDDDD" d="M343.77,251.06l-5.42,0.96l-3.56,3.08l-1.43,5.68l-1.43,4.02l-2.57,2.36l-0.71,3.55l2.83,5.42
		l3.08,3.3L333.6,282l3.79,1.18l2.35,2.57l6.38-1.18l1.44-3.79l1.88,7.54h7.09l4.02,6.39l-0.7,7.54v5.91l-1.67,5.22l-0.71,5.91
		l1.18,3.79v3.3l-1.88,4.49l-2.36,2.12l-0.24,2.58l-3.55,2.57l-0.47-2.36l-7.54-8.24l-5.22-3.09l-6.62-3.3l-6.85-3.55l-10.39-10.39
		l1.67-1.17l-2.12-3.09l-4.73-9.44l-5.23-7.8l-2.82-5.42l-0.97-5.22l-2.35-5.67l-5.68-6.15l-6.38-2.57l-1.18-3.79l1.44-1.18
		l-2.83-4.5v-4.73l4.5-1.88l3.29-1.89l0.71,3.09l-1.67,2.82l1.44,2.36h2.12l1.88,1.18l4.5,0.96l3.08-3.08l0.24-5.68l3.79-2.57
		l5.67-2.83l3.3-4.02l4.02-2.57l0.47-3.3l1.67-0.97l-1.67-3.08l2.83-1.67l3.3,2.12l2.36,3.56l3.79,2.82l2.57,5.23h8.03l2.83-0.47
		l3.3,0.7l3.55,2.83l-2.36,4.26l3.09,4.73l-4.25,0.26l0,0l0,0L343.77,251.06z"/>
	<path id="peru-w" fill-opacity="0" stroke="#FFFFFF" stroke-width="0.5" d="M343.77,251.06l-5.42,0.96l-3.56,3.08l-1.43,5.68
		l-1.43,4.02l-2.57,2.36l-0.71,3.55l2.83,5.42l3.08,3.3L333.6,282l3.79,1.18l2.35,2.57l6.38-1.18l1.44-3.79l1.88,7.54h7.09
		l4.02,6.39l-0.7,7.54v5.91l-1.67,5.22l-0.71,5.91l1.18,3.79v3.3l-1.88,4.49l-2.36,2.12l-0.24,2.58l-3.55,2.57l-0.47-2.36
		l-7.54-8.24l-5.22-3.09l-6.62-3.3l-6.85-3.55l-10.39-10.39l1.67-1.17l-2.12-3.09l-4.73-9.44l-5.23-7.8l-2.82-5.42l-0.97-5.22
		l-2.35-5.67l-5.68-6.15l-6.38-2.57l-1.18-3.79l1.44-1.18l-2.83-4.5v-4.73l4.5-1.88l3.29-1.89l0.71,3.09l-1.67,2.82l1.44,2.36h2.12
		l1.88,1.18l4.5,0.96l3.08-3.08l0.24-5.68l3.79-2.57l5.67-2.83l3.3-4.02l4.02-2.57l0.47-3.3l1.67-0.97l-1.67-3.08l2.83-1.67
		l3.3,2.12l2.36,3.56l3.79,2.82l2.57,5.23h8.03l2.83-0.47l3.3,0.7l3.55,2.83l-2.36,4.26l3.09,4.73l-4.25,0.26l0,0l0,0L343.77,251.06
		z"/>
	<path id="ecuador" fill="#DDDDDD" d="M295.6,215.11l-3.55,2.12l-2.12,0.47v6.14l-2.83,5.23l-0.23,5.67l1.88,3.56l3.08-2.13
		l1.18,2.58l-2.83,4.02l0.71,3.08l-1.67,2.83l0.96,1.89l2.36-0.24l3.08,2.12l3.56,0.71l3.08-3.08l0.23-5.68l3.79-3.08l4.97-2.34
		l4.03-4.02l4.73-3.09l-0.24-3.29l1.67-0.48l-1.67-3.08l1.89-1.67l-0.71-2.35l-3.55-0.71l-7.54,0.96l-2.83-2.57l-3.55-2.36
		l-4.58-3.55l0,0L295.6,215.11z"/>
	<path id="ecuador-w" fill-opacity="0" stroke="#FFFFFF" stroke-width="0.5" d="M295.6,215.11l-3.55,2.12l-2.12,0.47v6.14
		l-2.83,5.23l-0.23,5.67l1.88,3.56l3.08-2.13l1.18,2.58l-2.83,4.02l0.71,3.08l-1.67,2.83l0.96,1.89l2.36-0.24l3.08,2.12l3.56,0.71
		l3.08-3.08l0.23-5.68l3.79-3.08l4.97-2.34l4.03-4.02l4.73-3.09l-0.24-3.29l1.67-0.48l-1.67-3.08l1.89-1.67l-0.71-2.35l-3.55-0.71
		l-7.54,0.96l-2.83-2.57l-3.55-2.36l-4.58-3.55l0,0L295.6,215.11z"/>
	<path id="venezuela" fill="#DDDDDD" d="M349.7,152.53l4.96-1.18l-3.55-2.57l1.18-3.3l3.79,2.12v2.34l4.49,1.18l1.89,2.35l1.88,3.3
		l8.76,0.24l2.36-0.47l5.67,3.08l7.33-0.47l-0.24-2.36h6.15l6.85-0.47l-2.83,2.12l1.18,3.79l1.43-1.18l5.23,2.57l3.08,3.3l2.83,0.47
		l2.57,2.36l0.47,2.34l-3.56,2.57l-0.47,3.08l1.89,0.47l-0.96,1.67l-6.38,1.89l0.47,1.67l0.96,4.02l2.57,3.08l0.24,2.12l-4.26,2.58
		l-6.39,2.12l-4.26,1.67l-4.26-1.18l-3.3-0.47l0.97,1.67l0.47,3.08l-0.24,4.02l4.97,1.44l-1.18,2.82l-2.57,0.71l-1.67,3.08
		l-5.22,0.47l-3.56,2.83h-4.73l-1.67-2.83l-4.73-8.52l-1.88-1.67l2.12-2.82l-1.89-6.62l1.67-11.82l-6.85-0.24l-5.42,0.48l-3.79-5.42
		l-12.98-0.71l-2.57-6.62l-1.18-3.08l-2.57-0.47l2.35-4.26l-0.23-6.62l5.67-3.79l4.91,0.51l0,0L349.7,152.53z"/>
	<path id="venezuela-w" fill-opacity="0" stroke="#FFFFFF" stroke-width="0.5" d="M349.7,152.53l4.96-1.18l-3.55-2.57l1.18-3.3
		l3.79,2.12v2.34l4.49,1.18l1.89,2.35l1.88,3.3l8.76,0.24l2.36-0.47l5.67,3.08l7.33-0.47l-0.24-2.36h6.15l6.85-0.47l-2.83,2.12
		l1.18,3.79l1.43-1.18l5.23,2.57l3.08,3.3l2.83,0.47l2.57,2.36l0.47,2.34l-3.56,2.57l-0.47,3.08l1.89,0.47l-0.96,1.67l-6.38,1.89
		l0.47,1.67l0.96,4.02l2.57,3.08l0.24,2.12l-4.26,2.58l-6.39,2.12l-4.26,1.67l-4.26-1.18l-3.3-0.47l0.97,1.67l0.47,3.08l-0.24,4.02
		l4.97,1.44l-1.18,2.82l-2.57,0.71l-1.67,3.08l-5.22,0.47l-3.56,2.83h-4.73l-1.67-2.83l-4.73-8.52l-1.88-1.67l2.12-2.82l-1.89-6.62
		l1.67-11.82l-6.85-0.24l-5.42,0.48l-3.79-5.42l-12.98-0.71l-2.57-6.62l-1.18-3.08l-2.57-0.47l2.35-4.26l-0.23-6.62l5.67-3.79
		l4.91,0.51l0,0L349.7,152.53z"/>
	<path id="guyana" fill="#DDDDDD" d="M414.9,196l3.09,1.44l-2.12,2.12l-2.36,3.55l2.36,3.79l1.66,1.18v3.79l5.91,4.26l5.68-5.42
		l3.79-0.96l3.08,1.17l-2.83-4.26l-1.43-5.42l-2.57-1.17l-2.12-3.56l1.43-4.73l4.26-3.3l0.24-3.55l-3.79-3.79l-4.26-2.57l-1.89,0.96
		l-0.47-3.56l-1.43-2.57l-3.79-1.88l-2.12,0.7l-3.56,2.58l-0.47,3.08l1.67,1.18l-0.71,0.96l-6.38,1.88l1.44,6.15l2.57,2.57
		l4.16,0.41l0,0L414.9,196z"/>
	<path id="guyana-w" fill-opacity="0" stroke="#FFFFFF" stroke-width="0.5" d="M414.9,196l3.09,1.44l-2.12,2.12l-2.36,3.55
		l2.36,3.79l1.66,1.18v3.79l5.91,4.26l5.68-5.42l3.79-0.96l3.08,1.17l-2.83-4.26l-1.43-5.42l-2.57-1.17l-2.12-3.56l1.43-4.73
		l4.26-3.3l0.24-3.55l-3.79-3.79l-4.26-2.57l-1.89,0.96l-0.47-3.56l-1.43-2.57l-3.79-1.88l-2.12,0.7l-3.56,2.58l-0.47,3.08
		l1.67,1.18l-0.71,0.96l-6.38,1.88l1.44,6.15l2.57,2.57l4.16,0.41l0,0L414.9,196z"/>
	<path id="suriname" fill="#DDDDDD" d="M440.15,208.08l5.42-1.89l4.74-2.57l0.7-4.03l-3.08-4.02l0.71-3.79l1.88-4.5l-4.02-1.88
		l-3.79-0.24l-3.56,0.71l-6.38-0.96l-0.23,3.55l-4.26,3.79l-1.44,4.26l2.12,3.56l2.83,1.88l1.18,4.73l2.83,4.26l4.35-0.29l0,0
		V208.08z"/>
	<path id="suriname-w" fill-opacity="0" stroke="#FFFFFF" stroke-width="0.5" d="M440.15,208.08l5.42-1.89l4.74-2.57l0.7-4.03
		l-3.08-4.02l0.71-3.79l1.88-4.5l-4.02-1.88l-3.79-0.24l-3.56,0.71l-6.38-0.96l-0.23,3.55l-4.26,3.79l-1.44,4.26l2.12,3.56
		l2.83,1.88l1.18,4.73l2.83,4.26l4.35-0.29l0,0V208.08z"/>
	<path id="guiana" fill="#DDDDDD" d="M453.17,210.18l3.56,0.23l2.12-4.96l2.57-4.97l4.97-4.26l-1.18-3.3l-2.36-0.24l-4.26-3.08
		l-5.22-2.12l-2.83-0.24l-1.88,4.5l-0.71,3.79l3.3,4.5l-0.96,3.55l-4.74,2.57l3.6,4.26l0,0L453.17,210.18z"/>
	<path id="guiana-w" fill-opacity="0" stroke="#FFFFFF" stroke-width="0.5" d="M453.17,210.18l3.56,0.23l2.12-4.96l2.57-4.97
		l4.97-4.26l-1.18-3.3l-2.36-0.24l-4.26-3.08l-5.22-2.12l-2.83-0.24l-1.88,4.5l-0.71,3.79l3.3,4.5l-0.96,3.55l-4.74,2.57l3.6,4.26
		l0,0L453.17,210.18z"/>
	<path id="brazil" fill="#DDDDDD" d="M363.5,290.86l1.06-3.56l8.88-2.12h5.32l3.18,4.97l6.73,7.42l7.8,1.06l8.87,6.74l5.68,1.43
		l1.06,9.56l-1.06,1.79l5.67,6.03l7.09-0.71l1.77,6.74l3.55,3.18l-0.35,12.74l-2.46,2.12l1.06,12.74l13.1,0.36l2.83,10.28l6.73-0.7
		l-2.12,11.35l4.61,3.18l0.36,9.21l-9.56,7.08l-4.62,4.97l-7.79,7.09l4.26,3.18l4.61,4.97l2.83,0.71l12.39,8.52l0.71,3.9l6.02-6.73
		l9.21-9.56l-3.55,7.79l3.18-2.12l4.61-7.79l1.44-6.38l4.96-5.33l4.62-6.73l-1.06-9.92l0.7-7.08l8.88-4.97l8.87-4.97l5.33-5.32
		l12.74-0.71l5.32-2.82l3.91-3.91l1.76-6.74l5.33-6.38l1.76-1.78l-0.35-9.21l3.18-1.44l2.12-12.39l-0.35-13.09l0.7-3.56l4.97-3.9
		l5.32-9.57l5.68-6.38l5.67-7.42l2.46-7.09l-1.06-7.42l-3.19-8.52h-6.02l-4.26-3.55l-5.68-2.13l-3.91-4.26l-8.52-5.67l-5.67,1.06
		l-4.26-0.35l-11.71-3.56l-3.9-0.35l-2.46-3.18l-10.64-2.12l-6.03-4.26l-5.32,0.35l-2.12,3.55l-0.71-4.96l-3.18-1.06l-5.32-0.36
		l-4.26,2.46l-2.83,3.55l-0.35-4.61l4.26-4.97l4.62-4.26l-1.44-2.83l-1.76-2.83l-2.12-2.82l-0.71-1.44l-0.36-5.3l-1.06-2.83
		l-2.69-0.7l-4.96,4.26l-4.73,9.91l-5.33-0.35l-1.43,0.71l-4.38-4.62l-5.42,1.89v2.57l-4.26,0.24l-2.24-1.18l-4.61,0.96l-5.67,5.42
		l-5.91-4.26v-3.79l-4.03-4.97l4.5-5.67l-3.09-1.44l-1.76-4.73l-3.44-0.71l0.24,2.13l-5.68,3.9l-9.21,2.46l-7.54-1.67l1.89,2.33
		l-0.71,6.39l4.97,1.43l-1.18,2.83l-2.57,0.7l-1.67,3.09l-5.22,0.47l-3.56,2.82h-4.73l-1.67-2.82l-1.43,1.18l-3.3-5.91l-2.12,1.66
		l-2.12-1.43l-1.43,1.43l-7.54,0.71l-0.48,2.36l3.79,1.88l-0.23,2.12l-4.5,0.96l-0.12,3.56l4.15,6.85l-4.5,18.3l-4.5,1.06
		l-6.49,1.79l-3.91,0.82l-3.56,3.09l-3.18,10.64l-2.45,2.45l-0.47,2.46l2.83,5.42l3.08,3.29l-0.96,2.58l3.79,1.17l2.35,2.58
		l6.38-1.18l1.44-3.79l1.88,7.54h5.91l2.1-0.43l0,0L363.5,290.86z"/>
	<path id="brazil-w" fill-opacity="0" stroke="#FFFFFF" stroke-width="0.5" d="M363.5,290.86l1.06-3.56l8.88-2.12h5.32l3.18,4.97
		l6.73,7.42l7.8,1.06l8.87,6.74l5.68,1.43l1.06,9.56l-1.06,1.79l5.67,6.03l7.09-0.71l1.77,6.74l3.55,3.18l-0.35,12.74l-2.46,2.12
		l1.06,12.74l13.1,0.36l2.83,10.28l6.73-0.7l-2.12,11.35l4.61,3.18l0.36,9.21l-9.56,7.08l-4.62,4.97l-7.79,7.09l4.26,3.18l4.61,4.97
		l2.83,0.71l12.39,8.52l0.71,3.9l6.02-6.73l9.21-9.56l-3.55,7.79l3.18-2.12l4.61-7.79l1.44-6.38l4.96-5.33l4.62-6.73l-1.06-9.92
		l0.7-7.08l8.88-4.97l8.87-4.97l5.33-5.32l12.74-0.71l5.32-2.82l3.91-3.91l1.76-6.74l5.33-6.38l1.76-1.78l-0.35-9.21l3.18-1.44
		l2.12-12.39l-0.35-13.09l0.7-3.56l4.97-3.9l5.32-9.57l5.68-6.38l5.67-7.42l2.46-7.09l-1.06-7.42l-3.19-8.52h-6.02l-4.26-3.55
		l-5.68-2.13l-3.91-4.26l-8.52-5.67l-5.67,1.06l-4.26-0.35l-11.71-3.56l-3.9-0.35l-2.46-3.18l-10.64-2.12l-6.03-4.26l-5.32,0.35
		l-2.12,3.55l-0.71-4.96l-3.18-1.06l-5.32-0.36l-4.26,2.46l-2.83,3.55l-0.35-4.61l4.26-4.97l4.62-4.26l-1.44-2.83l-1.76-2.83
		l-2.12-2.82l-0.71-1.44l-0.36-5.3l-1.06-2.83l-2.69-0.7l-4.96,4.26l-4.73,9.91l-5.33-0.35l-1.43,0.71l-4.38-4.62l-5.42,1.89v2.57
		l-4.26,0.24l-2.24-1.18l-4.61,0.96l-5.67,5.42l-5.91-4.26v-3.79l-4.03-4.97l4.5-5.67l-3.09-1.44l-1.76-4.73l-3.44-0.71l0.24,2.13
		l-5.68,3.9l-9.21,2.46l-7.54-1.67l1.89,2.33l-0.71,6.39l4.97,1.43l-1.18,2.83l-2.57,0.7l-1.67,3.09l-5.22,0.47l-3.56,2.82h-4.73
		l-1.67-2.82l-1.43,1.18l-3.3-5.91l-2.12,1.66l-2.12-1.43l-1.43,1.43l-7.54,0.71l-0.48,2.36l3.79,1.88l-0.23,2.12l-4.5,0.96
		l-0.12,3.56l4.15,6.85l-4.5,18.3l-4.5,1.06l-6.49,1.79l-3.91,0.82l-3.56,3.09l-3.18,10.64l-2.45,2.45l-0.47,2.46l2.83,5.42
		l3.08,3.29l-0.96,2.58l3.79,1.17l2.35,2.58l6.38-1.18l1.44-3.79l1.88,7.54h5.91l2.1-0.43l0,0L363.5,290.86z"/>
	<path id="bolivia" fill="#DDDDDD" d="M359.95,341.18l3.55,1.06l-1.77,3.56l-0.35,5.3l0.71,2.45l2.12,0.71l2.45,10.99l4.62-0.7
		l6.02-6.03l4.62,1.43l3.55,1.06l1.77,3.18l3.91-5.67l4.96,0.71l1.44,2.45l2.82-6.38l4.26-11.35l6.74-0.35l6.38-1.06l7.42,3.18
		l1.06,2.45l2.46-2.12l0.35-12.74l-3.55-3.18l-1.77-6.74l-7.09,0.71l-5.67-6.03l1.06-1.79l-1.06-9.56l-5.68-1.43l-8.87-6.74
		l-7.8-1.06l-9.91-12.41l-14.18,2.13l-2.12,3.55l-5.91-2.46l4.03,6.39l-0.97,8.87l0.24,4.62l-1.67,5.22l-0.71,5.91l1.77,4.85
		l-1.43,5.3l-2.12,2.12l1.49,2.51l0,0L359.95,341.18z"/>
	<path id="bolivia-w" fill-opacity="0" stroke="#FFFFFF" stroke-width="0.5" d="M359.95,341.18l3.55,1.06l-1.77,3.56l-0.35,5.3
		l0.71,2.45l2.12,0.71l2.45,10.99l4.62-0.7l6.02-6.03l4.62,1.43l3.55,1.06l1.77,3.18l3.91-5.67l4.96,0.71l1.44,2.45l2.82-6.38
		l4.26-11.35l6.74-0.35l6.38-1.06l7.42,3.18l1.06,2.45l2.46-2.12l0.35-12.74l-3.55-3.18l-1.77-6.74l-7.09,0.71l-5.67-6.03l1.06-1.79
		l-1.06-9.56l-5.68-1.43l-8.87-6.74l-7.8-1.06l-9.91-12.41l-14.18,2.13l-2.12,3.55l-5.91-2.46l4.03,6.39l-0.97,8.87l0.24,4.62
		l-1.67,5.22l-0.71,5.91l1.77,4.85l-1.43,5.3l-2.12,2.12l1.49,2.51l0,0L359.95,341.18z"/>
	<path id="paraguay" fill="#DDDDDD" d="M404.28,367.77l7.42,7.09l5.68,0.35l4.26,2.45l5.67,3.56l1.44,2.45l-3.91,4.62l-1.06,5.32
		l14.55,2.45l3.91-1.43l0.7-2.83l4.62-2.83l-0.36-4.26l3.18-0.71l-2.45-1.78l2.12-11.35l-6.73,0.71l-2.83-10.29l-13.1-0.36
		l-1.06-12.74l-1.06-2.45l-7.42-3.18l-5.32,1.06l-7.8,0.35l-7.09,17.71l2.03,1.83l0,0L404.28,367.77z"/>
	<path id="paraguay-w" fill-opacity="0" stroke="#FFFFFF" stroke-width="0.5" d="M404.28,367.77l7.42,7.09l5.68,0.35l4.26,2.45
		l5.67,3.56l1.44,2.45l-3.91,4.62l-1.06,5.32l14.55,2.45l3.91-1.43l0.7-2.83l4.62-2.83l-0.36-4.26l3.18-0.71l-2.45-1.78l2.12-11.35
		l-6.73,0.71l-2.83-10.29l-13.1-0.36l-1.06-12.74l-1.06-2.45l-7.42-3.18l-5.32,1.06l-7.8,0.35l-7.09,17.71l2.03,1.83l0,0
		L404.28,367.77z"/>
	<path id="argentina" fill="#DDDDDD" d="M370.61,370.24l-1.44,2.83l-6.02,3.55l-0.71,5.68l-1.77,2.82l3.56,8.15l-0.71,2.83
		l-4.26-0.35l-3.91,6.73l-1.43,7.09l-0.71,4.97l-2.12,5.3l-2.45,6.38l2.45,6.73l3.91,5.68l-0.71,4.97l-2.83,4.96l-1.06,9.92
		l-3.55,1.43l-2.45,3.56l1.06,9.56l2.45,5.3l-3.18,3.91l-2.46,8.52l-0.35,8.87v9.21l-1.43,3.56l0.7,3.55l-0.35,3.91l1.06,8.52
		l2.83,3.55l-1.77,5.3l1.06,7.09l-2.12,7.09l-3.91,2.12l-0.7,7.09l-2.12,5.3l-2.46,3.91l1.44,5.67l0.35,4.97v3.91l5.32-1.06v4.26
		v4.97l2.83,3.9l5.67-0.35l6.03,1.43l4.61,1.06l3.91,0.71l-3.18-5.67l-2.45-2.46l1.06-4.26l-1.06-4.61l4.26-3.56l1.06-0.7h3.55
		l0.35-6.03l1.44-3.91l6.03-6.03l4.26-5.67l0.7-6.38l-3.18-0.71l-6.03-3.91l-0.35-6.73l3.91-4.62l4.26-4.26l2.12,1.44l1.43-4.26
		l0.71-4.27l1.77-5.67l4.61-3.55l-2.83-2.83l1.77-0.35l3.91,1.78l2.45-3.9l-2.82-2.46l-4.97,2.12l-1.44-1.79l-2.45-2.82l1.06-7.09
		l2.83-1.43l5.67,2.45l5.32,0.35l3.91-4.61v-4.97l1.06-7.79l9.92,0.7l7.79-3.18l4.97-2.12l4.97-1.43l1.43-4.62l5.67-8.14l-3.18-2.12
		l-1.43-5.33l-1.43-3.9l-5.32-1.79l-1.44-3.91l1.77-1.78l-1.43-3.18l1.06-3.56l-0.71-6.03l2.83-4.61l1.06-6.74l2.83-4.61
		l12.38-12.04l9.57-7.08l-0.36-9.21l-2.12-1.44l-3.9,1.79l2.12,2.83l-5.68,3.18l-0.71,2.83l-3.9,1.43l-14.55-2.45l1.06-5.33
		l3.91-4.61l-1.44-2.45l-9.91-6.03l-5.68-0.35l-14.17-13.1l-1.44-2.46l-4.97-0.7l-3.9,5.67l-1.77-3.18l-8.15-2.45l-6.05,5.93l0,0
		L370.61,370.24z"/>
	<path id="argentina-w" fill-opacity="0" stroke="#FFFFFF" stroke-width="0.5" d="M370.61,370.24l-1.44,2.83l-6.02,3.55l-0.71,5.68
		l-1.77,2.82l3.56,8.15l-0.71,2.83l-4.26-0.35l-3.91,6.73l-1.43,7.09l-0.71,4.97l-2.12,5.3l-2.45,6.38l2.45,6.73l3.91,5.68
		l-0.71,4.97l-2.83,4.96l-1.06,9.92l-3.55,1.43l-2.45,3.56l1.06,9.56l2.45,5.3l-3.18,3.91l-2.46,8.52l-0.35,8.87v9.21l-1.43,3.56
		l0.7,3.55l-0.35,3.91l1.06,8.52l2.83,3.55l-1.77,5.3l1.06,7.09l-2.12,7.09l-3.91,2.12l-0.7,7.09l-2.12,5.3l-2.46,3.91l1.44,5.67
		l0.35,4.97v3.91l5.32-1.06v4.26v4.97l2.83,3.9l5.67-0.35l6.03,1.43l4.61,1.06l3.91,0.71l-3.18-5.67l-2.45-2.46l1.06-4.26
		l-1.06-4.61l4.26-3.56l1.06-0.7h3.55l0.35-6.03l1.44-3.91l6.03-6.03l4.26-5.67l0.7-6.38l-3.18-0.71l-6.03-3.91l-0.35-6.73
		l3.91-4.62l4.26-4.26l2.12,1.44l1.43-4.26l0.71-4.27l1.77-5.67l4.61-3.55l-2.83-2.83l1.77-0.35l3.91,1.78l2.45-3.9l-2.82-2.46
		l-4.97,2.12l-1.44-1.79l-2.45-2.82l1.06-7.09l2.83-1.43l5.67,2.45l5.32,0.35l3.91-4.61v-4.97l1.06-7.79l9.92,0.7l7.79-3.18
		l4.97-2.12l4.97-1.43l1.43-4.62l5.67-8.14l-3.18-2.12l-1.43-5.33l-1.43-3.9l-5.32-1.79l-1.44-3.91l1.77-1.78l-1.43-3.18l1.06-3.56
		l-0.71-6.03l2.83-4.61l1.06-6.74l2.83-4.61l12.38-12.04l9.57-7.08l-0.36-9.21l-2.12-1.44l-3.9,1.79l2.12,2.83l-5.68,3.18
		l-0.71,2.83l-3.9,1.43l-14.55-2.45l1.06-5.33l3.91-4.61l-1.44-2.45l-9.91-6.03l-5.68-0.35l-14.17-13.1l-1.44-2.46l-4.97-0.7
		l-3.9,5.67l-1.77-3.18l-8.15-2.45l-6.05,5.93l0,0L370.61,370.24z"/>
	<path id="argentina-2" fill="#DDDDDD" d="M361.93,625.41h2.65l-0.35,1.26l0.55,2.83h4.26l1.43-1.95l-2.83-1.43l3.56,1.06l3.55,1.26
		l4.26-1.79l3.03-1.26l-0.55-2.29l-4.44-0.55l-4.26-2.12l-3.91-1.79l-1.61-2.83l-1.43-3.02l-0.91-1.94l-1.43-1.95l-0.18-1.61
		l0.91,0.55v-2.65l-3.01-1.92l0,0L361.93,625.41z"/>
	<path id="argentina-2-w" fill-opacity="0" stroke="#FFFFFF" stroke-width="0.5" d="M361.93,625.41h2.65l-0.35,1.26l0.55,2.83h4.26
		l1.43-1.95l-2.83-1.43l3.56,1.06l3.55,1.26l4.26-1.79l3.03-1.26l-0.55-2.29l-4.44-0.55l-4.26-2.12l-3.91-1.79l-1.61-2.83
		l-1.43-3.02l-0.91-1.94l-1.43-1.95l-0.18-1.61l0.91,0.55v-2.65l-3.01-1.92l0,0L361.93,625.41z"/>
	<path id="cuba" fill="#DDDDDD" d="M264.62,83.06v-3.3l5.42-2.12l4.97-0.7l3.55-2.12l3.55,0.23l4.97,0.96l3.08,2.34l2.58-0.96
		l2.57,4.02l5.42-0.47l3.3,2.12l4.49,4.03l4.03,1.18l6.38,1.66l-1.89,2.36h5.91l3.09,0.71l0.23,1.88l-3.55,2.83l-6.85,0.24
		l-10.65-1.18l3.79-2.83l-3.08-1.67l-3.79-0.47l-2.35-4.26l-2.83-1.89h-4.5l-5.67-2.57h-3.3l-5.42-2.35l1.88-1.18l-1.17-0.71
		l-5.23,0.71l-2.82,2.57l-3.56,0.71l-3.3,2.57l-2.08-1.87l0,0L264.62,83.06z"/>
	<path id="cuba-w" fill-opacity="0" stroke="#FFFFFF" stroke-width="0.5" d="M264.62,83.06v-3.3l5.42-2.12l4.97-0.7l3.55-2.12
		l3.55,0.23l4.97,0.96l3.08,2.34l2.58-0.96l2.57,4.02l5.42-0.47l3.3,2.12l4.49,4.03l4.03,1.18l6.38,1.66l-1.89,2.36h5.91l3.09,0.71
		l0.23,1.88l-3.55,2.83l-6.85,0.24l-10.65-1.18l3.79-2.83l-3.08-1.67l-3.79-0.47l-2.35-4.26l-2.83-1.89h-4.5l-5.67-2.57h-3.3
		l-5.42-2.35l1.88-1.18l-1.17-0.71l-5.23,0.71l-2.82,2.57l-3.56,0.71l-3.3,2.57l-2.08-1.87l0,0L264.62,83.06z"/>
	<path id="jamaica" fill="#DDDDDD" d="M311.19,107.37l-5.42-0.71l-4.49,0.71l3.79,2.36l-0.24,2.35l5.22-1.18l4.44-1.86l0,0l0,0
		L311.19,107.37z"/>
	<path id="jamaica-w" fill-opacity="0" stroke="#FFFFFF" stroke-width="0.5" d="M311.19,107.37l-5.42-0.71l-4.49,0.71l3.79,2.36
		l-0.24,2.35l5.22-1.18l4.44-1.86l0,0l0,0L311.19,107.37z"/>
	<path id="haiti" fill="#DDDDDD" d="M341.63,100.3l-0.47,2.12l0.23,1.89l1.18,0.47l-0.96,0.96l-0.47,3.3l-2.36-0.71l-3.55,0.47
		l-2.58-0.96l-3.55-0.23v1.17l-1.67-1.66l-2.36-0.48l1.18-1.17l4.97,0.23l4.03,0.47l2.35-0.7l-0.96-1.44l-0.71-3.3l-1.43-1.17
		l-3.55-0.97l0.96-1.17h3.3l3.55,1.43l2.4-0.9l0,0l0,0L341.63,100.3z"/>
	<path id="haiti-w" fill-opacity="0" stroke="#FFFFFF" stroke-width="0.5" d="M341.63,100.3l-0.47,2.12l0.23,1.89l1.18,0.47
		l-0.96,0.96l-0.47,3.3l-2.36-0.71l-3.55,0.47l-2.58-0.96l-3.55-0.23v1.17l-1.67-1.66l-2.36-0.48l1.18-1.17l4.97,0.23l4.03,0.47
		l2.35-0.7l-0.96-1.44l-0.71-3.3l-1.43-1.17l-3.55-0.97l0.96-1.17h3.3l3.55,1.43l2.4-0.9l0,0l0,0L341.63,100.3z"/>
	<path id="dominican" fill="#DDDDDD" d="M344.24,111.67l1.88-3.3l3.3-1.43l-0.23,1.67l4.96-0.24l2.83-1.88l2.57,0.47l1.67,1.43
		l2.36-3.08l-1.89-3.3h-5.91l-1.67-2.83l-3.08-1.67h-4.73l-3.08,0.47l-2.36-0.7l0.71,3.08l-0.71,2.57l0.71,2.36l-0.47,3.79
		l0.78,1.63l0,0l0,0L344.24,111.67z"/>
	<path id="dominican-w" fill-opacity="0" stroke="#FFFFFF" stroke-width="0.5" d="M344.24,111.67l1.88-3.3l3.3-1.43l-0.23,1.67
		l4.96-0.24l2.83-1.88l2.57,0.47l1.67,1.43l2.36-3.08l-1.89-3.3h-5.91l-1.67-2.83l-3.08-1.67h-4.73l-3.08,0.47l-2.36-0.7l0.71,3.08
		l-0.71,2.57l0.71,2.36l-0.47,3.79l0.78,1.63l0,0l0,0L344.24,111.67z"/>
	<path id="puerto" fill="#DDDDDD" d="M373.06,105.98l5.42,1.43h3.3l-3.08,1.43l-3.3,1.18h-4.03l-1.67-2.36l0.06-1.45l0,0l0,0
		L373.06,105.98z"/>
	<path id="puerto-w" fill-opacity="0" stroke="#FFFFFF" stroke-width="0.5" d="M373.06,105.98l5.42,1.43h3.3l-3.08,1.43l-3.3,1.18
		h-4.03l-1.67-2.36l0.06-1.45l0,0l0,0L373.06,105.98z"/>
	<path id="bahamas" fill="#DDDDDD" d="M299.59,66.06l2.57,2.57l1.89,1.18l0.7,2.34l1.67-3.3l-0.71-3.3l-3.29-3.75l0,0L299.59,66.06z
		"/>
	<path id="bahamas-w" fill-opacity="0" stroke="#FFFFFF" stroke-width="0.5" d="M299.59,66.06l2.57,2.57l1.89,1.18l0.7,2.34
		l1.67-3.3l-0.71-3.3l-3.29-3.75l0,0L299.59,66.06z"/>
	<path id="chile" fill="#DDDDDD" d="M349.93,350.29l2.36,10.88l-2.83,7.54L348.99,381l-0.96,6.15l-0.96,11.82l-4.27,6.61l1.44,8.98
		l-1.89,6.14l0.47,9.92v7.54l-3.29,8.03l-2.83,9.46l-2.36,10.39l-2.35,0.96l-0.48,8.52l0.97,11.82l-1.89,5.23l-1.88,6.61l2.35,3.79
		l-2.82,1.89l-2.36,8.97l0.96,3.3l5.22-4.73l0.97-7.09v-2.83l3.3-1.88l1.43,5.22l-3.3,8.03l-0.96,8.97l-2.83,8.98l-2.83-4.26
		l-2.35,5.22l1.88,5.67l-0.47,1.44l-2.83,0.47l-5.22,4.26l0.47,3.3l5.68-3.3l2.35,1.88l1.44,1.44l-1.89,4.26l-1.43,2.35l-0.47,5.68
		l-3.79-4.73l-0.47,2.35l-2.36,4.73l-0.47,2.36l1.88,4.73l0.47,2.83l4.74,1.43l1.43-3.79l-0.96,7.54l-5.23-0.47v2.83l5.23,4.26
		l0.96-3.79l3.3,2.34l-0.96,5.67h-3.79l-4.26,0.47l2.82,2.36l0.97,2.83l3.78-2.34l1.44,2.83l-1.44,0.96l2.83,0.96l2.36-1.43
		l2.83-1.89v2.83l-4.74,1.89l-1.88,3.78l0.96,2.34l1.89,3.79l3.29,1.43l3.79-1.88l2.83-0.47l-1.88,2.83l-5.23,0.96l-5.22-1.44
		l3.3,4.74l3.3,3.79l2.83-3.3v-1.44l2.82,0.47l1.89,0.97l4.26-1.44l-0.47-2.82v-3.79l0.96-1.89l4.26-0.96l1.89-1.67l-0.48,2
		l-3.55,2.24l-0.82,2l0.82,2.34l3.79-0.23h1.43l-2.57,3.18l-2.24,0.96l1.06,4.02l4.15,1.89l-5.42-0.24l-1.54-2.33l-1.43-3.56
		l-0.71,0.96l-0.35,2.01l-1.77-0.83l-2.23-0.96h-2.69l-0.48,2.24l1.89,1.06l1.88,1.53l2.36-0.96l0.96-0.61l0.96,1.18l-0.7,0.96
		l-0.71,1.79l-1.43,0.47l2.24,1.67l1.88,1.06l0.35,1.06l2.95-0.12l2.24-0.71l1.31,0.24l-1.67,2.24l-1.43,0.96l2.83,2.83l1.67,0.7
		l-0.24-2.35h2.57l2.01,2.57l2.24,1.06l1.76,0.61l-2.45-3.65l-0.61-1.79l-0.35-1.79l-0.83-0.7l0.24-1.89l-0.77-21.79l-2.51-0.55
		l-1.77-0.97l-1.18-2.94l-0.47-1.43l-6.97-1.44l-5.67,0.36l-2.83-3.91v-9.21l-5.32,1.06l-0.12-4.61l-0.24-4.26l-1.43-5.68l2-3.18
		l2.58-6.03l0.7-7.09l3.91-2.12l2.12-6.73l-1.06-7.42l1.77-5.32l-2.83-3.91l-1.06-7.8l0.35-4.26l-0.7-3.55l1.31-3.18l0.47-18.42
		l2.24-8.15l3.44-4.26l-2.83-5.08l-0.71-9.82l2.83-3.56l3.18-1.43l0.83-9.56l2.82-4.97l0.71-5.67l-3.91-4.97l-2.12-6.74l4.5-12.03
		l2.12-12.04l3.79-6.03l4.38-0.35l0.7-2.83l-3.55-8.14l1.77-2.83l0.71-5.68l6.02-3.55l1.44-2.83l0.47-5.3l-4.38,0.35l-2.46-10.99
		l-2.23-1.06l-0.61-2.12l0.35-5.3l1.77-3.56l-3.08-1.06l-4.74-9.56l-1.31,1.79l-0.24,2.24l-3.59,2.65l0,0L349.93,350.29z"/>
	<path id="chile-w" fill-opacity="0" stroke="#FFFFFF" stroke-width="0.5" d="M349.93,350.29l2.36,10.88l-2.83,7.54L348.99,381
		l-0.96,6.15l-0.96,11.82l-4.27,6.61l1.44,8.98l-1.89,6.14l0.47,9.92v7.54l-3.29,8.03l-2.83,9.46l-2.36,10.39l-2.35,0.96l-0.48,8.52
		l0.97,11.82l-1.89,5.23l-1.88,6.61l2.35,3.79l-2.82,1.89l-2.36,8.97l0.96,3.3l5.22-4.73l0.97-7.09v-2.83l3.3-1.88l1.43,5.22
		l-3.3,8.03l-0.96,8.97l-2.83,8.98l-2.83-4.26l-2.35,5.22l1.88,5.67l-0.47,1.44l-2.83,0.47l-5.22,4.26l0.47,3.3l5.68-3.3l2.35,1.88
		l1.44,1.44l-1.89,4.26l-1.43,2.35l-0.47,5.68l-3.79-4.73l-0.47,2.35l-2.36,4.73l-0.47,2.36l1.88,4.73l0.47,2.83l4.74,1.43
		l1.43-3.79l-0.96,7.54l-5.23-0.47v2.83l5.23,4.26l0.96-3.79l3.3,2.34l-0.96,5.67h-3.79l-4.26,0.47l2.82,2.36l0.97,2.83l3.78-2.34
		l1.44,2.83l-1.44,0.96l2.83,0.96l2.36-1.43l2.83-1.89v2.83l-4.74,1.89l-1.88,3.78l0.96,2.34l1.89,3.79l3.29,1.43l3.79-1.88
		l2.83-0.47l-1.88,2.83l-5.23,0.96l-5.22-1.44l3.3,4.74l3.3,3.79l2.83-3.3v-1.44l2.82,0.47l1.89,0.97l4.26-1.44l-0.47-2.82v-3.79
		l0.96-1.89l4.26-0.96l1.89-1.67l-0.48,2l-3.55,2.24l-0.82,2l0.82,2.34l3.79-0.23h1.43l-2.57,3.18l-2.24,0.96l1.06,4.02l4.15,1.89
		l-5.42-0.24l-1.54-2.33l-1.43-3.56l-0.71,0.96l-0.35,2.01l-1.77-0.83l-2.23-0.96h-2.69l-0.48,2.24l1.89,1.06l1.88,1.53l2.36-0.96
		l0.96-0.61l0.96,1.18l-0.7,0.96l-0.71,1.79l-1.43,0.47l2.24,1.67l1.88,1.06l0.35,1.06l2.95-0.12l2.24-0.71l1.31,0.24l-1.67,2.24
		l-1.43,0.96l2.83,2.83l1.67,0.7l-0.24-2.35h2.57l2.01,2.57l2.24,1.06l1.76,0.61l-2.45-3.65l-0.61-1.79l-0.35-1.79l-0.83-0.7
		l0.24-1.89l-0.77-21.79l-2.51-0.55l-1.77-0.97l-1.18-2.94l-0.47-1.43l-6.97-1.44l-5.67,0.36l-2.83-3.91v-9.21l-5.32,1.06
		l-0.12-4.61l-0.24-4.26l-1.43-5.68l2-3.18l2.58-6.03l0.7-7.09l3.91-2.12l2.12-6.73l-1.06-7.42l1.77-5.32l-2.83-3.91l-1.06-7.8
		l0.35-4.26l-0.7-3.55l1.31-3.18l0.47-18.42l2.24-8.15l3.44-4.26l-2.83-5.08l-0.71-9.82l2.83-3.56l3.18-1.43l0.83-9.56l2.82-4.97
		l0.71-5.67l-3.91-4.97l-2.12-6.74l4.5-12.03l2.12-12.04l3.79-6.03l4.38-0.35l0.7-2.83l-3.55-8.14l1.77-2.83l0.71-5.68l6.02-3.55
		l1.44-2.83l0.47-5.3l-4.38,0.35l-2.46-10.99l-2.23-1.06l-0.61-2.12l0.35-5.3l1.77-3.56l-3.08-1.06l-4.74-9.56l-1.31,1.79
		l-0.24,2.24l-3.59,2.65l0,0L349.93,350.29z"/>
	<path id="uruguay" fill="#DDDDDD" d="M454.21,441.1l-2.45,6.74l-4.97,2.45h-9.21l-4.26-1.78l-3.18-1.79l-3.18-0.71l-1.77-3.55
		l-1.43-3.18l1.06-3.56l-0.71-6.03l2.83-4.61l1.06-6.73l2.12-3.56l4.97,2.12l4.61,4.97l2.83,0.71l12.39,8.52l0.71,3.91l-1.77,2.9
		l0,0L454.21,441.1z"/>
	<path id="uruguay-w" fill-opacity="0" stroke="#FFFFFF" stroke-width="0.5" d="M454.21,441.1l-2.45,6.74l-4.97,2.45h-9.21
		l-4.26-1.78l-3.18-1.79l-3.18-0.71l-1.77-3.55l-1.43-3.18l1.06-3.56l-0.71-6.03l2.83-4.61l1.06-6.73l2.12-3.56l4.97,2.12l4.61,4.97
		l2.83,0.71l12.39,8.52l0.71,3.91l-1.77,2.9l0,0L454.21,441.1z"/>
	<path id="turks" fill="#DDDDDD" d="M330.57,88.5l-0.47,1.89l4.03,0.47l0.23-3.09l-1.22,0.26l0,0L330.57,88.5z"/>
	<path id="turks-w" fill-opacity="0" stroke="#FFFFFF" stroke-width="0.5" d="M330.57,88.5l-0.47,1.89l4.03,0.47l0.23-3.09
		l-1.22,0.26l0,0L330.57,88.5z"/>
</g>
</svg>
