<?xml version="1.0" encoding="utf-8"?>
<!-- Generator: Adobe Illustrator 24.0.3, SVG Export Plug-In . SVG Version: 6.00 Build 0)  -->
<svg version="1.1" id="Layer_1" xmlns="http://www.w3.org/2000/svg" xmlns:xlink="http://www.w3.org/1999/xlink" x="0px" y="0px"
	 viewBox="0 0 640 376.94" enable-background="new 0 0 640 376.94" xml:space="preserve">
<g id="landmarks-south-asia">
	<path id="south-korea_1_" fill="#DDDDDD" d="M534.13,173.61l2.21-5.07l-1.82-3.45l0.83-1.92l-1.82-0.3l2.83-2.02l-0.91-2.65
		l0.52-2.52l2.52-0.52l1.82,0.2l2.73-2.53l0.61-2.3l4.15,5.57l2.65,5.57l-0.21,5.78l1.13-0.21l-1.23,3.56l-4.76,3.55l-3.25,0.4
		l-2.52,0.83l0.2,1.61l-1.92-0.3l-2.32,1.36l0,0L534.13,173.61z"/>
	<path id="south-korea-w" fill-opacity="0" stroke="#FFFFFF" stroke-width="0.5" d="M534.13,173.61l2.21-5.07l-1.82-3.45l0.83-1.92
		l-1.82-0.3l2.83-2.02l-0.91-2.65l0.52-2.52l2.52-0.52l1.82,0.2l2.73-2.53l0.61-2.3l4.15,5.57l2.65,5.57l-0.21,5.78l1.13-0.21
		l-1.23,3.56l-4.76,3.55l-3.25,0.4l-2.52,0.83l0.2,1.61l-1.92-0.3l-2.32,1.36l0,0L534.13,173.61z"/>
	<path id="north-korea_1_" fill="#DDDDDD" d="M541.74,146.94l-1.92-0.91l0.83-1.71l0.3-2.31l5.68-3.65l5.06-3.05l0.61-4.16
		l-0.41-1.23l2.65-4.36l2.42-1.12l-1.92-2.02l-0.82-2.21l-2.43,0.41l0.52,2.3l-2.2,1.92l-2.83,2.64l-3.45-0.52l1.31,2.83h-3.75
		l-2.21-0.71l-1.43-1.43l-1.61,2.83l-4.95,4.26l-4.95,3.65l-2.1,3.05l0.82,1.23l3.65,0.82l1.43,1.62l-0.1,2.1l-0.82,2.43l-2.73,3.45
		l1.13,0.82l1.23,1.01l1.01,1.13l1.71-1.23l2.02,1.23l2.02,0.52l0.83-1.23h3.75l2.83-2l0.74-2.85l0,0l0,0L541.74,146.94z"/>
	<path id="north-korea-w" fill-opacity="0" stroke="#FFFFFF" stroke-width="0.5" d="M541.74,146.94l-1.92-0.91l0.83-1.71l0.3-2.31
		l5.68-3.65l5.06-3.05l0.61-4.16l-0.41-1.23l2.65-4.36l2.42-1.12l-1.92-2.02l-0.82-2.21l-2.43,0.41l0.52,2.3l-2.2,1.92l-2.83,2.64
		l-3.45-0.52l1.31,2.83h-3.75l-2.21-0.71l-1.43-1.43l-1.61,2.83l-4.95,4.26l-4.95,3.65l-2.1,3.05l0.82,1.23l3.65,0.82l1.43,1.62
		l-0.1,2.1l-0.82,2.43l-2.73,3.45l1.13,0.82l1.23,1.01l1.01,1.13l1.71-1.23l2.02,1.23l2.02,0.52l0.83-1.23h3.75l2.83-2l0.74-2.85
		l0,0l0,0L541.74,146.94z"/>
	<path id="japan_1_" fill="#DDDDDD" d="M560.92,177.01l5.92-3.81l1.52-2.59l4.26,0.47l7.13-0.47h4.13l1.53-2.27l2.27-3.81l1.23-3.35
		l0.15-2.27l3.2-1.23l-1.38,2.6l-0.3,1.81l2.59-0.3l5.17-2.9l5.01-6.36l2.6-5.32l0.3-1.66l0.61-2.9l-1.08-1.97l0.47-3.35l1.67-2.73
		l0.47-1.66h1.66l0.48,1.97l1.38-0.47l0.91-1.38l-1.39-0.31l-0.77-1.23l1.08-1.23l2.59,1.08l-0.3,3.35l0.3,2.59l2.59,2.9l0.15,3.8
		l-0.77,3.96l-1.97,2.59l-0.47,2.9l-1.67-1.23v3.2l0.15,4.54l-0.91,1.82l-1.81,1.97l0.6,3.8l1.08,2.11l-2.9,3.2l-2.42,1.38
		l-0.77,1.53l-0.61-2.11l-0.3-1.07l1.82-0.61v-1.82l-1.23-1.07l-1.23,2.27l-1.08,1.67l-0.91,1.22l-0.3,2.28l-1.67,0.3l-0.6-1.97
		l0.3-1.67l-1.82,2.6l-1.38,1.07l-5.02-0.3l-1.07-0.91l-0.91-1.97l-0.91,2.73l1.38,1.67L588,179.9l-1.66,1.82l-1.54,2.43l-2.59-0.78
		l-1.51-1.67l-0.78-1.81l1.82-1.23l0.47-2.11l-1.82-0.77h-3.04l-2.6,1.38l-0.77,0.77l-3.2-0.47l-1.08,1.08l-3.95,0.61l-0.15,1.53
		h-3.96l-2.27-0.15l-0.56-0.93l0,0L560.92,177.01z"/>
	<path id="japan-w" fill-opacity="0" stroke="#FFFFFF" stroke-width="0.5" d="M560.92,177.01l5.92-3.81l1.52-2.59l4.26,0.47
		l7.13-0.47h4.13l1.53-2.27l2.27-3.81l1.23-3.35l0.15-2.27l3.2-1.23l-1.38,2.6l-0.3,1.81l2.59-0.3l5.17-2.9l5.01-6.36l2.6-5.32
		l0.3-1.66l0.61-2.9l-1.08-1.97l0.47-3.35l1.67-2.73l0.47-1.66h1.66l0.48,1.97l1.38-0.47l0.91-1.38l-1.39-0.31l-0.77-1.23l1.08-1.23
		l2.59,1.08l-0.3,3.35l0.3,2.59l2.59,2.9l0.15,3.8l-0.77,3.96l-1.97,2.59l-0.47,2.9l-1.67-1.23v3.2l0.15,4.54l-0.91,1.82l-1.81,1.97
		l0.6,3.8l1.08,2.11l-2.9,3.2l-2.42,1.38l-0.77,1.53l-0.61-2.11l-0.3-1.07l1.82-0.61v-1.82l-1.23-1.07l-1.23,2.27l-1.08,1.67
		l-0.91,1.22l-0.3,2.28l-1.67,0.3l-0.6-1.97l0.3-1.67l-1.82,2.6l-1.38,1.07l-5.02-0.3l-1.07-0.91l-0.91-1.97l-0.91,2.73l1.38,1.67
		L588,179.9l-1.66,1.82l-1.54,2.43l-2.59-0.78l-1.51-1.67l-0.78-1.81l1.82-1.23l0.47-2.11l-1.82-0.77h-3.04l-2.6,1.38l-0.77,0.77
		l-3.2-0.47l-1.08,1.08l-3.95,0.61l-0.15,1.53h-3.96l-2.27-0.15l-0.56-0.93l0,0L560.92,177.01z"/>
	<path id="kyushu_1_" fill="#DDDDDD" d="M556.24,181.89l-1.08,1.53l-2.59,0.61l-1.08,1.82l0.61,2.27l1.07,1.23l1.23-0.91l1.23,0.6
		v-2.59l1.23,1.97v2.73l-1.52,0.6l-1.66,1.54l0.91,1.81l1.38,0.31l-1.23,1.82l2.27,1.38l1.23-1.97l-0.3-1.82l1.51,2.27l-0.15,1.67
		l1.82-2.11l0.77-2.59l-0.47-2.27l2.43-3.05l1.07-1.82l-1.97-1.82l-1.81,0.16l1.07-1.54l-2.1-0.77l-1.6-1.97l0,0L556.24,181.89z"/>
	<path id="kyushu-w" fill-opacity="0" stroke="#FFFFFF" stroke-width="0.5" d="M556.24,181.89l-1.08,1.53l-2.59,0.61l-1.08,1.82
		l0.61,2.27l1.07,1.23l1.23-0.91l1.23,0.6v-2.59l1.23,1.97v2.73l-1.52,0.6l-1.66,1.54l0.91,1.81l1.38,0.31l-1.23,1.82l2.27,1.38
		l1.23-1.97l-0.3-1.82l1.51,2.27l-0.15,1.67l1.82-2.11l0.77-2.59l-0.47-2.27l2.43-3.05l1.07-1.82l-1.97-1.82l-1.81,0.16l1.07-1.54
		l-2.1-0.77l-1.6-1.97l0,0L556.24,181.89z"/>
	<path id="shikoku_1_" fill="#DDDDDD" d="M566.99,185.39l0.48,1.97l2.27,1.38l0.77-2.89l0.91-1.38l3.35,0.15l1.38-0.91l1.67-1.82
		l0.3-1.82l-0.61-1.97l-3.04,0.15l-1.82,0.78l-0.61,1.97l-2.27,0.6l-2.1,0.47l-0.91,1.67l-1.74,0.74l0,0L566.99,185.39z"/>
	<path id="shikoku-w" fill-opacity="0" stroke="#FFFFFF" stroke-width="0.5" d="M566.99,185.39l0.48,1.97l2.27,1.38l0.77-2.89
		l0.91-1.38l3.35,0.15l1.38-0.91l1.67-1.82l0.3-1.82l-0.61-1.97l-3.04,0.15l-1.82,0.78l-0.61,1.97l-2.27,0.6l-2.1,0.47l-0.91,1.67
		l-1.74,0.74l0,0L566.99,185.39z"/>
	<path id="hokkaido_1_" fill="#DDDDDD" d="M606.65,129.03l0.31-1.97l-1.23-1.23v-2.27l1.66-2.1l1.82-1.08l-0.47-4.12l1.82,2.42
		l2.42,0.47l1.82-3.05l-1.08-1.53l1.97-1.82l-0.77-2.1l1.23-3.05l-1.08-4.12l2.42-2.73l2.11,0.3v2.43l0.77,2.73l2.9,2.89l4.26,2.1
		l1.66,1.39l0.78,0.9l2.73-0.47l1.97-1.97l0.47,2.43l-0.93,2.3l0.61,1.54l1.38-0.78l-0.78,1.97l-3.2,1.38l-2.42,1.38l-2.1-0.3
		l-2.43,1.08l-1.08,2.59l-0.77,3.2l-5.17-2.9l-1.38-1.08l-2.1-1.53L613.1,124l-1.53,0.91l-2.27-1.23l-1.67,0.91l1.82,1.23l2.27,1.53
		l1.38,1.82l-2.27,0.6l-1.53-0.3l-1.08,1.53l-1.38,1.08l-0.19-0.78l0,0V129.03z"/>
	<path id="hokkaido-w" fill-opacity="0" stroke="#FFFFFF" stroke-width="0.5" d="M606.65,129.03l0.31-1.97l-1.23-1.23v-2.27
		l1.66-2.1l1.82-1.08l-0.47-4.12l1.82,2.42l2.42,0.47l1.82-3.05l-1.08-1.53l1.97-1.82l-0.77-2.1l1.23-3.05l-1.08-4.12l2.42-2.73
		l2.11,0.3v2.43l0.77,2.73l2.9,2.89l4.26,2.1l1.66,1.39l0.78,0.9l2.73-0.47l1.97-1.97l0.47,2.43l-0.93,2.3l0.61,1.54l1.38-0.78
		l-0.78,1.97l-3.2,1.38l-2.42,1.38l-2.1-0.3l-2.43,1.08l-1.08,2.59l-0.77,3.2l-5.17-2.9l-1.38-1.08l-2.1-1.53L613.1,124l-1.53,0.91
		l-2.27-1.23l-1.67,0.91l1.82,1.23l2.27,1.53l1.38,1.82l-2.27,0.6l-1.53-0.3l-1.08,1.53l-1.38,1.08l-0.19-0.78l0,0V129.03z"/>
	<path id="china_1_" fill="#DDDDDD" d="M504.39,37.85l4.06-0.61l5.87-0.2l5.27-1.23l4.87,2.21l3.25,2.42l0.6-1.23l3.86,3.45
		l1.43,3.86l2.42,5.47l2.83,6.46l2,4.26v3.45l1.62,1.62l5.07,0.82l3.25,0.61l1.81,3.65l2.41,2.65l1.43-0.41l-0.6,2.65l1.43,1.61
		l0.4,3.65l1.43,1.44l3.66-0.21l3.24-0.82l3.66-1.62l3.85-1.01l3.05-0.6l4.06-1.43L579,82l-0.61,3.66l-1.81,2l-0.83,3.05l-0.6,2.64
		l-2.03,3.86l-1.61,4.64l-1.82,1.82l0.2,2l-2.42-1.01l-3.86-1.23l-1.22,1.01l-1.82,3.05h-1.01l0.82,4.48l-0.2,3.65l-0.82,2.43
		l-0.21,1.81l-2.2,1.62l-1.82,0.91l-0.83-2.21l-2.42,0.41l0.61,1.71l-1.62,2.21l-3.55,2.95l-3.45-0.53l0.91,2.01l-2.83,0.6
		l-2.83-1.01l-1.62-1.43l-1.81,3.25l-3.25,3.45l-3.86,2.83l-3.04,2.64l-1.43,2.11l-1.44,0.7h-4.05l-3.25,0.83l-2.83,2l-0.61,2.02
		l-1.01,1.23l-2.2-0.61l0.4-2.02l-1.43-0.4l-0.2-1.62l0.61-1.22l2.64-1.23l1.23-2.01l0.4-2.02l-0.2-0.82l-2.02-1.23h-2.83
		l-1.82,0.82l-1.22,2.43l-1.82,1.43l-3.25,1.43l-2.41,1.62l0.41,2.42l-2.43,1.43h-2.41l-2.02-0.6l-1.43,1.43l-1.01,2.64l0.41,2.42
		l1.61,1.01l1.23,1.43l1.82-0.4l1.82,1.23l0.2,1.82l0.61,1.82l1.01,1.22l1.43-2.02l0.82,2.02l1.82-2.02l1.43-1.43l2.42-1.43
		l2.01,0.83l1.23,1.61l1.61,0.61l1.62-0.83l1.82,0.61l2.2-0.2l-1.23,1.82l-0.2,2l-2.42-0.61l-2.65,0.41l-2.2,1.61l-1.43,1.43
		l-1.82,1.44l-1.82,0.2l-1.01,3.04l-2.2,1.62l-0.61,2l-1.23,1.43l3.25,2.01l2.21,1.01l1.22,2.02l0.61,3.25l1.62,2.02v2l0.2,1.62
		l3.05,2.02l0.4,2l2.42,1.82l-0.4,1.23l-2.21,0.4l1.44,1.43l2.02,1.62l-1.62,1.23l-3.86,0.4l-1.61,1.82l-0.2,1.82l4.64-0.41
		l1.82,2.21l0.83,0.82l-2.43,3.25v1.82l0.2,2.02l-1.01,2.2l-2.64,0.21l-2,1.81v2.43l-1.82,1.61l-2.21,0.83l-1.01,2.42v3.05
		l-2.2,2.02l2.64,1.82l-3.45,1.43l-2.83,2.83l-2.4,1.82l-1.23,2l-3.05,2.2l-2.64,2.02l-2.02,2.43h-3.72l-4.48,1.23l-2.64,0.82
		l-2.83-0.6l-1.82-2.21l-1.23,2.83l2.21,1.43l-1.82,1.43l-3.05,0.2l-3.45,1.23l-3.05,1.43h-3.25l-2.64,1.62l-0.2,2.64l0.82,2.21
		h-2.2l-2.02-2.65v-2.42l1.43-1.23l-2.42-1.23l-2.21,1.23l-2.42-0.61l-2.02-0.6l-1.23,0.2l-4.26-2.42l-2.64-2.02l0.6-2.65
		l-2.42-1.23l-4.26-0.82l-1.62-1.23l-2.82,1.43l-1.01,1.01l-3.66,0.2l-1.61,1.43l-2.21-0.4l-3.25-0.4l-1.01,2.2l-2.2,0.83v3.04
		l0.4,1.82l-3.45-0.4l-1.23-1.23h-3.45l-3.65-3.86l-1.23-0.82l0.4-3.05l-1.43-2l-1.43-5.27l-2.83,0.4l-3.65,0.61l-0.2-2.83
		l1.23-3.25l3.45-5.47l0.2-8.5l-2.83-1.01l-0.6-3.85l-5.88-0.21l-2.83-1.01l-0.4-1.61l-0.41-2.02l-0.2-1.43h-3.85l-1.43,1.01
		l-6.47,1.23l-2.83,3.45l-3.65,2.82l-2.42,0.83l-2.83-1.01l-4.87-1.43h-3.45l-2.64,1.43l-2.2,2.64l-0.61-2.64l-3.65,0.82l-4.48,0.21
		l-2.83-2.02l-2.2-2.43l-5.48-0.2l-1.61-2.42l-2.43-1.01l-2.2-1.01l-2.83,0.2l-1.82-2.21l-3.85-1.82l-2.83-2.02l-3.25-0.2h-1.82
		l-4.05-2.83l-2.41-1.22l-0.61-2.01l-2.4,0.2l-1.62-2.82l-0.61-2.01l-1.81-1.01v-1.01h3.45l0.6-4.86l-3.85-3.86l0.2-3.85l-2.02-2.64
		l-1.82-4.06l-3.25-2.64l-3.85-0.83l-2.43-2.83l-3.04-3.85l-4.26-0.2l1.23-4.26l-0.41-3.86l-2.4-2.42l-2.65,0.2l-1.23-4.86
		l0.61-3.66l4.06-1.61l4.64-3.25l2.83,1.43l4.87-4.48l5.47-0.82l2.82-2.21l4.65-2.42l2.83-0.83l1.82-3.25l0.4-4.64l0.83-1.43v-4.48
		l-1.23-3.25l1.43-2.21l-2.21-3.04l3.05-1.01l3.45-0.83l5.47,0.61l1.62-1.43l-1.62-4.26l2.64-6.28l3.05-4.65l4.26,0.61l2.21,0.82
		l4.47-1.22l1.01-4.26v-6.69l3.05-0.2l3.45-2l0.41-4.06h2.64l2.83,0.61l0.2,3.45l3.65,4.26l1.23,2.82l2.42-0.6l2.01,0.82l2.64-0.2
		l3.05,5.47l1.81,3.66l-0.2,5.67l-1.23,3.05l0.41,3.04l4.86,2.65l9.73-0.83l5.68,4.87l3.65,3.85l3.45,6.28l5.27,1.62h3.65l4.26,1.61
		l9.73-1.23l6.28,0.41l2.64,2.64l4.65,1.01l2.2,2.2l4.87-0.4l2.83,1.43l5.67-3.45l8.3-2.2l11.33-0.41l2.2-2.2l8.72-7.07l-0.6-2.02
		l-1.62-1.82l1.62-4.87l2.82-0.4l5.07,1.61l1.82,2.02l3.05-3.24l4.05-2.02l4.87-1.82l2.02-2.83l2.02-3.45h3.05l3.24-2.21l5.48-0.2
		l5.06-2l-2.2-3.05l-3.25-3.45l-4.26-2.42l-3.86,2.2l-2.82-1.23l-4.65,1.01l-0.4-3.45l3.04-5.06l1.82-5.07l1.43-3.05l3.05,1.62
		l1.61,1.61l3.05-3.65l3.86-1.43v-2.83l2.2-6.08l3.65-4.25l1.44-5.27l-1.62-2.01l-2.21-0.5l0,0l0,0L504.39,37.85z"/>
	<path id="china-w" fill-opacity="0" stroke="#FFFFFF" stroke-width="0.5" d="M504.39,37.85l4.06-0.61l5.87-0.2l5.27-1.23l4.87,2.21
		l3.25,2.42l0.6-1.23l3.86,3.45l1.43,3.86l2.42,5.47l2.83,6.46l2,4.26v3.45l1.62,1.62l5.07,0.82l3.25,0.61l1.81,3.65l2.41,2.65
		l1.43-0.41l-0.6,2.65l1.43,1.61l0.4,3.65l1.43,1.44l3.66-0.21l3.24-0.82l3.66-1.62l3.85-1.01l3.05-0.6l4.06-1.43L579,82l-0.61,3.66
		l-1.81,2l-0.83,3.05l-0.6,2.64l-2.03,3.86l-1.61,4.64l-1.82,1.82l0.2,2l-2.42-1.01l-3.86-1.23l-1.22,1.01l-1.82,3.05h-1.01
		l0.82,4.48l-0.2,3.65l-0.82,2.43l-0.21,1.81l-2.2,1.62l-1.82,0.91l-0.83-2.21l-2.42,0.41l0.61,1.71l-1.62,2.21l-3.55,2.95
		l-3.45-0.53l0.91,2.01l-2.83,0.6l-2.83-1.01l-1.62-1.43l-1.81,3.25l-3.25,3.45l-3.86,2.83l-3.04,2.64l-1.43,2.11l-1.44,0.7h-4.05
		l-3.25,0.83l-2.83,2l-0.61,2.02l-1.01,1.23l-2.2-0.61l0.4-2.02l-1.43-0.4l-0.2-1.62l0.61-1.22l2.64-1.23l1.23-2.01l0.4-2.02
		l-0.2-0.82l-2.02-1.23h-2.83l-1.82,0.82l-1.22,2.43l-1.82,1.43l-3.25,1.43l-2.41,1.62l0.41,2.42l-2.43,1.43h-2.41l-2.02-0.6
		l-1.43,1.43l-1.01,2.64l0.41,2.42l1.61,1.01l1.23,1.43l1.82-0.4l1.82,1.23l0.2,1.82l0.61,1.82l1.01,1.22l1.43-2.02l0.82,2.02
		l1.82-2.02l1.43-1.43l2.42-1.43l2.01,0.83l1.23,1.61l1.61,0.61l1.62-0.83l1.82,0.61l2.2-0.2l-1.23,1.82l-0.2,2l-2.42-0.61
		l-2.65,0.41l-2.2,1.61l-1.43,1.43l-1.82,1.44l-1.82,0.2l-1.01,3.04l-2.2,1.62l-0.61,2l-1.23,1.43l3.25,2.01l2.21,1.01l1.22,2.02
		l0.61,3.25l1.62,2.02v2l0.2,1.62l3.05,2.02l0.4,2l2.42,1.82l-0.4,1.23l-2.21,0.4l1.44,1.43l2.02,1.62l-1.62,1.23l-3.86,0.4
		l-1.61,1.82l-0.2,1.82l4.64-0.41l1.82,2.21l0.83,0.82l-2.43,3.25v1.82l0.2,2.02l-1.01,2.2l-2.64,0.21l-2,1.81v2.43l-1.82,1.61
		l-2.21,0.83l-1.01,2.42v3.05l-2.2,2.02l2.64,1.82l-3.45,1.43l-2.83,2.83l-2.4,1.82l-1.23,2l-3.05,2.2l-2.64,2.02l-2.02,2.43h-3.72
		l-4.48,1.23l-2.64,0.82l-2.83-0.6l-1.82-2.21l-1.23,2.83l2.21,1.43l-1.82,1.43l-3.05,0.2l-3.45,1.23l-3.05,1.43h-3.25l-2.64,1.62
		l-0.2,2.64l0.82,2.21h-2.2l-2.02-2.65v-2.42l1.43-1.23l-2.42-1.23l-2.21,1.23l-2.42-0.61l-2.02-0.6l-1.23,0.2l-4.26-2.42
		l-2.64-2.02l0.6-2.65l-2.42-1.23l-4.26-0.82l-1.62-1.23l-2.82,1.43l-1.01,1.01l-3.66,0.2l-1.61,1.43l-2.21-0.4l-3.25-0.4l-1.01,2.2
		l-2.2,0.83v3.04l0.4,1.82l-3.45-0.4l-1.23-1.23h-3.45l-3.65-3.86l-1.23-0.82l0.4-3.05l-1.43-2l-1.43-5.27l-2.83,0.4l-3.65,0.61
		l-0.2-2.83l1.23-3.25l3.45-5.47l0.2-8.5l-2.83-1.01l-0.6-3.85l-5.88-0.21l-2.83-1.01l-0.4-1.61l-0.41-2.02l-0.2-1.43h-3.85
		l-1.43,1.01l-6.47,1.23l-2.83,3.45l-3.65,2.82l-2.42,0.83l-2.83-1.01l-4.87-1.43h-3.45l-2.64,1.43l-2.2,2.64l-0.61-2.64l-3.65,0.82
		l-4.48,0.21l-2.83-2.02l-2.2-2.43l-5.48-0.2l-1.61-2.42l-2.43-1.01l-2.2-1.01l-2.83,0.2l-1.82-2.21l-3.85-1.82l-2.83-2.02
		l-3.25-0.2h-1.82l-4.05-2.83l-2.41-1.22l-0.61-2.01l-2.4,0.2l-1.62-2.82l-0.61-2.01l-1.81-1.01v-1.01h3.45l0.6-4.86l-3.85-3.86
		l0.2-3.85l-2.02-2.64l-1.82-4.06l-3.25-2.64l-3.85-0.83l-2.43-2.83l-3.04-3.85l-4.26-0.2l1.23-4.26l-0.41-3.86l-2.4-2.42l-2.65,0.2
		l-1.23-4.86l0.61-3.66l4.06-1.61l4.64-3.25l2.83,1.43l4.87-4.48l5.47-0.82l2.82-2.21l4.65-2.42l2.83-0.83l1.82-3.25l0.4-4.64
		l0.83-1.43v-4.48l-1.23-3.25l1.43-2.21l-2.21-3.04l3.05-1.01l3.45-0.83l5.47,0.61l1.62-1.43l-1.62-4.26l2.64-6.28l3.05-4.65
		l4.26,0.61l2.21,0.82l4.47-1.22l1.01-4.26v-6.69l3.05-0.2l3.45-2l0.41-4.06h2.64l2.83,0.61l0.2,3.45l3.65,4.26l1.23,2.82l2.42-0.6
		l2.01,0.82l2.64-0.2l3.05,5.47l1.81,3.66l-0.2,5.67l-1.23,3.05l0.41,3.04l4.86,2.65l9.73-0.83l5.68,4.87l3.65,3.85l3.45,6.28
		l5.27,1.62h3.65l4.26,1.61l9.73-1.23l6.28,0.41l2.64,2.64l4.65,1.01l2.2,2.2l4.87-0.4l2.83,1.43l5.67-3.45l8.3-2.2l11.33-0.41
		l2.2-2.2l8.72-7.07l-0.6-2.02l-1.62-1.82l1.62-4.87l2.82-0.4l5.07,1.61l1.82,2.02l3.05-3.24l4.05-2.02l4.87-1.82l2.02-2.83
		l2.02-3.45h3.05l3.24-2.21l5.48-0.2l5.06-2l-2.2-3.05l-3.25-3.45l-4.26-2.42l-3.86,2.2l-2.82-1.23l-4.65,1.01l-0.4-3.45l3.04-5.06
		l1.82-5.07l1.43-3.05l3.05,1.62l1.61,1.61l3.05-3.65l3.86-1.43v-2.83l2.2-6.08l3.65-4.25l1.44-5.27l-1.62-2.01l-2.21-0.5l0,0l0,0
		L504.39,37.85z"/>
	<path id="hainan_1_" fill="#DDDDDD" d="M447.34,263.3l-4.12,0.91l-0.3,1.82l-2.28,2.1l0.78,3.05l3.65,1.53l3.5-0.47l1.97-2.59
		l0.61-2.9l2.42-1.22l-0.3-1.45l0,0L447.34,263.3z"/>
	<path id="hainan-w" fill-opacity="0" stroke="#FFFFFF" stroke-width="0.5" d="M447.34,263.3l-4.12,0.91l-0.3,1.82l-2.28,2.1
		l0.78,3.05l3.65,1.53l3.5-0.47l1.97-2.59l0.61-2.9l2.42-1.22l-0.3-1.45l0,0L447.34,263.3z"/>
	<path id="taiwan_1_" fill="#DDDDDD" d="M506.07,235.07l-2.64,4.54l-2.1,3.25l-0.21,3.05l1.23,2.52l2.11,2.21v1.82l1.01-0.31
		l0.52-2.3l1.72-2.31l0.82-3.55l0.3-3.25l1.82-2.52l0.1-3.96l-1.02-0.2l0,0L506.07,235.07z"/>
	<path id="taiwan-w" fill-opacity="0" stroke="#FFFFFF" stroke-width="0.5" d="M506.07,235.07l-2.64,4.54l-2.1,3.25l-0.21,3.05
		l1.23,2.52l2.11,2.21v1.82l1.01-0.31l0.52-2.3l1.72-2.31l0.82-3.55l0.3-3.25l1.82-2.52l0.1-3.96l-1.02-0.2l0,0L506.07,235.07z"/>
	<path id="mongolia_1_" fill="#DDDDDD" d="M336.27,67.24l3.65-0.21l1.44-3.25l3.45,0.83l2.2-2.83h4.48l2.83-2.42l2.02,0.4l0.6-1.23
		l2.65,2.65l6.88-0.21l2.42,3.05l2.21,1.23l4.87-0.4l8.11,2l2.42-0.83l0.83-6.07l-2.21-1.01l-0.4-4.26l1.82-5.68l2.2,1.62l1.43-4.26
		l3.86,2.02l4.64,1.82l4.26,1.01l1.01,1.82l3.86,0.2v4.06l2.02,4.05l3.65,1.01h4.06l3.04-1.23l5.68,0.61l2.2,0.83h3.25l5.07,4.05
		l4.26,2.02l8.72,2.01h5.05l4.05-1.23l3.46-1.43l3.65-1.82l1.82-3.45l4.25-2.02l3.46,0.2l1.43,3.05l0.6,1.61l3.45-0.82h1.43
		l3.46,1.23l-2.83,5.87l-1.23,3.05l-2.02,3.65l0.2,4.06l3.65-1.23l1.82,0.82h3.05l2.83-1.61l3.25,1.61l2.64,2.83l3.45,3.45l0.4,1.01
		l-3.85,1.43l-2.64,1.23l-4.06-0.4l-3.25,2.2h-3.05l-4.05,6.28l-8.91,3.86l-2.83,2.64l-2.83-1.82l-4.25-1.23l-2.83,0.41l-1.62,4.86
		l1.62,1.82v1.82l-10.32,9.53l-10.71,0.2l-8.9,2.42l-5.68,3.45l-2.82-1.43l-4.87,0.41l-2.2-2.21l-4.65-1.01l-2.64-2.64l-6.89-0.2
		l-9.12,1.01l-4.26-1.62h-3.65l-5.27-1.62l-2.83-5.87l-9.93-9.12l-9.73,0.82l-4.87-2.64l-0.4-3.05l1.23-3.05l0.2-5.67l-4.26-9.12
		l-4.26,0.4l-1.61-1.43l-1.82,1.01l-1.23-2.83l-3.65-4.26l-0.36-3.99l0,0l0,0L336.27,67.24z"/>
	<path id="mongolia-w" fill-opacity="0" stroke="#FFFFFF" stroke-width="0.5" d="M336.27,67.24l3.65-0.21l1.44-3.25l3.45,0.83
		l2.2-2.83h4.48l2.83-2.42l2.02,0.4l0.6-1.23l2.65,2.65l6.88-0.21l2.42,3.05l2.21,1.23l4.87-0.4l8.11,2l2.42-0.83l0.83-6.07
		l-2.21-1.01l-0.4-4.26l1.82-5.68l2.2,1.62l1.43-4.26l3.86,2.02l4.64,1.82l4.26,1.01l1.01,1.82l3.86,0.2v4.06l2.02,4.05l3.65,1.01
		h4.06l3.04-1.23l5.68,0.61l2.2,0.83h3.25l5.07,4.05l4.26,2.02l8.72,2.01h5.05l4.05-1.23l3.46-1.43l3.65-1.82l1.82-3.45l4.25-2.02
		l3.46,0.2l1.43,3.05l0.6,1.61l3.45-0.82h1.43l3.46,1.23l-2.83,5.87l-1.23,3.05l-2.02,3.65l0.2,4.06l3.65-1.23l1.82,0.82h3.05
		l2.83-1.61l3.25,1.61l2.64,2.83l3.45,3.45l0.4,1.01l-3.85,1.43l-2.64,1.23l-4.06-0.4l-3.25,2.2h-3.05l-4.05,6.28l-8.91,3.86
		l-2.83,2.64l-2.83-1.82l-4.25-1.23l-2.83,0.41l-1.62,4.86l1.62,1.82v1.82l-10.32,9.53l-10.71,0.2l-8.9,2.42l-5.68,3.45l-2.82-1.43
		l-4.87,0.41l-2.2-2.21l-4.65-1.01l-2.64-2.64l-6.89-0.2l-9.12,1.01l-4.26-1.62h-3.65l-5.27-1.62l-2.83-5.87l-9.93-9.12l-9.73,0.82
		l-4.87-2.64l-0.4-3.05l1.23-3.05l0.2-5.67l-4.26-9.12l-4.26,0.4l-1.61-1.43l-1.82,1.01l-1.23-2.83l-3.65-4.26l-0.36-3.99l0,0l0,0
		L336.27,67.24z"/>
	<g id="philipines_x28_temp_x29_" >
		<path id="b1yJZFdRR" fill="#DDDDDD" d="M541.95,225.37l-0.48,1.23l2.28-0.47l0.92-2.29l0,0L541.95,225.37z"/>
		<path id="dt7MUDzIY" display="inline" fill="#DDDDDD" d="M514.41,310.45l-0.78-1.67l-2.1-0.91l0.15,3.05l0.15,1.82l-2.27,1.82
			l1.82,1.07l2.89-2.42l2.27-0.91l1.08-1.23l0.91-1.23l0,0L514.41,310.45z"/>
		<path id="a1EzQr7aaT" display="inline" fill="#DDDDDD" d="M524.3,306.61l1.97,1.23l1.38,1.38l-0.6,1.67l1.66,1.23l2.28,0.15
			l-0.91-2.6L529,307.4l0.61-1.66l-2.28-1.54l-1.97-0.15l-1.66,0.29l0,0L524.3,306.61z"/>
		<path id="a2MycAflU" display="inline" fill="#DDDDDD" d="M517.32,313.33l-0.78,1.07l-0.47,3.05l-1.82,0.61l-0.91,0.77l1.97,1.82
			l1.23,1.08l0.31,1.53l2.1-0.91l-1.08-1.82l-0.3-3.05l2.1-1.66l0.16-2.11l-1.13-0.53l0,0L517.32,313.33z"/>
		<path id="f1wSH59DO1" display="inline" fill="#DDDDDD" d="M520.53,313.63l0.61,1.82l-0.91,1.66l-1.52,1.08l0.48,1.67l1.81-0.15
			l0.91-1.08l0.78,0.77l2.42-0.47l0.15-1.66l-2.59-0.31l-0.15-1.66l0.15-1.82l-0.62-1.23l0,0L520.53,313.63z"/>
		<path id="c6NMPRN8z" display="inline" fill="#DDDDDD" d="M506.38,271.66l0.47-0.91l3.04,1.82l2.28-0.77l1.07,0.3l-0.77,1.53
			l-0.77,1.08l1.22,2.73l1.23,1.66v2.6l-1.82,1.53l0.31,1.08l-3.05,1.81l-0.15,2.73l-1.08,1.08l1.82,0.91l1.23,1.23v1.66l-1.97-0.47
			l0.47,1.97l1.67,1.52l2.27-1.82h2.73l0.91,2.27l1.38-1.53l2.59,1.97l-1.38,1.38l1.23,1.82l1.97,1.38l-0.61,1.97l-3.2-1.67
			l-1.97-2.73l-2.72-2.1l0.6,3.2l-2.42-1.82l-2.27-0.78l-1.67,0.16l-2.73,0.47l-1.08-1.23l-1.38-0.3l0.78-3.05l0.77-1.53l-1.82-0.91
			l-1.22,1.53l-1.08-0.91v-3.2l-1.97-4.26v-1.66l2.42,1.81l1.52-0.77l-0.31-2.1l0.16-2.11l0.3-1.53l-0.78-1.67l0.61-2.1l0.78-2.59
			l-0.04-0.98l0,0l0,0L506.38,271.66z"/>
		<path id="b1HZgD7h2z" display="inline" fill="#DDDDDD" d="M496.8,312.69l-1.82,0.3l1.38,1.38l-0.61,1.08l-1.23,1.38l-1.38,1.53
			l-2.89,3.2l-2.9,1.67l-1.81,2.89l-0.78,1.97l2.27-1.97l2.43-1.08l1.66-2.27l2.28-1.67l1.38-2.59l-0.15-1.08l2.1,0.48l1.52-1.52
			l1.96-1.23l1.23-0.91l-2.27-0.15l-0.91-0.77l0.91-2.6h-1.06l0,0h0.05v-0.01h0.02l0,0L496.8,312.69z"/>
		<path id="b1HZgD7h2z_1_" fill-opacity="0" stroke="#FFFFFF" stroke-width="0.5" d="M496.8,312.69l-1.82,0.3l1.38,1.38l-0.61,1.08
			l-1.23,1.38l-1.38,1.53l-2.89,3.2l-2.9,1.67l-1.81,2.89l-0.78,1.97l2.27-1.97l2.43-1.08l1.66-2.27l2.28-1.67l1.38-2.59l-0.15-1.08
			l2.1,0.48l1.52-1.52l1.96-1.23l1.23-0.91l-2.27-0.15l-0.91-0.77l0.91-2.6h-1.06l0,0h0.05v-0.01h0.02l0,0L496.8,312.69z"/>
		<path id="b4HeeOCtL9" display="inline" fill="#DDDDDD" d="M506.24,299.64l-1.97-0.47l-2.27,0.61l2.59,1.53l0.61,1.82l0.15,2.1
			l1.67,1.23l2.1-1.53l0.15-1.97l-0.91-1.23l-0.3-0.86l0,0L506.24,299.64z"/>
		<path id="c4W6INQPn" display="inline" fill="#DDDDDD" d="M505.5,338.66l-1.82,0.91l1.38,1.97l1.52-1.23l1.02-1.18l0,0
			L505.5,338.66z"/>
		<path id="d2X7ww9e0r_1_" fill-opacity="0" stroke="#FFFFFF" stroke-width="0.5" d="M517.35,326.1l-1.67,0.48l1.08,1.96l-3.2,0.16
			l-1.81,1.38l-0.16,3.35l0.48,1.23l-2.73,0.9l2.59,2.11l2.11-1.53l-0.91-1.38l-0.31-0.91l1.23-1.82l1.08-1.82l1.38,1.67l1.82-0.15
			l1.38,0.15l-0.61-1.97l1.38-0.47l1.82,2.1l1.23,1.82l-1.08,1.97l1.82,3.2l2.1,0.47l2.73-0.78l-0.47,1.67l1.51,0.47l0.61-2.1
			l-0.91-2.59l0.47-1.54l0.91-1.07l1.38,1.53l1.38,1.38l0.91-2.27l0.61-2.28l-0.78-3.04l-0.47-1.23l0.47-2.28l-0.15-2.42l-1.23-1.08
			l-0.91-0.91l-0.3-1.66l-2.73,0.3l-0.77,2.43l1.51,1.53l-1.22,0.15l-3.05-0.15l-0.3,1.23l0.6,2.27l-1.51-1.08l-1.23,0.91
			l-0.91,1.53l-1.08-0.15l-0.15-2.59l-1.83-0.46l0,0L517.35,326.1z"/>
		<path id="c4W6INQPn_1_" display="inline" fill-opacity="0" stroke="#FFFFFF" stroke-width="0.5" d="M505.5,338.66l-1.82,0.91
			l1.38,1.97l1.52-1.23l1.02-1.18l0,0L505.5,338.66z"/>
		<path id="cQAR4QILS" display="inline" fill="#DDDDDD" d="M517.15,305.87v1.38l2.73-0.61l1.97,1.08l-0.61-2.1l-2.1-0.91l-1.52-0.66
			l0,0L517.15,305.87z"/>
		<path id="cf9sXaClb" display="inline" fill="#DDDDDD" d="M523.55,309.81l0.6,1.97l-0.3,2.73l1.23-0.31l0.91,1.23l0.6,2.27
			l1.52-0.91l1.08-0.6l-0.91-2.73l-0.16-1.53l-2.42-1.53l-0.77-1.5l0,0L523.55,309.81z"/>
		<path id="a2BckopbcA" fill="#DDDDDD" d="M523.41,297.97l0.78,0.91l2.1-1.38l-1.52-1.97l-1.51,0.63l0,0L523.41,297.97z"/>
		<path id="d2X7ww9e0r" display="inline" fill="#DDDDDD" d="M517.35,326.1l-1.67,0.48l1.08,1.96l-3.2,0.16l-1.81,1.38l-0.16,3.35
			l0.48,1.23l-2.73,0.9l2.59,2.11l2.11-1.53l-0.91-1.38l-0.31-0.91l1.23-1.82l1.08-1.82l1.38,1.67l1.82-0.15l1.38,0.15l-0.61-1.97
			l1.38-0.47l1.82,2.1l1.23,1.82l-1.08,1.97l1.82,3.2l2.1,0.47l2.73-0.78l-0.47,1.67l1.51,0.47l0.61-2.1l-0.91-2.59l0.47-1.54
			l0.91-1.07l1.38,1.53l1.38,1.38l0.91-2.27l0.61-2.28l-0.78-3.04l-0.47-1.23l0.47-2.28l-0.15-2.42l-1.23-1.08l-0.91-0.91l-0.3-1.66
			l-2.73,0.3l-0.77,2.43l1.51,1.53l-1.22,0.15l-3.05-0.15l-0.3,1.23l0.6,2.27l-1.51-1.08l-1.23,0.91l-0.91,1.53l-1.08-0.15
			l-0.15-2.59l-1.83-0.46l0,0L517.35,326.1z"/>
		<path id="b4HeeOCtL9_1_" display="inline" fill-opacity="0" stroke="#FFFFFF" stroke-width="0.5" d="M506.24,299.64l-1.97-0.47
			l-2.27,0.61l2.59,1.53l0.61,1.82l0.15,2.1l1.67,1.23l2.1-1.53l0.15-1.97l-0.91-1.23l-0.3-0.86l0,0L506.24,299.64z"/>
		<path id="cQAR4QILS_1_" display="inline" fill-opacity="0" stroke="#FFFFFF" stroke-width="0.5" d="M517.15,305.87v1.38l2.73-0.61
			l1.97,1.08l-0.61-2.1l-2.1-0.91l-1.52-0.66l0,0L517.15,305.87z"/>
	</g>
	<path id="vietnam_1_" fill="#DDDDDD" d="M409.75,251.14l1.62,1.82l0.2,2.64l1.23,2.43l5.87-0.41l0.83,1.82l0.82,2.21l1.62,0.82
		l-2.43,1.43l-2.42,0.61v3.05l2.42,1.81l2.65,2.02l3.85,5.48l3.45,2.42l1.82,2.83l2.42,2.64v2.83l0.61,2.2l0.2,2.83v2.43l0.83,3.04
		l0.2,4.87l-1.23,2.2l-3.25,1.82l-3.25,0.83l0.41,2.42l1.43,2l-2.21-0.2l-3.25-0.4l-2.2,1.61l-2.64,0.83l-1.62,0.2l-1.25,0.91
		l2.65,0.82l1.23,1.23l1.81,0.2l-1.43,3.25l-0.2,2.01v2.2l-0.61,0.83l3.05-1.23l1.62-2.21l2.2-2.2l3.05-0.61l-0.61-2.02l1.62-2.2
		l1.43-0.83l3.25,1.01l2.83-0.4l-0.41-1.43l2.21-1.82l2.64-1.62l0.83-2.83l0.2-3.04l1.01-1.62l-0.61-3.65l-0.2-1.62l-0.82-5.27
		l-2.43-3.04l-2.83-4.06l-2.02-2.42l-2.82-1.44l-2.21-3.65l-1.6-1.83l-0.2-1.43l-1.62-2.43l-3.45-4.05l1.43-2.65l2.43-1.82l2.64-2
		l0.2-2.2l3.25-2.02l3.65-2.65l-6.88-4.47l0.6-2.65l-3.65-1.61l-3.04-0.41l-1.62-1.23l-2.64,0.83l-0.61,1.61l-1.82,0.21h-1.82
		l-2.2,1.43l-4.87-0.83l-1.76,2.21l0,0l0,0L409.75,251.14z"/>
	<path id="vietnam-w" fill-opacity="0" stroke="#FFFFFF" stroke-width="0.5" d="M409.75,251.14l1.62,1.82l0.2,2.64l1.23,2.43
		l5.87-0.41l0.83,1.82l0.82,2.21l1.62,0.82l-2.43,1.43l-2.42,0.61v3.05l2.42,1.81l2.65,2.02l3.85,5.48l3.45,2.42l1.82,2.83
		l2.42,2.64v2.83l0.61,2.2l0.2,2.83v2.43l0.83,3.04l0.2,4.87l-1.23,2.2l-3.25,1.82l-3.25,0.83l0.41,2.42l1.43,2l-2.21-0.2l-3.25-0.4
		l-2.2,1.61l-2.64,0.83l-1.62,0.2l-1.25,0.91l2.65,0.82l1.23,1.23l1.81,0.2l-1.43,3.25l-0.2,2.01v2.2l-0.61,0.83l3.05-1.23
		l1.62-2.21l2.2-2.2l3.05-0.61l-0.61-2.02l1.62-2.2l1.43-0.83l3.25,1.01l2.83-0.4l-0.41-1.43l2.21-1.82l2.64-1.62l0.83-2.83
		l0.2-3.04l1.01-1.62l-0.61-3.65l-0.2-1.62l-0.82-5.27l-2.43-3.04l-2.83-4.06l-2.02-2.42l-2.82-1.44l-2.21-3.65l-1.6-1.83l-0.2-1.43
		l-1.62-2.43l-3.45-4.05l1.43-2.65l2.43-1.82l2.64-2l0.2-2.2l3.25-2.02l3.65-2.65l-6.88-4.47l0.6-2.65l-3.65-1.61l-3.04-0.41
		l-1.62-1.23l-2.64,0.83l-0.61,1.61l-1.82,0.21h-1.82l-2.2,1.43l-4.87-0.83l-1.76,2.21l0,0l0,0L409.75,251.14z"/>
	<path id="laos_1_" fill="#DDDDDD" d="M399.43,255.79l-2.42,0.4l0.2,2.43l-1.43,1.23v1.61l2.83-0.6l0.2,3.04l2.83,1.01l0.82,3.86
		l-0.6,3.25l-1.23,4.26l6.07-3.25l2.65,1.23l2.02-0.21l0.82-2.2l2.02,0.6l2.02,2.21l2.83,1.43l2.02,3.65l0.2,3.86l3.05,3.65
		l1.01,4.26l-1.62,1.82l3.25,2.02l2.83-2.21l2.64,0.61l2.02-1.01l-0.82-5.07v-2.83l-4.26-5.47l-4.06-2.64l-3.25-5.27l-5.06-3.85
		v-3.05l4.05-1.82l-0.82-1.01l-1.62-4.06l-5.87,0.41l-1.23-2.43l-0.2-2.64l-4.06-3.45l-2.21,0.83l0.41,4.86l-2.02-0.2l-1.43-0.2
		l-1.15-1.27l0,0L399.43,255.79z"/>
	<path id="laos-w" fill-opacity="0" stroke="#FFFFFF" stroke-width="0.5" d="M399.43,255.79l-2.42,0.4l0.2,2.43l-1.43,1.23v1.61
		l2.83-0.6l0.2,3.04l2.83,1.01l0.82,3.86l-0.6,3.25l-1.23,4.26l6.07-3.25l2.65,1.23l2.02-0.21l0.82-2.2l2.02,0.6l2.02,2.21
		l2.83,1.43l2.02,3.65l0.2,3.86l3.05,3.65l1.01,4.26l-1.62,1.82l3.25,2.02l2.83-2.21l2.64,0.61l2.02-1.01l-0.82-5.07v-2.83
		l-4.26-5.47l-4.06-2.64l-3.25-5.27l-5.06-3.85v-3.05l4.05-1.82l-0.82-1.01l-1.62-4.06l-5.87,0.41l-1.23-2.43l-0.2-2.64l-4.06-3.45
		l-2.21,0.83l0.41,4.86l-2.02-0.2l-1.43-0.2l-1.15-1.27l0,0L399.43,255.79z"/>
	<path id="malaysia_1_" fill="#DDDDDD" d="M415.52,362.53h-3.19l-3.51-2.59l-3.04-1.67l-3.66-3.04l0.31-1.38l-3.35-4.13l-1.08-4.26
		l-0.47-3.35l-0.78-3.2l-2.1-3.35l2.27,0.16l1.38-1.23l1.52,1.07l1.38,0.78l-0.15,2.1l5.01-1.07l3.81,2.59l2.73,3.35l0.47,3.95
		l-0.61,4.87v2.89l3.05,2.28l0.91,2.1l0.33,1.6l0,0L415.52,362.53z"/>
	<path id="malaysia-w" fill-opacity="0" stroke="#FFFFFF" stroke-width="0.5" d="M415.52,362.53h-3.19l-3.51-2.59l-3.04-1.67
		l-3.66-3.04l0.31-1.38l-3.35-4.13l-1.08-4.26l-0.47-3.35l-0.78-3.2l-2.1-3.35l2.27,0.16l1.38-1.23l1.52,1.07l1.38,0.78l-0.15,2.1
		l5.01-1.07l3.81,2.59l2.73,3.35l0.47,3.95l-0.61,4.87v2.89l3.05,2.28l0.91,2.1l0.33,1.6l0,0L415.52,362.53z"/>
	<path id="myanmar_1_" fill="#DDDDDD" d="M378.96,218.77l1.82,2.65l-3.65-0.61l-3.66,0.82l-3.25,4.48l-0.82,5.88l-2.64,6.07
		l-1.01,3.05l-2.83-1.82l-2.83-0.2l0.4,6.28l-0.6,4.26l-1.62,1.23l-1.01,3.25l-0.6,1.43l-1.23-0.41l0.2,3.25l0.61,2.43l2.82,2.82
		l2.02,0.61l1.23,3.85l-0.4,1.82l2.02-1.43l1.82,4.06l0.82,4.48l0.83,3.85l-2.43,1.62l0.2,2.83l3.86,1.61l2.42-0.82l3.45-2.21
		l2.65-1.01l0.2-4.06l2.64,2.43l1.01,1.82l0.83,1.81l0.6,4.48l2.43,4.87l0.82,3.25l1.23,3.65l0.2,4.48l1.01,3.65l-1.81,2.83
		l-0.21,3.45l0.83,1.43l1.01-3.05l2.42-2.82l1.92-3.71l0.1-2.59l-1.31-3.05l0.3-3.65l-0.47-1.82l-1.23-1.97l-1.97-1.23l-1.51-3.5
		l2.59-1.66l-0.61-8.67l-2.89-1.38l-1.38-5.63l-2.27-2.72l2.27-2.11l1.51-3.2l4.26-0.15l2.73-2.89l4.43-2.36l-0.21-2.42l2.43-0.41
		l1.43-2.2h-3.45l-4.87-4.65l0.41-3.05l-1.43-2l-1.43-5.27l-5.68,0.83l-0.82,0.2l-0.2-2.83l1.22-3.25l2.21-3.25l1.23-2.2v-5.88
		l0.2-2.64l-2.83-1.01l-0.6-3.86l-1.4-0.01l0,0L378.96,218.77z"/>
	<path id="myanmar-w" fill-opacity="0" stroke="#FFFFFF" stroke-width="0.5" d="M378.96,218.77l1.82,2.65l-3.65-0.61l-3.66,0.82
		l-3.25,4.48l-0.82,5.88l-2.64,6.07l-1.01,3.05l-2.83-1.82l-2.83-0.2l0.4,6.28l-0.6,4.26l-1.62,1.23l-1.01,3.25l-0.6,1.43
		l-1.23-0.41l0.2,3.25l0.61,2.43l2.82,2.82l2.02,0.61l1.23,3.85l-0.4,1.82l2.02-1.43l1.82,4.06l0.82,4.48l0.83,3.85l-2.43,1.62
		l0.2,2.83l3.86,1.61l2.42-0.82l3.45-2.21l2.65-1.01l0.2-4.06l2.64,2.43l1.01,1.82l0.83,1.81l0.6,4.48l2.43,4.87l0.82,3.25
		l1.23,3.65l0.2,4.48l1.01,3.65l-1.81,2.83l-0.21,3.45l0.83,1.43l1.01-3.05l2.42-2.82l1.92-3.71l0.1-2.59l-1.31-3.05l0.3-3.65
		l-0.47-1.82l-1.23-1.97l-1.97-1.23l-1.51-3.5l2.59-1.66l-0.61-8.67l-2.89-1.38l-1.38-5.63l-2.27-2.72l2.27-2.11l1.51-3.2l4.26-0.15
		l2.73-2.89l4.43-2.36l-0.21-2.42l2.43-0.41l1.43-2.2h-3.45l-4.87-4.65l0.41-3.05l-1.43-2l-1.43-5.27l-5.68,0.83l-0.82,0.2
		l-0.2-2.83l1.22-3.25l2.21-3.25l1.23-2.2v-5.88l0.2-2.64l-2.83-1.01l-0.6-3.86l-1.4-0.01l0,0L378.96,218.77z"/>
	<path id="bangladesh_1_" fill="#DDDDDD" d="M334,228.69l-0.83,1.01l3.25,2.2l0.61,1.82l-1.82,0.83l-1.23,2.02l-1.23-0.21l1.82,3.25
		h1.82l0.4,3.05l1.23,3.05l0.2,4.05l-0.2,4.26l3.86-0.6l3.85-1.82l0.2-3.25l0.83,2l2.02-1.01l0.2-1.43l2.42-0.4l1.44,2.42l0.4,3.25
		v2.64l2.42,2.43l-0.82-3.86l1.82,0.41l1.01-4.48l-1.43-5.88l-1.82-2.64l-1.23,3.65l-1.62-0.4l-1.61-1.62l0.82-3.65l1.82-0.82
		l1.62-1.01l2.42-4.26h-4.48l-8.5,0.2l-1.01-2.43l-1.23-4.47l-2.2,1.23l-1.23-2.43l-1.01,0.41l-1.97-1.37l0,0L334,228.69z"/>
	<path id="bangladesh-w" fill-opacity="0" stroke="#FFFFFF" stroke-width="0.5" d="M334,228.69l-0.83,1.01l3.25,2.2l0.61,1.82
		l-1.82,0.83l-1.23,2.02l-1.23-0.21l1.82,3.25h1.82l0.4,3.05l1.23,3.05l0.2,4.05l-0.2,4.26l3.86-0.6l3.85-1.82l0.2-3.25l0.83,2
		l2.02-1.01l0.2-1.43l2.42-0.4l1.44,2.42l0.4,3.25v2.64l2.42,2.43l-0.82-3.86l1.82,0.41l1.01-4.48l-1.43-5.88l-1.82-2.64l-1.23,3.65
		l-1.62-0.4l-1.61-1.62l0.82-3.65l1.82-0.82l1.62-1.01l2.42-4.26h-4.48l-8.5,0.2l-1.01-2.43l-1.23-4.47l-2.2,1.23l-1.23-2.43
		l-1.01,0.41l-1.97-1.37l0,0L334,228.69z"/>
	<path id="bhutan_1_" fill="#DDDDDD" d="M338.27,222.19l3.25,0.61l3.05,1.43l1.82-1.23l3.45,0.4h4.06l0.6-2.83l-2.02-1.23l-0.2-2.02
		l-5.47-2.02h-3.45l-2.83,2.02l-2.05,2.04l0,0L338.27,222.19z"/>
	<path id="bhutan-w" fill-opacity="0" stroke="#FFFFFF" stroke-width="0.5" d="M338.27,222.19l3.25,0.61l3.05,1.43l1.82-1.23
		l3.45,0.4h4.06l0.6-2.83l-2.02-1.23l-0.2-2.02l-5.47-2.02h-3.45l-2.83,2.02l-2.05,2.04l0,0L338.27,222.19z"/>
	<path id="nepal_1_" fill="#DDDDDD" d="M331.78,219.93l1.01,3.86l-2.02,2.02h-2.65l-3.45-1.43l-2.42,0.4l-2.83-2l-4.26-0.41v-2.42
		l-8.72-0.82l-3.45-2.02l-4.64-2.21l-3.86-2l-3.05-2.02l5.07-8.3l3.05,0.2h2.02l2.83,2l3.24,1.62l0.83,0.82l1.43,2.21l3.05-0.83
		l3.65,1.44l1.43,1.61l1.23,1.43l5.47,0.2l3.25,3.66l5.22,0.79l0,0L331.78,219.93z"/>
	<path id="nepal-w" fill-opacity="0" stroke="#FFFFFF" stroke-width="0.5" d="M331.78,219.93l1.01,3.86l-2.02,2.02h-2.65l-3.45-1.43
		l-2.42,0.4l-2.83-2l-4.26-0.41v-2.42l-8.72-0.82l-3.45-2.02l-4.64-2.21l-3.86-2l-3.05-2.02l5.07-8.3l3.05,0.2h2.02l2.83,2
		l3.24,1.62l0.83,0.82l1.43,2.21l3.05-0.83l3.65,1.44l1.43,1.61l1.23,1.43l5.47,0.2l3.25,3.66l5.22,0.79l0,0L331.78,219.93z"/>
	<path id="india_1_" fill="#DDDDDD" d="M281.16,326.51l-0.2-3.45l2.2-0.83l3.25-0.4l-1.23-1.82l1.23-3.25l1.23,0.41l1.82-2.83
		l-1.01-6.69l2.2-3.45l2.02-3.04l-1.23-5.47l-1.01-3.25l2.02-6.08l2.43,1.01l2.83-3.45h3.65l1.61-2.43v-2.82l2.21-1.82l5.27-3.65
		l4.64-2.43l2.21-5.27l1.23-1.01l1.43,0.83l5.07-1.62l2.42-3.65v-4.26l3.45-1.82l2.02-4.86l0.61,3.45l1.01,1.61l3.45-0.2l0.2-5.87
		l-1.43-4.87l-0.4-3.65h-1.82l-1.82-3.25l1.23,0.2l1.23-2.02l1.82-0.82l-0.61-1.82l-3.25-2.21l0.83-1.01l0.82-3.45l2.21,1.01
		l1.01-0.4l1.22,2.42l2.21-1.23l2.2,6.89l12.98-0.2l-2.42,4.26l-3.45,1.81l-0.83,3.66l3.25,2.02l1.82-3.86l1.62,3.45l1.01,5.27
		l2.2-0.82l0.61-4.26l-0.41-6.28l2.83,0.2l2.64,1.43l3.86-8.72l0.82-5.87l3.25-4.48l3.66-0.83l3.65,0.61l-1.82-2.64l4.48-3.86h-4.26
		l-3.05-1.43l-1.01-5.07h-3.85l-1.43,1.01l-6.47,1.23l-2.83,3.45l-3.65,2.83l-2.42,0.83l-2.21-0.41l0.2,2.02l2.02,1.23l-0.6,2.83
		l-7.51-0.4l-1.82,1.23l-3.04-1.44l-3.25-0.6l0.2-2.83l-0.61-2.64l-4.64,1.01l-1.43,2.2l0.82,3.05l-1.82,2.83h-2.64l-3.45-1.43
		l-2.42,0.4l-2.83-2.02l-4.26-0.4v-2.02l-8.72-1.23l-3.45-2.02l-11.53-6.28l5.06-8.3l-4.05-2.83l-2.43-1.23l-0.6-2.02l-2.65-0.2
		l-1.81-3.65l-2.02-1.82l-0.41-1.62l3.86,0.61l0.6-4.86l-3.85-3.86l0.2-3.85l-2.21-2.83l-1.91-4.06l-3.76,0.3l0.61,2.21l-4.87,2.2
		l-2.94,1.13l-5.17-0.1l-2.95-1.31l-1.51,2.2l0.2,4.77l1.01,4.26l3.65,1.81l1.52,1.54l0.4,2.3l-1.92,1.53l-2.02,0.71l0.1,3.75
		l-2.82,2.53v2.52l-3.66,3.35l-1.13,3.25l-4.54,3.96l-1.62,2.64l-5.77,2.02l-2.21-2.02l-2.82,2.65l-1.43,3.85l2.82,3.45l0.21,3.45
		l2.64,1.43l1.61,4.48l-0.2,2.83l-2.64,1.43l-1.01-0.83h-5.27l-3.05,0.41l-3.04,3.65l3.04,2.83l2.02,1.82h5.07l0.83,0.2l-0.83,1.43
		l-3.25,1.62l-2.64-0.61l2.02,3.86l3.45,2.02l1.62,2.42l4.47,1.23l4.06-1.62l1.82-3.04l0.2-3.86h2.21l-1.01,2.21l0.82,2.82
		l0.83,3.66l-0.83,3.65l0.4,4.65l0.41,4.05l0.6,3.05l2.21,1.62l-0.83,5.06l0.83,2.65l2.83,3.85l1.23,3.65l1.01,3.25l2.02,3.65
		l1.01,3.46l0.4,2.2l3.25,5.27l1.23,2.64l1.43,4.65l0.61,3.65l2.64,3.86l1.23,1.43l1.82,1.01l1.24,0.69l0,0L281.16,326.51z"/>
	<path id="india-w" fill-opacity="0" stroke="#FFFFFF" stroke-width="0.5" d="M281.16,326.51l-0.2-3.45l2.2-0.83l3.25-0.4
		l-1.23-1.82l1.23-3.25l1.23,0.41l1.82-2.83l-1.01-6.69l2.2-3.45l2.02-3.04l-1.23-5.47l-1.01-3.25l2.02-6.08l2.43,1.01l2.83-3.45
		h3.65l1.61-2.43v-2.82l2.21-1.82l5.27-3.65l4.64-2.43l2.21-5.27l1.23-1.01l1.43,0.83l5.07-1.62l2.42-3.65v-4.26l3.45-1.82
		l2.02-4.86l0.61,3.45l1.01,1.61l3.45-0.2l0.2-5.87l-1.43-4.87l-0.4-3.65h-1.82l-1.82-3.25l1.23,0.2l1.23-2.02l1.82-0.82l-0.61-1.82
		l-3.25-2.21l0.83-1.01l0.82-3.45l2.21,1.01l1.01-0.4l1.22,2.42l2.21-1.23l2.2,6.89l12.98-0.2l-2.42,4.26l-3.45,1.81l-0.83,3.66
		l3.25,2.02l1.82-3.86l1.62,3.45l1.01,5.27l2.2-0.82l0.61-4.26l-0.41-6.28l2.83,0.2l2.64,1.43l3.86-8.72l0.82-5.87l3.25-4.48
		l3.66-0.83l3.65,0.61l-1.82-2.64l4.48-3.86h-4.26l-3.05-1.43l-1.01-5.07h-3.85l-1.43,1.01l-6.47,1.23l-2.83,3.45l-3.65,2.83
		l-2.42,0.83l-2.21-0.41l0.2,2.02l2.02,1.23l-0.6,2.83l-7.51-0.4l-1.82,1.23l-3.04-1.44l-3.25-0.6l0.2-2.83l-0.61-2.64l-4.64,1.01
		l-1.43,2.2l0.82,3.05l-1.82,2.83h-2.64l-3.45-1.43l-2.42,0.4l-2.83-2.02l-4.26-0.4v-2.02l-8.72-1.23l-3.45-2.02l-11.53-6.28
		l5.06-8.3l-4.05-2.83l-2.43-1.23l-0.6-2.02l-2.65-0.2l-1.81-3.65l-2.02-1.82l-0.41-1.62l3.86,0.61l0.6-4.86l-3.85-3.86l0.2-3.85
		l-2.21-2.83l-1.91-4.06l-3.76,0.3l0.61,2.21l-4.87,2.2l-2.94,1.13l-5.17-0.1l-2.95-1.31l-1.51,2.2l0.2,4.77l1.01,4.26l3.65,1.81
		l1.52,1.54l0.4,2.3l-1.92,1.53l-2.02,0.71l0.1,3.75l-2.82,2.53v2.52l-3.66,3.35l-1.13,3.25l-4.54,3.96l-1.62,2.64l-5.77,2.02
		l-2.21-2.02l-2.82,2.65l-1.43,3.85l2.82,3.45l0.21,3.45l2.64,1.43l1.61,4.48l-0.2,2.83l-2.64,1.43l-1.01-0.83h-5.27l-3.05,0.41
		l-3.04,3.65l3.04,2.83l2.02,1.82h5.07l0.83,0.2l-0.83,1.43l-3.25,1.62l-2.64-0.61l2.02,3.86l3.45,2.02l1.62,2.42l4.47,1.23
		l4.06-1.62l1.82-3.04l0.2-3.86h2.21l-1.01,2.21l0.82,2.82l0.83,3.66l-0.83,3.65l0.4,4.65l0.41,4.05l0.6,3.05l2.21,1.62l-0.83,5.06
		l0.83,2.65l2.83,3.85l1.23,3.65l1.01,3.25l2.02,3.65l1.01,3.46l0.4,2.2l3.25,5.27l1.23,2.64l1.43,4.65l0.61,3.65l2.64,3.86
		l1.23,1.43l1.82,1.01l1.24,0.69l0,0L281.16,326.51z"/>
	<path id="sri-lanka_1_" fill="#DDDDDD" d="M290.06,324.47l-1.43,3.65l0.83,4.65l0.4,4.26l1.01,1.61l5.88-0.6l2.82-2l0.61-5.68
		l-2.42-2.02l-0.83-2.42l-2.02-2.83l-1.23-2.02l-2.02-1.01l-1.19-1.06l0,0L290.06,324.47z"/>
	<path id="sri-lanka-w" fill-opacity="0" stroke="#FFFFFF" stroke-width="0.5" d="M290.06,324.47l-1.43,3.65l0.83,4.65l0.4,4.26
		l1.01,1.61l5.88-0.6l2.82-2l0.61-5.68l-2.42-2.02l-0.83-2.42l-2.02-2.83l-1.23-2.02l-2.02-1.01l-1.19-1.06l0,0L290.06,324.47z"/>
	<path id="pakistan_1_" fill="#DDDDDD" d="M224.41,241.43l-2.02-3.25l-2.42-4.86h-2.43l-5.27,0.4h-3.24l-4.87-0.82l-6.88,1.22
		l-3.66,0.41l-0.4-2.02l0.82-5.27l3.25-2l2.83-2.43l1.23-1.61l-1.62-0.41l-0.4-3.65l-3.25-4.06L190,206.2l5.68,2.83h4.05l3.25-0.41
		l5.68,0.41l6.07-2.43l2.83-0.4l3.25-9.73l4.06-0.41l3.24-2.42h2.83l0.83,1.62l3.65-8.91l3.65-0.82l-0.82-6.47l5.67-0.4v-2.43
		l2.02-3.65l0.41-4.48l-0.41-3.65l4.48-2l5.67-2.43l4.06,1.62l2.64-1.43l4.26,0.2l5.47,6.68l3.86,0.83l2.42,2.2l-3.25,0.52
		l0.61,2.21l-7.8,3.35l-5.16-0.1l-2.95-1.31l-1.51,2.2l0.2,4.76l1.01,4.26l3.65,1.82l1.01,1.52l0.91,2.3l-1.92,1.54l-2.02,0.7
		l0.1,3.76l-2.83,2.52v2.53l-4.15,3.45l-1.23,3.25l-4.48,4.05l-1.62,2.65l-5.27,1.81l-2.2-2.02l-2.83,2.65l-1.82,4.47l3.25,2.83
		l0.2,4.06l2.65,0.82l1.61,4.48l-0.2,2.83l-2.64,1.43l-2.02-0.61l-7.31,0.21l-3.13,3.6l0,0L224.41,241.43z"/>
	<path id="pakistan-w" fill-opacity="0" stroke="#FFFFFF" stroke-width="0.5" d="M224.41,241.43l-2.02-3.25l-2.42-4.86h-2.43
		l-5.27,0.4h-3.24l-4.87-0.82l-6.88,1.22l-3.66,0.41l-0.4-2.02l0.82-5.27l3.25-2l2.83-2.43l1.23-1.61l-1.62-0.41l-0.4-3.65
		l-3.25-4.06L190,206.2l5.68,2.83h4.05l3.25-0.41l5.68,0.41l6.07-2.43l2.83-0.4l3.25-9.73l4.06-0.41l3.24-2.42h2.83l0.83,1.62
		l3.65-8.91l3.65-0.82l-0.82-6.47l5.67-0.4v-2.43l2.02-3.65l0.41-4.48l-0.41-3.65l4.48-2l5.67-2.43l4.06,1.62l2.64-1.43l4.26,0.2
		l5.47,6.68l3.86,0.83l2.42,2.2l-3.25,0.52l0.61,2.21l-7.8,3.35l-5.16-0.1l-2.95-1.31l-1.51,2.2l0.2,4.76l1.01,4.26l3.65,1.82
		l1.01,1.52l0.91,2.3l-1.92,1.54l-2.02,0.7l0.1,3.76l-2.83,2.52v2.53l-4.15,3.45l-1.23,3.25l-4.48,4.05l-1.62,2.65l-5.27,1.81
		l-2.2-2.02l-2.83,2.65l-1.82,4.47l3.25,2.83l0.2,4.06l2.65,0.82l1.61,4.48l-0.2,2.83l-2.64,1.43l-2.02-0.61l-7.31,0.21l-3.13,3.6
		l0,0L224.41,241.43z"/>
	<path id="afghanistan_1_" fill="#DDDDDD" d="M190.81,204.78l2.83-4.05l0.4-4.48l-3.45-0.83l-1.01-6.88l-1.43-3.05l0.83-2.83
		l-1.23-1.22l0.4-3.46l1.62-3.85l1.82-5.07l2.42,1.01l2.83,0.41l0.82,1.23l2.83-1.01l1.62-4.06l5.87-1.82l2.02-3.85l1.23-2.43
		l2.64-0.2l2.83-0.61l2.64,0.21l3.25,0.4l3.66,1.01l5.27-0.2l1.43,0.2l2.42-2.42l2.42-0.61l3.05-4.87l2.21,0.21l0.82,2.82l1.01,0.21
		l0.83,3.45l-0.21,2.83l2.02,0.4l4.26-2.64l2.65-1.43l2.42-0.41l1.43,1.43l3.86-1.01l1.01,0.2l-0.41,2.65l-2.64,1.43l-4.06-1.62
		l-10.13,4.48l0.4,3.65l-0.4,3.66l-2.02,4.47v2.43l-5.67,0.4l0.82,6.47l-3.65,0.82l-3.45,7.69l-1.01-0.4h-2.83l-2.64,2.02
		l-4.65,0.82l-3.25,9.73l-3.45,0.61l-5.47,2.21l-5.67-0.41l-7.31,0.41l-4.65-1.82l0,0L190.81,204.78z"/>
	<path id="afghanistan-w" fill-opacity="0" stroke="#FFFFFF" stroke-width="0.5" d="M190.81,204.78l2.83-4.05l0.4-4.48l-3.45-0.83
		l-1.01-6.88l-1.43-3.05l0.83-2.83l-1.23-1.22l0.4-3.46l1.62-3.85l1.82-5.07l2.42,1.01l2.83,0.41l0.82,1.23l2.83-1.01l1.62-4.06
		l5.87-1.82l2.02-3.85l1.23-2.43l2.64-0.2l2.83-0.61l2.64,0.21l3.25,0.4l3.66,1.01l5.27-0.2l1.43,0.2l2.42-2.42l2.42-0.61l3.05-4.87
		l2.21,0.21l0.82,2.82l1.01,0.21l0.83,3.45l-0.21,2.83l2.02,0.4l4.26-2.64l2.65-1.43l2.42-0.41l1.43,1.43l3.86-1.01l1.01,0.2
		l-0.41,2.65l-2.64,1.43l-4.06-1.62l-10.13,4.48l0.4,3.65l-0.4,3.66l-2.02,4.47v2.43l-5.67,0.4l0.82,6.47l-3.65,0.82l-3.45,7.69
		l-1.01-0.4h-2.83l-2.64,2.02l-4.65,0.82l-3.25,9.73l-3.45,0.61l-5.47,2.21l-5.67-0.41l-7.31,0.41l-4.65-1.82l0,0L190.81,204.78z"/>
	<path id="tajikistan_1_" fill="#DDDDDD" d="M228.27,155.75l0.2-2.43l-0.2-5.47l-2.02-1.43l-0.83-0.82l-0.2-1.43l4.48-0.41l0.6-3.25
		l1.82-4.05l1.82,0.6l0.2-2l1.43,0.4l4.48-2.2l0.61,2.42l-1.23,1.43l1.43,1.43l-2.43,0.41l-2.82,0.6l-1.01,1.23l-2.43-0.2l0.41,1.82
		h2.02l2.02,0.4l1.81,1.01h4.48l2.43-0.82l1.01,0.2l1.81,1.62l3.66-1.01l1.81-0.83l3.46,1.01l0.2,1.82l1.01,2.83l0.2,1.23l2.64-0.21
		l2.43,2.43l0.4,3.85l-1.23,1.01l-3.65,1.23l-2.21-1.23l-2.42,0.41l-6.89,4.05l-2.02-0.4l0.41-2.21l-1.01-4.05l-1.01-0.21
		l-0.79-2.59l-2.51-0.54l-3.05,5.24l-2.15,0.3l-2.43,2.43h-2l-3.89,0.3l-0.87-0.27l0,0l0,0L228.27,155.75z"/>
	<path id="tajikistan-w" fill-opacity="0" stroke="#FFFFFF" stroke-width="0.5" d="M228.27,155.75l0.2-2.43l-0.2-5.47l-2.02-1.43
		l-0.83-0.82l-0.2-1.43l4.48-0.41l0.6-3.25l1.82-4.05l1.82,0.6l0.2-2l1.43,0.4l4.48-2.2l0.61,2.42l-1.23,1.43l1.43,1.43l-2.43,0.41
		l-2.82,0.6l-1.01,1.23l-2.43-0.2l0.41,1.82h2.02l2.02,0.4l1.81,1.01h4.48l2.43-0.82l1.01,0.2l1.81,1.62l3.66-1.01l1.81-0.83
		l3.46,1.01l0.2,1.82l1.01,2.83l0.2,1.23l2.64-0.21l2.43,2.43l0.4,3.85l-1.23,1.01l-3.65,1.23l-2.21-1.23l-2.42,0.41l-6.89,4.05
		l-2.02-0.4l0.41-2.21l-1.01-4.05l-1.01-0.21l-0.79-2.59l-2.51-0.54l-3.05,5.24l-2.15,0.3l-2.43,2.43h-2l-3.89,0.3l-0.87-0.27l0,0
		l0,0L228.27,155.75z"/>
	<path id="kyrgyzstan_1_" fill="#DDDDDD" d="M246.35,138.36l2.59-1.53l2.81-1.89l1.51-1.53l-2.96-1.67l-1.97,0.84l-1.58-0.15
		l-1.82-2.27l-3.2,1.14l-3.2-1.22l0.31-0.91l2.89-1.38l1.89-1.75l0.99-0.78l-1.29-1.75l1.97-2.34l3.58,0.07H253l3.88,1.75l1-1.08
		l-0.31-3.5l2.43-1.53l2.34,0.07l2.03,1.44l3.72,1.08l3.89-0.47l3.05-0.39l4.34-0.15l2.9-0.61l2.42,0.48l2.04,2.66l1.82,2.17
		l2.59-0.07l0.47,1.45l-1.66,2.51l-3.05,0.99l-3.72,2.1l-3.89,2.6l-4.71,0.47l-5.14,4.64l-2.76-1.24l-3.96,2.51l-4.56,2.03
		l-0.77,2.66l-3.77-0.91l-5.27,1.82l-2.27-1.82l-1.08-0.06l-2.11,0.89l-4.02-0.12l-2.22-0.89l-3.6-0.56l-0.69-1.58l2.22,0.12
		l1.18-1.43l4.71-0.84l0.79,0.08l0,0l0,0l0,0L246.35,138.36z"/>
	<path id="kyrgyzstan-w" fill-opacity="0" stroke="#FFFFFF" stroke-width="0.5" d="M246.35,138.36l2.59-1.53l2.81-1.89l1.51-1.53
		l-2.96-1.67l-1.97,0.84l-1.58-0.15l-1.82-2.27l-3.2,1.14l-3.2-1.22l0.31-0.91l2.89-1.38l1.89-1.75l0.99-0.78l-1.29-1.75l1.97-2.34
		l3.58,0.07H253l3.88,1.75l1-1.08l-0.31-3.5l2.43-1.53l2.34,0.07l2.03,1.44l3.72,1.08l3.89-0.47l3.05-0.39l4.34-0.15l2.9-0.61
		l2.42,0.48l2.04,2.66l1.82,2.17l2.59-0.07l0.47,1.45l-1.66,2.51l-3.05,0.99l-3.72,2.1l-3.89,2.6l-4.71,0.47l-5.14,4.64l-2.76-1.24
		l-3.96,2.51l-4.56,2.03l-0.77,2.66l-3.77-0.91l-5.27,1.82l-2.27-1.82l-1.08-0.06l-2.11,0.89l-4.02-0.12l-2.22-0.89l-3.6-0.56
		l-0.69-1.58l2.22,0.12l1.18-1.43l4.71-0.84l0.79,0.08l0,0l0,0l0,0L246.35,138.36z"/>
	<path id="turkmenistan_1_" fill="#DDDDDD" d="M151.86,151.39l-0.3-2.11l1.51-2.42l-1.97-0.78l-1.23-1.66l0.91-3.2l-3.65-0.3
		l0.3,1.53l-1.67-1.38l0.31-3.65l0.91-1.97l2.42,0.3l3.05,0.47l2.89-0.3l1.38-1.97l-0.15-1.23l-2.73-1.97l-1.66-2.11l-1.08-2.27
		l-3.05,0.91l-0.91,1.53l-0.3,3.35l-1.85-2.93l0.91-3.5l2.59-1.82l4.43-0.9l3.05,0.3l2.59,1.38l1.66,3.05l1.82,1.66l3.5,0.31
		l3.05,0.15l1.67,0.15l-0.31-4.72l3.66-0.9l1.23-1.54l0.91-0.6l0.77-1.08l2.1-0.15l2.11,1.97l0.91,1.53l1.66,0.61l1.67,2.42
		l1.38,2.27l1.23,1.38l5.32,0.15l2.27,1.97l1.52,2.43l0.77,1.82l1.97,3.5l1.38,1.97l3.05,2.59l3.65,1.82l3.35,2.59l3.05,2.1
		l2.89,0.91l3.35,0.61l-0.7,4.36l-2.65-0.2l-3.95,0.55l-1.52,0.26l-3.65,6.12l-5.47,1.97l-1.62,4.06l-2.83,1.01l-0.82-1.23
		l-2.02,0.1l-3.25-1.53l-0.88-6.99l-3.95-0.15l-1.97-2.89l-2.11-0.31l-1.81-3.04l-1.67-0.31l-1.38,0.48l-2.73-0.31l-0.91-1.53
		l-2.1-0.3l-0.91-1.97l-4.43-0.15l-2.59,1.07l-2.73-0.3l-3.5,1.82l-0.77,2.73l-4.29,0.77l0,0l0,0L151.86,151.39z"/>
	<path id="turkmenistan-w" fill-opacity="0" stroke="#FFFFFF" stroke-width="0.5" d="M151.86,151.39l-0.3-2.11l1.51-2.42l-1.97-0.78
		l-1.23-1.66l0.91-3.2l-3.65-0.3l0.3,1.53l-1.67-1.38l0.31-3.65l0.91-1.97l2.42,0.3l3.05,0.47l2.89-0.3l1.38-1.97l-0.15-1.23
		l-2.73-1.97l-1.66-2.11l-1.08-2.27l-3.05,0.91l-0.91,1.53l-0.3,3.35l-1.85-2.93l0.91-3.5l2.59-1.82l4.43-0.9l3.05,0.3l2.59,1.38
		l1.66,3.05l1.82,1.66l3.5,0.31l3.05,0.15l1.67,0.15l-0.31-4.72l3.66-0.9l1.23-1.54l0.91-0.6l0.77-1.08l2.1-0.15l2.11,1.97
		l0.91,1.53l1.66,0.61l1.67,2.42l1.38,2.27l1.23,1.38l5.32,0.15l2.27,1.97l1.52,2.43l0.77,1.82l1.97,3.5l1.38,1.97l3.05,2.59
		l3.65,1.82l3.35,2.59l3.05,2.1l2.89,0.91l3.35,0.61l-0.7,4.36l-2.65-0.2l-3.95,0.55l-1.52,0.26l-3.65,6.12l-5.47,1.97l-1.62,4.06
		l-2.83,1.01l-0.82-1.23l-2.02,0.1l-3.25-1.53l-0.88-6.99l-3.95-0.15l-1.97-2.89l-2.11-0.31l-1.81-3.04l-1.67-0.31l-1.38,0.48
		l-2.73-0.31l-0.91-1.53l-2.1-0.3l-0.91-1.97l-4.43-0.15l-2.59,1.07l-2.73-0.3l-3.5,1.82l-0.77,2.73l-4.29,0.77l0,0l0,0
		L151.86,151.39z"/>
	<path id="uzbekistan_1_" fill="#DDDDDD" d="M164.45,101.98l13.08-2.73l-1.08,3.81l-1.38,4.42l0.3,2.28l0.78,3.95l3.65,0.61
		l1.97-0.15l1.52,2.1l2.1-1.23l0.61-1.07l1.51,0.15l0.61-2.9l1.23,0.3l4.56,3.51l5.77-0.48l3.96,1.54l4.26-0.78l3.5,3.35l1.23,6.23
		l1.23,2.9l-0.31,1.97l-2.1,1.66l2.73,1.97l6.23,0.61l3.65,0.91l1.38,1.66l2.89,1.08l1.23-2.42l1.38-3.81l2.6-3.04l3.65-0.48
		l3.95-1.97l1.23,0.91l-3.41,2.28l-0.31,0.91l3.2,1.22l3.2-1.14l1.82,2.27l1.58,0.15l1.97-0.84l2.96,1.67l-6.29,4.86l-6.54,0.24
		l-1.01-1.42l1.23-1.43l-0.6-2.42l-4.48,2.21l-1.97-0.88v2.27l-1.97-0.3l-1.31,3.96l-0.61,3.24l-4.48,0.41l0.48,2.27l2.1,1.52
		l0.47,7.74l-2.02,3.65l-3.65-1.01l-3.25-0.4l0.71-4.36l-6.23-1.53l-6.37-4.72l-3.65-1.82l-3.05-2.59l-4.12-7.3l-1.51-2.43
		l-2.28-1.97l-5.32-0.15l-3.95-5.62l-1.52-0.91l-2.59-3.2l-1.38-0.6l-1.67,0.3l-1.66,1.67l-1.23,1.53l-3.66,0.91l0.31,4.71
		l-4.72-0.3l-0.37-0.78l0,0L164.45,101.98z"/>
	<path id="uzbekistan-w" fill-opacity="0" stroke="#FFFFFF" stroke-width="0.5" d="M164.45,101.98l13.08-2.73l-1.08,3.81l-1.38,4.42
		l0.3,2.28l0.78,3.95l3.65,0.61l1.97-0.15l1.52,2.1l2.1-1.23l0.61-1.07l1.51,0.15l0.61-2.9l1.23,0.3l4.56,3.51l5.77-0.48l3.96,1.54
		l4.26-0.78l3.5,3.35l1.23,6.23l1.23,2.9l-0.31,1.97l-2.1,1.66l2.73,1.97l6.23,0.61l3.65,0.91l1.38,1.66l2.89,1.08l1.23-2.42
		l1.38-3.81l2.6-3.04l3.65-0.48l3.95-1.97l1.23,0.91l-3.41,2.28l-0.31,0.91l3.2,1.22l3.2-1.14l1.82,2.27l1.58,0.15l1.97-0.84
		l2.96,1.67l-6.29,4.86l-6.54,0.24l-1.01-1.42l1.23-1.43l-0.6-2.42l-4.48,2.21l-1.97-0.88v2.27l-1.97-0.3l-1.31,3.96l-0.61,3.24
		l-4.48,0.41l0.48,2.27l2.1,1.52l0.47,7.74l-2.02,3.65l-3.65-1.01l-3.25-0.4l0.71-4.36l-6.23-1.53l-6.37-4.72l-3.65-1.82l-3.05-2.59
		l-4.12-7.3l-1.51-2.43l-2.28-1.97l-5.32-0.15l-3.95-5.62l-1.52-0.91l-2.59-3.2l-1.38-0.6l-1.67,0.3l-1.66,1.67l-1.23,1.53
		l-3.66,0.91l0.31,4.71l-4.72-0.3l-0.37-0.78l0,0L164.45,101.98z"/>
	<path id="kazakhstan_1_" fill="#DDDDDD" d="M162.03,129.32l-1.82-1.67l-1.67-3.05l-3.2-1.86l-3.25,0.4l-2.02,0.2l-2.02,1.01
		l-2.1,1.32l-0.71,2.3l-1.23-1.01l0.41-2l1.01-2.83v-1.23l-3.66-0.2l-1.22-2.02h-1.82l-0.41-2.02l-1.01-2.64l-1.61-3.05l-2.21-0.61
		l-0.82-3.25l3.04,0.61l3.66,0.61l-1.01-2.21l3.04-4.26l0.61,2.83l1.23-2.42h3.85l0.83,1.61l3.65-0.82l-1.82,2.2l-1.22,2.65
		l0.4,1.43l1.82-1.82l2.02-2.64l4.26,0.2l-0.61-3.66l-1.82-1.81l-2.42-1.43l-0.83-2.83l-2.82-3.66l-2.43-3.04h-4.86l-5.07-0.41
		l-3.45,2.02l-3.45,1.01l-2.02,2.02l-1.23,2.43L124,97.54l0.4-3.05l2.43-3.25l-1.43-2.42l-3.86-3.25l-1.23-1.43l-3.65-3.66
		l-2.02-3.45l0.4-2.83l1.43-5.26l1.23-7.9l6.28,4.48l1.01-3.05l-1.01-2.83l1.82-2.42l0.4-3.05l3.45-0.4l4.65-2.64l0.61-2.01
		l3.65,1.23l-0.61,2.64l2.65-1.81l2.82,0.2l3.25-1.01l3.45,1.01l4.06,4.05l0.83,4.06l1.43-2.2l1.82-0.41l2.64,1.82l2.64,0.4
		l2.64-3.04h4.26l2.21,1.43l4.64-1.23l1.82,3.05l3.45,1.81l3.45-2l3.45,1.62l5.07-6.08l-2.42-1.62l-4.65-0.82l-0.4-2.42l-2.21-1.44
		l4.65-2V41.5l-0.61-1.01l2.43-0.41l4.86,0.61l-2.64-4.26l-1.43-1.82l2.83-1.43l-3.25-1.62l1.43-3.24l3.45,0.82l8.3-1.23l3.85-0.82
		l3.66,0.4l4.86-4.48l8.72-0.82l3.05-1.43l4.26-4.26l3.24,1.23l3.25,0.4l2.21,0.61l1.01,3.25l1.5,2.88l-0.61,3.85l2.64,2.02
		l0.83-2.02l3.85,0.61l0.21,1.81l2.82-1.01l0.61,1.23l0.4,3.05h4.87l2.2,0.4l2.21-2.82l2.42-0.41l3.05-5.67l3.65-0.2l-1.81,3.25
		l6.46,7.89l7.07,7.07l4.26,8.5l1.61,4.48l4.06-4.65l2.21,1.23l1.01,1.82l2.2,2.64l4.06-0.2l3.65-1.23l3.25,0.41l2.02,4.64
		l1.43,2.21l3.05-0.2l2.64,3.65l2.83-0.41l3.05-1.61l1.61,3.05l-0.82,1.81l-0.41,4.06l-3.04,1.43l-3.45,0.83v6.66l-1.01,4.26
		l-4.48,1.23l-2.83-1.01l-3.65-0.4l-3.05,4.64l-2.64,6.28l1.61,4.26l-1.61,1.43l-5.47-0.61l-6.47,1.82l2.21,3.05l-1.43,2.2
		l1.23,3.25v4.48l-0.83,2.43l-0.2,2.82l-3.59,0.1l-3.53-4.36l-2.02-1.01l-1.23,0.21l-12.16,1.23l-2.2-0.21l-3.01-0.64l-2.04-1.44
		l-2.34-0.07l-2.42,1.53l0.11,2.86l-0.82,1.7l-3.45-1.5l-2.83,0.21l-5.27-0.54l-1.97,2.34l1.3,1.75l-2.34,1.58l-1.23-0.91
		l-3.05,1.62l-4.56,0.82l-2.59,3.05l-2.6,6.23l-2.89-1.08l-1.38-1.67l-4.87-1.07l-4.47-0.21l-3.3-2.2l2.1-1.67l0.3-1.97l-1.22-2.89
		l-1.23-6.23l-3.5-3.35l-4.26,0.77l-3.96-1.53l-5.77,0.47l-4.57-3.5l2.02-0.96l-1.43-3.85l2.83-0.41l1.43-2.2l-1.61-1.01l-2.21-4.06
		l0.41-3.45l1.61-3.05l-0.82-1.61l-1.82,0.6l-0.2,1.43l-2.21-1.43v1.43l-2.2-1.43l-0.21,3.05l3.05,0.83l-3.25,0.82l-2.2-1.01
		l-0.21,3.05h-1.81l-1.62-0.61l-1.31,1.62l-13.08,2.72l0.82,27.16l0,0l0,0L162.03,129.32z"/>
	<path id="kazakhstan-w" fill-opacity="0" stroke="#FFFFFF" stroke-width="0.5" d="M162.03,129.32l-1.82-1.67l-1.67-3.05l-3.2-1.86
		l-3.25,0.4l-2.02,0.2l-2.02,1.01l-2.1,1.32l-0.71,2.3l-1.23-1.01l0.41-2l1.01-2.83v-1.23l-3.66-0.2l-1.22-2.02h-1.82l-0.41-2.02
		l-1.01-2.64l-1.61-3.05l-2.21-0.61l-0.82-3.25l3.04,0.61l3.66,0.61l-1.01-2.21l3.04-4.26l0.61,2.83l1.23-2.42h3.85l0.83,1.61
		l3.65-0.82l-1.82,2.2l-1.22,2.65l0.4,1.43l1.82-1.82l2.02-2.64l4.26,0.2l-0.61-3.66l-1.82-1.81l-2.42-1.43l-0.83-2.83l-2.82-3.66
		l-2.43-3.04h-4.86l-5.07-0.41l-3.45,2.02l-3.45,1.01l-2.02,2.02l-1.23,2.43L124,97.54l0.4-3.05l2.43-3.25l-1.43-2.42l-3.86-3.25
		l-1.23-1.43l-3.65-3.66l-2.02-3.45l0.4-2.83l1.43-5.26l1.23-7.9l6.28,4.48l1.01-3.05l-1.01-2.83l1.82-2.42l0.4-3.05l3.45-0.4
		l4.65-2.64l0.61-2.01l3.65,1.23l-0.61,2.64l2.65-1.81l2.82,0.2l3.25-1.01l3.45,1.01l4.06,4.05l0.83,4.06l1.43-2.2l1.82-0.41
		l2.64,1.82l2.64,0.4l2.64-3.04h4.26l2.21,1.43l4.64-1.23l1.82,3.05l3.45,1.81l3.45-2l3.45,1.62l5.07-6.08l-2.42-1.62l-4.65-0.82
		l-0.4-2.42l-2.21-1.44l4.65-2V41.5l-0.61-1.01l2.43-0.41l4.86,0.61l-2.64-4.26l-1.43-1.82l2.83-1.43l-3.25-1.62l1.43-3.24
		l3.45,0.82l8.3-1.23l3.85-0.82l3.66,0.4l4.86-4.48l8.72-0.82l3.05-1.43l4.26-4.26l3.24,1.23l3.25,0.4l2.21,0.61l1.01,3.25l1.5,2.88
		l-0.61,3.85l2.64,2.02l0.83-2.02l3.85,0.61l0.21,1.81l2.82-1.01l0.61,1.23l0.4,3.05h4.87l2.2,0.4l2.21-2.82l2.42-0.41l3.05-5.67
		l3.65-0.2l-1.81,3.25l6.46,7.89l7.07,7.07l4.26,8.5l1.61,4.48l4.06-4.65l2.21,1.23l1.01,1.82l2.2,2.64l4.06-0.2l3.65-1.23
		l3.25,0.41l2.02,4.64l1.43,2.21l3.05-0.2l2.64,3.65l2.83-0.41l3.05-1.61l1.61,3.05l-0.82,1.81l-0.41,4.06l-3.04,1.43l-3.45,0.83
		v6.66l-1.01,4.26l-4.48,1.23l-2.83-1.01l-3.65-0.4l-3.05,4.64l-2.64,6.28l1.61,4.26l-1.61,1.43l-5.47-0.61l-6.47,1.82l2.21,3.05
		l-1.43,2.2l1.23,3.25v4.48l-0.83,2.43l-0.2,2.82l-3.59,0.1l-3.53-4.36l-2.02-1.01l-1.23,0.21l-12.16,1.23l-2.2-0.21l-3.01-0.64
		l-2.04-1.44l-2.34-0.07l-2.42,1.53l0.11,2.86l-0.82,1.7l-3.45-1.5l-2.83,0.21l-5.27-0.54l-1.97,2.34l1.3,1.75l-2.34,1.58
		l-1.23-0.91l-3.05,1.62l-4.56,0.82l-2.59,3.05l-2.6,6.23l-2.89-1.08l-1.38-1.67l-4.87-1.07l-4.47-0.21l-3.3-2.2l2.1-1.67l0.3-1.97
		l-1.22-2.89l-1.23-6.23l-3.5-3.35l-4.26,0.77l-3.96-1.53l-5.77,0.47l-4.57-3.5l2.02-0.96l-1.43-3.85l2.83-0.41l1.43-2.2l-1.61-1.01
		l-2.21-4.06l0.41-3.45l1.61-3.05l-0.82-1.61l-1.82,0.6l-0.2,1.43l-2.21-1.43v1.43l-2.2-1.43l-0.21,3.05l3.05,0.83l-3.25,0.82
		l-2.2-1.01l-0.21,3.05h-1.81l-1.62-0.61l-1.31,1.62l-13.08,2.72l0.82,27.16l0,0l0,0L162.03,129.32z"/>
	<path id="iran_1_" fill="#DDDDDD" d="M191.54,235.37l-5.17-2.1l-5.78,0.6l-8.19-2.42l-2.11-0.61l-1.23-6.36l-3.65-0.91l-1.52,1.53
		l-3.95,1.53l1.51-2.42l-6.07,2.73l-3.96-3.05l-5.77-1.23l-3.05-4.26l-4.87-0.3l-0.6-4.87l-2.43-3.65l-2.1-3.65l-2.73-0.61
		l-0.3,1.23l-3.05-2.42l-1.81,0.3l-3.05-2.42v-3.96l-2.43-2.1l1.23-4.26l-4.86-4.87l-3.96-0.6l-2.72-7.9l0.6-4.56l2.43-2.73v-3.35
		v-1.53l-2.43-0.61l-2.73-2.42v-3.05l-2.72-3.65l-1.52-4.54v-3.66l-0.6-3.65l1.81-3.65l2.41,2.72l2.58,2.21l2.69,0.6l1.89,0.8
		l2.29-0.27l2.1-2.11l2.42-2.1l1.52-1.23l2.1,1.82l-1.51,1.53l2.1,1.53l-2.1,2.43l2.1,1.53l1.82,2.1v2.73l1.23,2.73l2.42,0.6
		l1.82-0.6l2.73,1.53l-0.3,1.82l2.72,1.22l5.47,1.54l4.26-0.91l3.65-1.23l1.82,1.23l1.52-0.91l-0.61-4.43l4.26-0.77l0.78-2.73
		l3.5-1.82l2.72,0.3l2.6-1.07l4.42,0.15l0.91,1.97l2.11,0.3l0.91,1.53l4.12-0.15l1.67,0.3l1.81,3.05l2.11,0.3l1.97,2.9l3.95,0.15
		l0.88,6.99l-3.45,8.9l-0.41,3.45l1.23,1.23l-0.82,2.83l1.23,3.96l1.23,5.97l2.72,1.01l0.31,4.26l-2.43,5.47l0.61,2.73l4.26,4.16
		l3.25,4.05l0.4,3.66l0.4,2.02l-4.36,3.13l-2.42,3.04l-0.1,3.56l0.37,1.92l0,0L191.54,235.37z"/>
	<path id="iran-w" fill-opacity="0" stroke="#FFFFFF" stroke-width="0.5" d="M191.54,235.37l-5.17-2.1l-5.78,0.6l-8.19-2.42
		l-2.11-0.61l-1.23-6.36l-3.65-0.91l-1.52,1.53l-3.95,1.53l1.51-2.42l-6.07,2.73l-3.96-3.05l-5.77-1.23l-3.05-4.26l-4.87-0.3
		l-0.6-4.87l-2.43-3.65l-2.1-3.65l-2.73-0.61l-0.3,1.23l-3.05-2.42l-1.81,0.3l-3.05-2.42v-3.96l-2.43-2.1l1.23-4.26l-4.86-4.87
		l-3.96-0.6l-2.72-7.9l0.6-4.56l2.43-2.73v-3.35v-1.53l-2.43-0.61l-2.73-2.42v-3.05l-2.72-3.65l-1.52-4.54v-3.66l-0.6-3.65
		l1.81-3.65l2.41,2.72l2.58,2.21l2.69,0.6l1.89,0.8l2.29-0.27l2.1-2.11l2.42-2.1l1.52-1.23l2.1,1.82l-1.51,1.53l2.1,1.53l-2.1,2.43
		l2.1,1.53l1.82,2.1v2.73l1.23,2.73l2.42,0.6l1.82-0.6l2.73,1.53l-0.3,1.82l2.72,1.22l5.47,1.54l4.26-0.91l3.65-1.23l1.82,1.23
		l1.52-0.91l-0.61-4.43l4.26-0.77l0.78-2.73l3.5-1.82l2.72,0.3l2.6-1.07l4.42,0.15l0.91,1.97l2.11,0.3l0.91,1.53l4.12-0.15l1.67,0.3
		l1.81,3.05l2.11,0.3l1.97,2.9l3.95,0.15l0.88,6.99l-3.45,8.9l-0.41,3.45l1.23,1.23l-0.82,2.83l1.23,3.96l1.23,5.97l2.72,1.01
		l0.31,4.26l-2.43,5.47l0.61,2.73l4.26,4.16l3.25,4.05l0.4,3.66l0.4,2.02l-4.36,3.13l-2.42,3.04l-0.1,3.56l0.37,1.92l0,0
		L191.54,235.37z"/>
	<path id="azerbaijan_1_" fill="#DDDDDD" d="M114.96,142.04l-0.88-1.26l-1.49-0.02l-0.83-2.42l-0.82-2.2l-1.62-0.61l-3.05-2.42
		l-0.4-3.05l5.47,2.02l1.62-1.82l-1.82-1.62l-1.43-2.64l1.43-0.4l4.64,1.23l3.25,3.04l2.21,0.83l2.42-2.64l3.65,3.85l1.62,3.25
		l3.86,2.02l-3.86,3.25l-0.82,4.06l-0.61,2.42l-2.02,0.61l0.61,4.94l-3.96-3.65l1.92-2.94l-1.43-1.01l1.01-1.54l-1.62-1.53
		l-6.14,4.43l0,0l0,0L114.96,142.04z"/>
	<path id="azerbaijan-w" fill-opacity="0" stroke="#FFFFFF" stroke-width="0.5" d="M114.96,142.04l-0.88-1.26l-1.49-0.02l-0.83-2.42
		l-0.82-2.2l-1.62-0.61l-3.05-2.42l-0.4-3.05l5.47,2.02l1.62-1.82l-1.82-1.62l-1.43-2.64l1.43-0.4l4.64,1.23l3.25,3.04l2.21,0.83
		l2.42-2.64l3.65,3.85l1.62,3.25l3.86,2.02l-3.86,3.25l-0.82,4.06l-0.61,2.42l-2.02,0.61l0.61,4.94l-3.96-3.65l1.92-2.94l-1.43-1.01
		l1.01-1.54l-1.62-1.53l-6.14,4.43l0,0l0,0L114.96,142.04z"/>
	<path id="nakhchivan_1_" fill="#DDDDDD" d="M108.75,145.85l-2.58-2.21l-2.41-2.72h2.7l0.82,1.31l2.09,0.47l1.48-0.64l0.96,0.69
		v1.26l1.68,0.48l0.98,2.6l-1.13,0.16l-1.9-0.8L108.75,145.85z"/>
	<path id="nakhchivan-w" fill-opacity="0" stroke="#FFFFFF" stroke-width="0.5" d="M108.75,145.85l-2.58-2.21l-2.41-2.72h2.7
		l0.82,1.31l2.09,0.47l1.48-0.64l0.96,0.69v1.26l1.68,0.48l0.98,2.6l-1.13,0.16l-1.9-0.8L108.75,145.85z"/>
	<path id="armenia_1_" fill="#DDDDDD" d="M101.69,138.95l-2.42-0.61v-3.25l-0.4-2.42l-1.82-2.43l8.9-0.2l0.41,3.05l3.04,2.42
		l1.62,0.61l1.62,4.64l1.46,0.02l0.88,1.26l0.9,4.18l-0.25,0.76l-1.14,0.11l-0.98-2.6l-1.68-0.48v-1.26l-0.96-0.69l-1.48,0.64
		l-2.09-0.47l-0.83-1.31l-1.27,0.06l-1.49-0.11l0,0l0,0L101.69,138.95z"/>
	<path id="armenia-w" fill-opacity="0" stroke="#FFFFFF" stroke-width="0.5" d="M101.69,138.95l-2.42-0.61v-3.25l-0.4-2.42
		l-1.82-2.43l8.9-0.2l0.41,3.05l3.04,2.42l1.62,0.61l1.62,4.64l1.46,0.02l0.88,1.26l0.9,4.18l-0.25,0.76l-1.14,0.11l-0.98-2.6
		l-1.68-0.48v-1.26l-0.96-0.69l-1.48,0.64l-2.09-0.47l-0.83-1.31l-1.27,0.06l-1.49-0.11l0,0l0,0L101.69,138.95z"/>
	<path id="georgia_1_" fill="#DDDDDD" d="M94.61,129.62l-0.83-2.42l-3.85,1.61l-2.21-0.6l-0.82-4.65l-1.62-2.83l-4.06-1.23
		l-2.42-2.2l-1.82-2.02l4.48-0.2h5.07L91,117.5l4.06,1.23l3.25,0.4l3.25,2.65l2.64-0.21l4.06,0.41l2.2,3.45l-0.6,0.61l1.43,2.64
		l1.82,1.61l-1.62,1.82l-4.86-1.82l-1.62-0.6l-7.98,0.54l0,0l0,0L94.61,129.62z"/>
	<path id="georgia-w" fill-opacity="0" stroke="#FFFFFF" stroke-width="0.5" d="M94.61,129.62l-0.83-2.42l-3.85,1.61l-2.21-0.6
		l-0.82-4.65l-1.62-2.83l-4.06-1.23l-2.42-2.2l-1.82-2.02l4.48-0.2h5.07L91,117.5l4.06,1.23l3.25,0.4l3.25,2.65l2.64-0.21l4.06,0.41
		l2.2,3.45l-0.6,0.61l1.43,2.64l1.82,1.61l-1.62,1.82l-4.86-1.82l-1.62-0.6l-7.98,0.54l0,0l0,0L94.61,129.62z"/>
	<path id="iraq_1_" fill="#DDDDDD" d="M101.66,157.78l-2.02-0.6l-3.45,1.01h-2.64l-3.66,3.25l-2.42,2.64l-0.4,4.86l-0.41,4.26
		l-1.01,2.65l-12.56,8.5l0.61,1.43l0.2,5.07l1.01,0.2l0.2,1.01l9.33,1.01l20.25,16.81l8.3,0.41l6.08-5.27l5.57-0.61l-3.05-2.42
		l0.1-3.45l-2.52-2.64l1.23-4.26l-4.87-4.87l-3.95-0.6l-2.73-7.9l0.6-4.54l2.43-2.73l-0.52-4.65l-1.92-0.82l-2.73-2.43v-3.04
		l-2.41-2.68l0,0l0,0L101.66,157.78z"/>
	<path id="iraq-w" fill-opacity="0" stroke="#FFFFFF" stroke-width="0.5" d="M101.66,157.78l-2.02-0.6l-3.45,1.01h-2.64l-3.66,3.25
		l-2.42,2.64l-0.4,4.86l-0.41,4.26l-1.01,2.65l-12.56,8.5l0.61,1.43l0.2,5.07l1.01,0.2l0.2,1.01l9.33,1.01l20.25,16.81l8.3,0.41
		l6.08-5.27l5.57-0.61l-3.05-2.42l0.1-3.45l-2.52-2.64l1.23-4.26l-4.87-4.87l-3.95-0.6l-2.73-7.9l0.6-4.54l2.43-2.73l-0.52-4.65
		l-1.92-0.82l-2.73-2.43v-3.04l-2.41-2.68l0,0l0,0L101.66,157.78z"/>
	<path id="syria_1_" fill="#DDDDDD" d="M88.33,160.02l-4.87-0.4l-6.88,2.42l-4.48-1.82l-5.87,1.82l-2.02-1.82l-2.02,1.01v3.05
		l-4.06,3.86l-1.82,2.64l1.01,0.2l0.61,5.07h2.42l0.61,2.2l-2.21,1.62l-0.4,2.42l-1.01,1.23l-0.41,3.86l2.21,1.43l0.82,1.61
		l2.65-0.2l3.65-1.61l19.44-12.78l1.01-2.64l0.41-8.5l5.87-5.88l-1.62-0.61h-1.43l0,0l0,0L88.33,160.02z"/>
	<path id="syria-w" fill-opacity="0" stroke="#FFFFFF" stroke-width="0.5" d="M88.33,160.02l-4.87-0.4l-6.88,2.42l-4.48-1.82
		l-5.87,1.82l-2.02-1.82l-2.02,1.01v3.05l-4.06,3.86l-1.82,2.64l1.01,0.2l0.61,5.07h2.42l0.61,2.2l-2.21,1.62l-0.4,2.42l-1.01,1.23
		l-0.41,3.86l2.21,1.43l0.82,1.61l2.65-0.2l3.65-1.61l19.44-12.78l1.01-2.64l0.41-8.5l5.87-5.88l-1.62-0.61h-1.43l0,0l0,0
		L88.33,160.02z"/>
	<path id="kuwait_1_" fill="#DDDDDD" d="M118.42,210.9l2.42,2.43l1.23-0.61l1.62-2.83l0.82-1.82l-2.2-1.43l1.81-0.4l2.31-1.72
		l-7.41,0.91l-5.25,4.87l0,0L118.42,210.9z"/>
	<path id="kuwait-w" fill-opacity="0" stroke="#FFFFFF" stroke-width="0.5" d="M118.42,210.9l2.42,2.43l1.23-0.61l1.62-2.83
		l0.82-1.82l-2.2-1.43l1.81-0.4l2.31-1.72l-7.41,0.91l-5.25,4.87l0,0L118.42,210.9z"/>
	<path id="lebanon_1_" fill="#DDDDDD" d="M54.68,182.88l0.82-2.83l1.23-2l1.23-2.02h1.82l1.23,2.21l-2.21,1.61l-0.4,2.43l-1.08,1.21
		l0,0L54.68,182.88z"/>
	<path id="lebanon-w" fill-opacity="0" stroke="#FFFFFF" stroke-width="0.5" d="M54.68,182.88l0.82-2.83l1.23-2l1.23-2.02h1.82
		l1.23,2.21l-2.21,1.61l-0.4,2.43l-1.08,1.21l0,0L54.68,182.88z"/>
	<path id="jordan_1_" fill="#DDDDDD" d="M56.31,189.18l-2.02-0.2l-0.2,2.64l-0.41,3.05l1.44,1.01l-0.83,3.45l-0.82,9.12l7.3,2.64
		l2.83-4.05l2.42-0.61l2.02-2.02v-1.23l1.43-0.2v-0.82l-4.64-4.26v-1.43l10.54-3.86l-0.41-1.43l-1.01-0.2l-0.2-5.07l-0.61-1.43
		l-10.53,5.87l-2.65,0.21l-0.82-1.62l-2.22-1.38l0,0L56.31,189.18z"/>
	<path id="jordan-w" fill-opacity="0" stroke="#FFFFFF" stroke-width="0.5" d="M56.31,189.18l-2.02-0.2l-0.2,2.64l-0.41,3.05
		l1.44,1.01l-0.83,3.45l-0.82,9.12l7.3,2.64l2.83-4.05l2.42-0.61l2.02-2.02v-1.23l1.43-0.2v-0.82l-4.64-4.26v-1.43l10.54-3.86
		l-0.41-1.43l-1.01-0.2l-0.2-5.07l-0.61-1.43l-10.53,5.87l-2.65,0.21l-0.82-1.62l-2.22-1.38l0,0L56.31,189.18z"/>
	<path id="saudi-arabia_1_" fill="#DDDDDD" d="M53.85,217.53l2.02,3.04l2.83,4.65l3.25,5.07l2.42,3.25l-0.2,2l1.82,3.25l5.27,3.25
		l4.06,7.3L74.09,253l1.01,3.04l0.4,2.64l4.06,3.05l3.04,2.43l2.65,5.87l2.64,4.65l2.64,2.64l3.66,6.28l1.61-2l1.01-4.06h1.43
		l1.23,1.23l5.88-0.61l4.05,1.23l5.68,0.4l1.61,1.44l1.82-1.23l2.64-4.87l4.06-2.64l6.28-1.82l7.89-0.4l4.06-1.23l16.2-6.47
		l1.81-11.53l-0.82-1.23l-1.23-2.64l-2.02,1.62l-10.54-2.21l-4.26-3.65l-2.64-3.86l-0.61,0.21v-2.43l-2.64-2l-0.2-2.21l-1.43,1.82
		l-1.23-2.64l-1.82-2.43l1.82-3.04l-0.2-1.82l-2.21-0.2l-3.25-1.62l0.21-1.61l-1.62-2.02l-1.82-1.62l-1.01-3.65l-1.23-2.43
		l-1.23,1.43l-1.23,0.21l-2.42-2.02l-4.06-1.01h-9.12l-20.25-16.82l-9.13-0.61l-10.53,3.86v1.43l4.64,4.26v0.82l-1.43,0.2v1.23
		l-2.02,2.01l-2.42,0.6l-2.83,4.06l-7.31-2.64l-0.2,3.04l-0.2,2.02l-1.31,3.07l0,0l0,0L53.85,217.53z"/>
	<path id="saudi-arabia-w" fill-opacity="0" stroke="#FFFFFF" stroke-width="0.5" d="M53.85,217.53l2.02,3.04l2.83,4.65l3.25,5.07
		l2.42,3.25l-0.2,2l1.82,3.25l5.27,3.25l4.06,7.3L74.09,253l1.01,3.04l0.4,2.64l4.06,3.05l3.04,2.43l2.65,5.87l2.64,4.65l2.64,2.64
		l3.66,6.28l1.61-2l1.01-4.06h1.43l1.23,1.23l5.88-0.61l4.05,1.23l5.68,0.4l1.61,1.44l1.82-1.23l2.64-4.87l4.06-2.64l6.28-1.82
		l7.89-0.4l4.06-1.23l16.2-6.47l1.81-11.53l-0.82-1.23l-1.23-2.64l-2.02,1.62l-10.54-2.21l-4.26-3.65l-2.64-3.86l-0.61,0.21v-2.43
		l-2.64-2l-0.2-2.21l-1.43,1.82l-1.23-2.64l-1.82-2.43l1.82-3.04l-0.2-1.82l-2.21-0.2l-3.25-1.62l0.21-1.61l-1.62-2.02l-1.82-1.62
		l-1.01-3.65l-1.23-2.43l-1.23,1.43l-1.23,0.21l-2.42-2.02l-4.06-1.01h-9.12l-20.25-16.82l-9.13-0.61l-10.53,3.86v1.43l4.64,4.26
		v0.82l-1.43,0.2v1.23l-2.02,2.01l-2.42,0.6l-2.83,4.06l-7.31-2.64l-0.2,3.04l-0.2,2.02l-1.31,3.07l0,0l0,0L53.85,217.53z"/>
	<path id="oman_1_" fill="#DDDDDD" d="M152.95,280.92l3.05-0.82l2.02,0.82l2.2-3.85l0.61-2.21h3.25l2.2-0.4l1.62-4.65l5.67-0.6
		l-0.82-5.07l2.2-3.05l0.83,0.83l1.43-1.43l2.02-4.06l2.83-2.83l2.2-4.06l-3.25-2.82l-1.81-2.21l-2.83-1.43l-3.05-0.2l-4.48-2.01
		l-2.42-3.65l-0.83-1.43l-1.81,0.2v3.05l1.01,1.01l-2.21,0.4l-2.02,2.65l-1.01,3.65l1.82,4.26l-1.82,11.53l-15.59,6.68l-0.6,1.62
		l3.45,11.53l2.09-0.22l0,0L152.95,280.92z"/>
	<path id="oman-w" fill-opacity="0" stroke="#FFFFFF" stroke-width="0.5" d="M152.95,280.92l3.05-0.82l2.02,0.82l2.2-3.85l0.61-2.21
		h3.25l2.2-0.4l1.62-4.65l5.67-0.6l-0.82-5.07l2.2-3.05l0.83,0.83l1.43-1.43l2.02-4.06l2.83-2.83l2.2-4.06l-3.25-2.82l-1.81-2.21
		l-2.83-1.43l-3.05-0.2l-4.48-2.01l-2.42-3.65l-0.83-1.43l-1.81,0.2v3.05l1.01,1.01l-2.21,0.4l-2.02,2.65l-1.01,3.65l1.82,4.26
		l-1.82,11.53l-15.59,6.68l-0.6,1.62l3.45,11.53l2.09-0.22l0,0L152.95,280.92z"/>
	<path id="emirates_1_" fill="#DDDDDD" d="M145.53,240.93l1.31-1.23l3.55,0.2l2.02,0.71l2.11-1.13l1.92-2.73l1.01-2l2.3-0.61
		l2.02-2.83l1.52-0.7l1.23-0.1l0.1-2.01l1.31-1.01l0.83,1.72l-1.13,2.2l0.1,2.31l-0.1,2l-1.92,0.71l0.1,2.53l0.83,1.01l-2.53,0.7
		l-1.82,2.83l-0.91,3.55l-2.02,1.62l-10.54-2.21l-3.95-3.25l-1.4-1.88l0,0L145.53,240.93z"/>
	<path id="emirates-w" fill-opacity="0" stroke="#FFFFFF" stroke-width="0.5" d="M145.53,240.93l1.31-1.23l3.55,0.2l2.02,0.71
		l2.11-1.13l1.92-2.73l1.01-2l2.3-0.61l2.02-2.83l1.52-0.7l1.23-0.1l0.1-2.01l1.31-1.01l0.83,1.72l-1.13,2.2l0.1,2.31l-0.1,2
		l-1.92,0.71l0.1,2.53l0.83,1.01l-2.53,0.7l-1.82,2.83l-0.91,3.55l-2.02,1.62l-10.54-2.21l-3.95-3.25l-1.4-1.88l0,0L145.53,240.93z"
		/>
	<path id="qatar_1_" fill="#DDDDDD" d="M136.93,234.66l-0.21-2.64l0.41-0.91l0.91-2.73l1.71,0.71l1.01,2.83l-0.1,2.1l-0.79,2.85l0,0
		L136.93,234.66z"/>
	<path id="qatar-w" fill-opacity="0" stroke="#FFFFFF" stroke-width="0.5" d="M136.93,234.66l-0.21-2.64l0.41-0.91l0.91-2.73
		l1.71,0.71l1.01,2.83l-0.1,2.1l-0.79,2.85l0,0L136.93,234.66z"/>
	<path id="bahrain_1_" fill="#DDDDDD" d="M133.59,227.88l-0.1,2l1.43,1.72l2.02-1.01l-0.3-1.62l0.83-1.53l-1.13-1.43l-1.03,0.34l0,0
		L133.59,227.88z"/>
	<path id="bahrain-w" fill-opacity="0" stroke="#FFFFFF" stroke-width="0.5" d="M133.59,227.88l-0.1,2l1.43,1.72l2.02-1.01
		l-0.3-1.62l0.83-1.53l-1.13-1.43l-1.03,0.34l0,0L133.59,227.88z"/>
	<path id="yemen_1_" fill="#DDDDDD" d="M146.88,282.34l-2.43,2.2l-0.2,3.65l-3.86,0.61l-1.61,1.23l-6.47,2.2l-4.86,1.44l-1.43,2.64
		l-6.08,0.4l-2.42,2.83l-5.27,0.2l-4.06,0.83l-1.01,1.82l-2.42,1.61l-3.45-0.6l-0.83,0.4l-2.64-0.61l-1.23-3.45l-0.4-2.64
		l-1.23-2.64l0.4-1.82l-1.23-1.82l-0.82-3.85l0.82-1.62l0.2-1.23l1.44-2.64l0.82-3.45l1.62-0.61l1.22,1.23l5.88-0.61l4.06,1.23
		l5.67,0.41l1.62,1.43l1.81-1.23l2.65-4.87l4.05-2.64l6.28-1.82l7.31-0.2l4.64-1.43v1.89l0,0l0,0l0,0L146.88,282.34z"/>
	<path id="yemen-w" fill-opacity="0" stroke="#FFFFFF" stroke-width="0.5" d="M146.88,282.34l-2.43,2.2l-0.2,3.65l-3.86,0.61
		l-1.61,1.23l-6.47,2.2l-4.86,1.44l-1.43,2.64l-6.08,0.4l-2.42,2.83l-5.27,0.2l-4.06,0.83l-1.01,1.82l-2.42,1.61l-3.45-0.6
		l-0.83,0.4l-2.64-0.61l-1.23-3.45l-0.4-2.64l-1.23-2.64l0.4-1.82l-1.23-1.82l-0.82-3.85l0.82-1.62l0.2-1.23l1.44-2.64l0.82-3.45
		l1.62-0.61l1.22,1.23l5.88-0.61l4.06,1.23l5.67,0.41l1.62,1.43l1.81-1.23l2.65-4.87l4.05-2.64l6.28-1.82l7.31-0.2l4.64-1.43v1.89
		l0,0l0,0l0,0L146.88,282.34z"/>
	<path id="irsael_1_" fill="#DDDDDD" d="M52.05,203.15l-2.1-5.07l0.7-1.31l0.31-2.2l0.1-3.05l1.51-1.13l0.21-2.95l0.9-2.1l1.01-2.42
		l2.43,0.91l-0.41,3.95l-0.4,1.43l-2.02,0.1l-0.82,5.47l1.31,1.01l-0.61,2.95l-0.82,9.93l-0.39,0.25l0,0l0,0L52.05,203.15z"/>
	<path id="irsael-w" fill-opacity="0" stroke="#FFFFFF" stroke-width="0.5" d="M52.05,203.15l-2.1-5.07l0.7-1.31l0.31-2.2l0.1-3.05
		l1.51-1.13l0.21-2.95l0.9-2.1l1.01-2.42l2.43,0.91l-0.41,3.95l-0.4,1.43l-2.02,0.1l-0.82,5.47l1.31,1.01l-0.61,2.95l-0.82,9.93
		l-0.39,0.25l0,0l0,0L52.05,203.15z"/>
	<path id="turkey_1_" fill="#DDDDDD" d="M84.99,132.06l-1.22,0.15l-3.81,1.67l-1.82-0.47l-3.04-0.3l-4.13,1.38l-2.89-0.48l-2.9-0.77
		l-0.6,0.47l-3.51-1.82l-1.97-0.47l-0.9-2.27l-3.35-0.3l-1.67-2.11l-3.65,0.47l-9.58,0.16l-2.27,2.59l-3.05,1.53l-0.78,2.1
		l-4.12-0.15l-6.99-0.6l-1.07,0.3l-3.35-1.82l-2.9-2.1l0.15-2.73l-4.56-0.61l-2.27,1.54l-0.3,3.04l-1.39,3.2l-1.81,1.38l0.47,1.53
		l3.8,0.15l1.82,0.16l2.42-3.05l3.05,0.3l2.9-0.3l1.66-0.15l0.91,1.23l1.08,1.07l0.91,0.48l-3.65,0.6l1.22,1.97l-2.59-0.3l-3.5-0.15
		l-2.1-0.91H9.21l-2.42,0.47l-0.78,1.67l0.78,2.72l-0.61,1.82l2.59,0.15l1.08-0.15l-0.47,2.73l1.08,1.66v2.11l-0.91,0.91l-1.52-1.38
		l-0.77,1.38l0.47,1.53l1.97,0.3l2.42,1.23l-1.51,1.67l1.81,0.77l0.61,1.97l-0.91,1.23l2.59,0.47l2.43-0.15l-2.11,1.82l1.67,1.38
		l0.77-1.08l2.11-0.6l1.08,1.38l2.27,1.81l2.73,0.78l4.26-0.47l0.47-3.05h2.72l3.35,1.38l2.28,1.82l1.07,1.08h6.23l2.59-1.67
		l2.73-2.59h2.43l0.6,1.23l2.43-0.31l1.81-2.42l0.47,1.82l-1.38,1.81l0.31,3.4l4.05-3.85v-3.05l2.02-1.01l2.02,1.82l5.88-1.82
		l4.12,1.77l6.84-2.27l5.27,0.3l1.61-1.82l2.53,0.31l1.82-0.48l2.27,0.16l3.5-1.08l1.62,0.66l2.64-0.41l-1.97-4.64l0.15-4.55
		l-0.61-3.65l1.82-3.66l-2.02-1.91l-2.42-0.61l-0.41-5.67l-1.81-2.43l-2.43-0.6l-0.82-2.43L89.84,129l-1.8-0.14l0,0L84.99,132.06z"
		/>
	<path id="turkey-w" fill-opacity="0" stroke="#FFFFFF" stroke-width="0.5" d="M84.99,132.06l-1.22,0.15l-3.81,1.67l-1.82-0.47
		l-3.04-0.3l-4.13,1.38l-2.89-0.48l-2.9-0.77l-0.6,0.47l-3.51-1.82l-1.97-0.47l-0.9-2.27l-3.35-0.3l-1.67-2.11l-3.65,0.47
		l-9.58,0.16l-2.27,2.59l-3.05,1.53l-0.78,2.1l-4.12-0.15l-6.99-0.6l-1.07,0.3l-3.35-1.82l-2.9-2.1l0.15-2.73l-4.56-0.61l-2.27,1.54
		l-0.3,3.04l-1.39,3.2l-1.81,1.38l0.47,1.53l3.8,0.15l1.82,0.16l2.42-3.05l3.05,0.3l2.9-0.3l1.66-0.15l0.91,1.23l1.08,1.07
		l0.91,0.48l-3.65,0.6l1.22,1.97l-2.59-0.3l-3.5-0.15l-2.1-0.91H9.21l-2.42,0.47l-0.78,1.67l0.78,2.72l-0.61,1.82l2.59,0.15
		l1.08-0.15l-0.47,2.73l1.08,1.66v2.11l-0.91,0.91l-1.52-1.38l-0.77,1.38l0.47,1.53l1.97,0.3l2.42,1.23l-1.51,1.67l1.81,0.77
		l0.61,1.97l-0.91,1.23l2.59,0.47l2.43-0.15l-2.11,1.82l1.67,1.38l0.77-1.08l2.11-0.6l1.08,1.38l2.27,1.81l2.73,0.78l4.26-0.47
		l0.47-3.05h2.72l3.35,1.38l2.28,1.82l1.07,1.08h6.23l2.59-1.67l2.73-2.59h2.43l0.6,1.23l2.43-0.31l1.81-2.42l0.47,1.82l-1.38,1.81
		l0.31,3.4l4.05-3.85v-3.05l2.02-1.01l2.02,1.82l5.88-1.82l4.12,1.77l6.84-2.27l5.27,0.3l1.61-1.82l2.53,0.31l1.82-0.48l2.27,0.16
		l3.5-1.08l1.62,0.66l2.64-0.41l-1.97-4.64l0.15-4.55l-0.61-3.65l1.82-3.66l-2.02-1.91l-2.42-0.61l-0.41-5.67l-1.81-2.43l-2.43-0.6
		l-0.82-2.43L89.84,129l-1.8-0.14l0,0L84.99,132.06z"/>
	<path id="cypress_1_" fill="#DDDDDD" d="M40.49,172.75h2.2l1.62-1.13h2.42l3.76-2.31l0.52,1.23l-3.25,2.43l-0.1,1.61l0.3,1.23
		l-1.92,0.52l-2.3-0.1l-1.52,0.41l-1.31,0.6l-1.52-0.2l-0.52-1.61l-0.69-1.25l0,0L40.49,172.75z"/>
	<path id="cypress-w" fill-opacity="0" stroke="#FFFFFF" stroke-width="0.5" d="M40.49,172.75h2.2l1.62-1.13h2.42l3.76-2.31
		l0.52,1.23l-3.25,2.43l-0.1,1.61l0.3,1.23l-1.92,0.52l-2.3-0.1l-1.52,0.41l-1.31,0.6l-1.52-0.2l-0.52-1.61l-0.69-1.25l0,0
		L40.49,172.75z"/>
	<path id="thailand" fill="#DDDDDD" d="M396.75,335.77l1.39-1.67l1.51,1.53l1.97,0.3l-0.3,2.73l3.5-1.08l1.08-0.15l-3.51-3.8
		l-1.97,0.3l-1.66-1.38l-1.82-1.38l-1.38-1.23l1.38-0.91l-0.77-3.65l-1.38,0.61l-0.78-3.96l-2.1,0.3l-1.82-2.72l0.91-3.51l0.6-1.81
		l1.23-1.38l0.31-2.73l1.22-1.97l0.31-1.08l0.91-0.6v-3.51l-0.61-2.1l1.08-2.59l3.2,0.6l1.07-0.77l-0.91,3.65l0.48,2.43l3.04-0.47
		l2.11,0.3l2.27,1.97l-0.3,1.66l2.27-1.38l1.23,1.54v-5.17l-1.23-4.13l1.56-4.2l5.27-1.13l3.5-0.15l4.21,0.05l1.13-1.72l-0.52-4.36
		l-3.45-3.55l0.2-3.96l-2.02-3.65l-2.83-1.43l-2.02-1.77l-2.02-1.08l-0.82,2.21l-2.02,0.18l-2.65-1.23l-5.72,3.2l1.23-6.07
		l-0.3-3.51l-0.61-1.66l-2.1-1.38l-0.78-2.27l-2.64,0.15v-1.62l-3,1.18l-2.72,2.89l-4.26,0.16l-1.52,3.19l-2.27,2.11l2.27,2.73
		l0.78,3.35l0.6,2.27l2.9,1.38l0.15,4.71l0.47,3.96l-2.59,1.66l1.51,3.51l1.97,1.22l1.23,1.97l0.61,2.9l-0.47,2.59l0.6,1.67
		l1.23,1.23l-0.47,1.66l-0.15,1.08l-1.08,2.27l-1.51,2.11l-2.28,3.35l-0.6,2.89l-0.61,3.2l-1.23,1.97l0.47,4.71l1.38-1.38l1.67,1.97
		l1.23,1.38l-0.15,1.67l1.66-0.15l1.67,1.38l0.78,1.67l0.94,1.54l0,0L396.75,335.77z"/>
	<path id="thailand-w" fill-opacity="0" stroke="#FFFFFF" stroke-width="0.5" d="M396.75,335.77l1.39-1.67l1.51,1.53l1.97,0.3
		l-0.3,2.73l3.5-1.08l1.08-0.15l-3.51-3.8l-1.97,0.3l-1.66-1.38l-1.82-1.38l-1.38-1.23l1.38-0.91l-0.77-3.65l-1.38,0.61l-0.78-3.96
		l-2.1,0.3l-1.82-2.72l0.91-3.51l0.6-1.81l1.23-1.38l0.31-2.73l1.22-1.97l0.31-1.08l0.91-0.6v-3.51l-0.61-2.1l1.08-2.59l3.2,0.6
		l1.07-0.77l-0.91,3.65l0.48,2.43l3.04-0.47l2.11,0.3l2.27,1.97l-0.3,1.66l2.27-1.38l1.23,1.54v-5.17l-1.23-4.13l1.56-4.2l5.27-1.13
		l3.5-0.15l4.21,0.05l1.13-1.72l-0.52-4.36l-3.45-3.55l0.2-3.96l-2.02-3.65l-2.83-1.43l-2.02-1.77l-2.02-1.08l-0.82,2.21l-2.02,0.18
		l-2.65-1.23l-5.72,3.2l1.23-6.07l-0.3-3.51l-0.61-1.66l-2.1-1.38l-0.78-2.27l-2.64,0.15v-1.62l-3,1.18l-2.72,2.89l-4.26,0.16
		l-1.52,3.19l-2.27,2.11l2.27,2.73l0.78,3.35l0.6,2.27l2.9,1.38l0.15,4.71l0.47,3.96l-2.59,1.66l1.51,3.51l1.97,1.22l1.23,1.97
		l0.61,2.9l-0.47,2.59l0.6,1.67l1.23,1.23l-0.47,1.66l-0.15,1.08l-1.08,2.27l-1.51,2.11l-2.28,3.35l-0.6,2.89l-0.61,3.2l-1.23,1.97
		l0.47,4.71l1.38-1.38l1.67,1.97l1.23,1.38l-0.15,1.67l1.66-0.15l1.67,1.38l0.78,1.67l0.94,1.54l0,0L396.75,335.77z"/>
	<path id="cambodia" fill="#DDDDDD" d="M418.67,293.09l-4.64,0.61l-3.25,0.82l-1.23,4.06l0.82,3.25l0.41,3.45l-0.41,3.86l1.62,3.65
		l2.2-0.83l-0.6,2.65l0.4,1.43l2.43-0.83l2.02-1.01l5.67-2.42l4.65,0.4l-1.01-4.26l6.46-2.64l1.23-2.89l-0.83-5.22l-0.2-4.48
		l-2.02,1.01l-2.64-0.61l-2.83,2.21l-3.18-2.01l0,0L418.67,293.09z"/>
	<path id="cambodia-w" fill-opacity="0" stroke="#FFFFFF" stroke-width="0.5" d="M418.67,293.09l-4.64,0.61l-3.25,0.82l-1.23,4.06
		l0.82,3.25l0.41,3.45l-0.41,3.86l1.62,3.65l2.2-0.83l-0.6,2.65l0.4,1.43l2.43-0.83l2.02-1.01l5.67-2.42l4.65,0.4l-1.01-4.26
		l6.46-2.64l1.23-2.89l-0.83-5.22l-0.2-4.48l-2.02,1.01l-2.64-0.61l-2.83,2.21l-3.18-2.01l0,0L418.67,293.09z"/>
</g>
</svg>
